<?xml version="1.0" standalone="no"?>
<!DOCTYPE svg PUBLIC "-//W3C//DTD SVG 1.1//EN" "http://www.w3.org/Graphics/SVG/1.1/DTD/svg11.dtd" >
<svg xmlns="http://www.w3.org/2000/svg" xmlns:xlink="http://www.w3.org/1999/xlink" version="1.1">
<metadata>
Created by FontForge 20190801 at Tue Jan 19 12:14:09 2016
 By Jimmy Wärting
Copyright 2016 Dalton Maag Ltd. Modification of this file requires prior written permission from Dalton Maag Ltd.
</metadata>
<defs>
<font id="Effra-Regular" horiz-adv-x="545" >
  <font-face 
    font-family="Effra"
    font-weight="400"
    font-stretch="normal"
    units-per-em="1000"
    panose-1="2 11 6 3 2 2 3 2 2 4"
    ascent="667"
    descent="-333"
    x-height="465"
    cap-height="667"
    bbox="-146 -686 1222 1224"
    underline-thickness="51"
    underline-position="-120"
    unicode-range="U+0008-FEFF"
  />
<missing-glyph horiz-adv-x="500" 
d="M50 0v750h400v-750h-400zM400 50v650h-300v-650h300z" />
    <glyph glyph-name="f_f" unicode="ff" horiz-adv-x="637" 
d="M98 390h-85v75h85v32q0 52 14.5 88t38 58t51.5 31.5t55 9.5q36 0 69 -12t62 -39l-44 -58q-36 31 -75 31q-38 0 -59.5 -24.5t-21.5 -81.5v-35h217v35q0 48 13.5 82.5t35.5 57t51 33.5t61 11q37 0 73 -11.5t65 -39.5l-45 -58q-37 31 -79 31q-39 0 -62 -26t-23 -83v-32h132
v-75h-132v-390h-90v390h-217v-390h-90v390z" />
    <glyph glyph-name="f_i" unicode="fi" horiz-adv-x="539" 
d="M97 390h-84v75h84v20q0 54 16.5 92t45.5 61.5t68 34.5t84 11q41 0 86 -13t80 -38l-41 -67q-24 17 -55.5 29t-69.5 12q-59 0 -91.5 -24.5t-32.5 -86.5v-31h291v-465h-90v390h-201v-390h-90v390z" />
    <glyph glyph-name="f_l" unicode="fl" horiz-adv-x="550" 
d="M97 390h-84v75h84v23q0 52 15.5 89.5t43 61t66.5 34.5t87 11q30 0 58.5 -4.5t52 -11.5t41.5 -15.5t28 -15.5v-637h-90v591q-17 8 -41 12t-50 4q-66 0 -93.5 -27t-27.5 -92v-23h132v-75h-132v-390h-90v390z" />
    <glyph glyph-name="f_f_i" unicode="ffi" horiz-adv-x="847" 
d="M98 390h-85v75h85v32q0 52 14.5 88t38 58t51.5 31.5t55 9.5q36 0 69 -12t62 -39l-44 -58q-36 31 -75 31q-38 0 -59.5 -24.5t-21.5 -81.5v-35h217v20q0 54 16.5 92t45.5 61.5t68 34.5t84 11q41 0 86 -13t80 -38l-41 -67q-24 17 -55.5 29t-69.5 12q-59 0 -91.5 -24.5
t-32.5 -86.5v-31h291v-465h-90v390h-201v-390h-90v390h-217v-390h-90v390z" />
    <glyph glyph-name="f_f_l" unicode="ffl" horiz-adv-x="858" 
d="M98 390h-85v75h85v32q0 52 14.5 88t38 58t51.5 31.5t55 9.5q36 0 69 -12t62 -39l-44 -58q-36 31 -75 31q-38 0 -59.5 -24.5t-21.5 -81.5v-35h217v23q0 52 15.5 89.5t43 61t66.5 34.5t87 11q30 0 58.5 -4.5t52 -11.5t41.5 -15.5t28 -15.5v-637h-90v591q-17 8 -41 12t-50 4
q-66 0 -93.5 -27t-27.5 -92v-23h132v-75h-132v-390h-90v390h-217v-390h-90v390z" />
    <glyph glyph-name="uni06440645.isol" unicode="&#xfedf;&#xfee2;" horiz-adv-x="382" 
d="M45 -380l-6 397q-1 35 20 54t60 19h94q-8 18 -10.5 40.5t-2.5 55.5l-3 445l79 14l-4 -473q0 -23 3.5 -39.5t13.5 -29.5t27.5 -24.5t44.5 -24.5l28 -13l-47 -92l-70 37q-8 4 -15.5 7t-16 4.5t-19 2t-25.5 0.5h-62q-19 0 -19 -15l-1 -365h-69z" />
    <glyph glyph-name="uni06440645.init" unicode="&#xfedf;&#xfee4;" horiz-adv-x="299" arabic-form="initial" 
d="M189 -14q-8 4 -15.5 7t-16 4.5t-19 2t-25.5 0.5h-113l-16 10v70l16 10h130q-8 18 -10.5 40.5t-2.5 55.5l-3 445l79 14l-4 -473q0 -23 3.5 -39.5t13.5 -29.5t27.5 -24.5t44.5 -24.5l28 -13l-47 -92z" />
    <glyph glyph-name="uniFDF2" unicode="&#x627;&#xfedf;&#xfee0;&#xfeea;" horiz-adv-x="1115" arabic-form="isolated" 
d="M975 0l-5 631l79 14l-5 -645h-69zM762 495l79 14l-3 -360q-1 -73 -40 -111t-114 -38t-114 53q-19 -26 -51 -39.5t-73 -13.5q-63 0 -102.5 28t-47.5 85q-42 -24 -99 -24q-34 0 -63.5 9t-51.5 26t-35 42.5t-13 57.5q0 77 67.5 131t188.5 79v61l79 14l-4 -339q-1 -81 85 -81
q36 0 58 13t22 34l-4 359l79 14l-2 -377q19 -43 78 -43q84 0 84 49zM209 176q48 0 84 14l-2 161q-37 -4 -71 -13.5t-60.5 -24t-42 -33t-15.5 -40.5q0 -18 8.5 -30t23.5 -19.5t34.5 -11t40.5 -3.5zM609 587q-14 0 -25.5 5t-19.5 15q-18 -25 -50 -25q-28 0 -44 17.5t-16 48.5
q0 20 8.5 41.5t23.5 38.5l26 -14q-22 -30 -22 -56q0 -32 26 -32t29 22l7 62l34 -3l-6 -56q-2 -20 30 -20q30 0 30 23q0 17 -7 36.5t-20 36.5l34 20q13 -17 20.5 -40.5t7.5 -45.5q0 -34 -17.5 -54t-48.5 -20zM550 779q0 49 -1.5 82t-5.5 65l41 8q3 -27 3 -60q0 -52 -8 -95
h-29z" />
    <glyph glyph-name="uni064406440647.isol" unicode="&#xfedf;&#xfee0;&#xfeea;" horiz-adv-x="901" 
d="M762 495l79 14l-3 -360q-1 -73 -40 -111t-114 -38t-114 53q-19 -26 -51 -39.5t-73 -13.5q-63 0 -102.5 28t-47.5 85q-42 -24 -99 -24q-34 0 -63.5 9t-51.5 26t-35 42.5t-13 57.5q0 77 67.5 131t188.5 79v61l79 14l-4 -339q-1 -81 85 -81q36 0 58 13t22 34l-4 359l79 14
l-2 -377q19 -43 78 -43q84 0 84 49zM209 176q48 0 84 14l-2 161q-37 -4 -71 -13.5t-60.5 -24t-42 -33t-15.5 -40.5q0 -18 8.5 -30t23.5 -19.5t34.5 -11t40.5 -3.5z" />
    <glyph glyph-name="uni06440671.fina" unicode="&#xfee0;&#xfb51;" horiz-adv-x="516" 
d="M516 0q-56 0 -92.5 14.5t-57.5 43.5q-25 -32 -75 -48.5t-121 -16.5q-32 0 -61 1.5t-53 5.5l-19 93q27 -5 59.5 -7.5t72.5 -2.5h18q-28 101 -63 201t-73 192l72 40q36 -90 70 -197.5t63 -228.5q68 14 68 51l-3 490l79 14l-4 -505q16 -28 42.5 -39t77.5 -11l16 -10v-70z
M-37 651q14 -2 26 -3t25 -2q45 106 103 106q27 0 45 -22t18 -54q0 -78 -118 -78q-29 0 -50.5 1t-38.5 3zM116 706q-33 0 -63 -61h15q42 0 59.5 7.5t17.5 24.5q0 13 -8 21t-21 8z" />
    <glyph glyph-name="uni06440671.isol" unicode="&#xfedf;&#xfb51;" horiz-adv-x="440" 
d="M38 91q22 18 45 41t45.5 48.5t43.5 52.5t39 53q-51 58 -109.5 113t-117.5 98l56 67q25 -21 52.5 -47t55.5 -54.5t54 -57t48 -54.5q28 57 42 125.5t15 154.5l79 14q-1 -95 -23.5 -183.5t-65.5 -163.5q54 -67 77 -112.5t23 -80.5q0 -54 -49.5 -83t-143.5 -29
q-44 0 -86.5 6.5t-66.5 17.5zM327 118q0 7 -5.5 19.5t-14.5 28t-21.5 33t-27.5 35.5q-28 -42 -59 -79.5t-66 -70.5q17 -4 37 -5.5t42 -1.5q51 0 83 11.5t32 29.5zM-77 699q14 -2 26 -3t25 -2q45 106 103 106q27 0 45 -22t18 -54q0 -78 -118 -78q-29 0 -50.5 1t-38.5 3z
M76 754q-33 0 -63 -61h15q42 0 59.5 7.5t17.5 24.5q0 13 -8 21t-21 8z" />
    <glyph glyph-name="uni06440622.fina" unicode="&#xfee0;&#xfe82;" horiz-adv-x="516" arabic-form="final" 
d="M516 0q-56 0 -92.5 14.5t-57.5 43.5q-25 -32 -75 -48.5t-121 -16.5q-32 0 -61 1.5t-53 5.5l-19 93q27 -5 59.5 -7.5t72.5 -2.5h18q-28 101 -63 201t-73 192l72 40q36 -90 70 -197.5t63 -228.5q68 14 68 51l-3 490l79 14l-4 -505q16 -28 42.5 -39t77.5 -11l16 -10v-70z
M201 666q-11 -34 -31.5 -52t-47.5 -18q-18 0 -53 13q-21 8 -33 11.5t-21 3.5q-25 0 -48 -36l-28 17q11 34 31.5 52t47.5 18q18 0 53 -13q21 -8 33 -11.5t21 -3.5q25 0 48 36z" />
    <glyph glyph-name="uni06440622.isol" unicode="&#xfedf;&#xfe82;" horiz-adv-x="440" arabic-form="isolated" 
d="M38 91q22 18 45 41t45.5 48.5t43.5 52.5t39 53q-51 58 -109.5 113t-117.5 98l56 67q25 -21 52.5 -47t55.5 -54.5t54 -57t48 -54.5q28 57 42 125.5t15 154.5l79 14q-1 -95 -23.5 -183.5t-65.5 -163.5q54 -67 77 -112.5t23 -80.5q0 -54 -49.5 -83t-143.5 -29
q-44 0 -86.5 6.5t-66.5 17.5zM327 118q0 7 -5.5 19.5t-14.5 28t-21.5 33t-27.5 35.5q-28 -42 -59 -79.5t-66 -70.5q17 -4 37 -5.5t42 -1.5q51 0 83 11.5t32 29.5zM161 714q-11 -34 -31.5 -52t-47.5 -18q-18 0 -53 13q-21 8 -33 11.5t-21 3.5q-25 0 -48 -36l-28 17
q11 34 31.5 52t47.5 18q18 0 53 -13q21 -8 33 -11.5t21 -3.5q25 0 48 36z" />
    <glyph glyph-name="uni06440625.fina" unicode="&#xfee0;&#xfe88;" horiz-adv-x="516" arabic-form="final" 
d="M516 0q-56 0 -92.5 14.5t-57.5 43.5q-25 -32 -75 -48.5t-121 -16.5q-32 0 -61 1.5t-53 5.5l-19 93q27 -5 59.5 -7.5t72.5 -2.5h18q-28 101 -63 201t-73 192l72 40q36 -90 70 -197.5t63 -228.5q68 14 68 51l-3 490l79 14l-4 -505q16 -28 42.5 -39t77.5 -11l16 -10v-70z
M321 -228q-79 -6 -154 -30l-14 36l49 18q-33 19 -33 54q0 32 23 54.5t55 22.5q34 0 56 -25l-20 -29q-15 9 -32 9q-18 0 -29.5 -9t-11.5 -23q0 -15 15.5 -25t41.5 -12q17 3 32 4.5t29 2.5z" />
    <glyph glyph-name="uni06440625.isol" unicode="&#xfedf;&#xfe88;" horiz-adv-x="440" arabic-form="isolated" 
d="M38 91q22 18 45 41t45.5 48.5t43.5 52.5t39 53q-51 58 -109.5 113t-117.5 98l56 67q25 -21 52.5 -47t55.5 -54.5t54 -57t48 -54.5q28 57 42 125.5t15 154.5l79 14q-1 -95 -23.5 -183.5t-65.5 -163.5q54 -67 77 -112.5t23 -80.5q0 -54 -49.5 -83t-143.5 -29
q-44 0 -86.5 6.5t-66.5 17.5zM327 118q0 7 -5.5 19.5t-14.5 28t-21.5 33t-27.5 35.5q-28 -42 -59 -79.5t-66 -70.5q17 -4 37 -5.5t42 -1.5q51 0 83 11.5t32 29.5zM157 -228q-79 -6 -154 -30l-14 36l49 18q-33 19 -33 54q0 32 23 54.5t55 22.5q34 0 56 -25l-20 -29
q-15 9 -32 9q-18 0 -29.5 -9t-11.5 -23q0 -15 15.5 -25t41.5 -12q17 3 32 4.5t29 2.5z" />
    <glyph glyph-name="uni06440623.fina" unicode="&#xfee0;&#xfe84;" horiz-adv-x="516" arabic-form="final" 
d="M516 0q-56 0 -92.5 14.5t-57.5 43.5q-25 -32 -75 -48.5t-121 -16.5q-32 0 -61 1.5t-53 5.5l-19 93q27 -5 59.5 -7.5t72.5 -2.5h18q-28 101 -63 201t-73 192l72 40q36 -90 70 -197.5t63 -228.5q68 14 68 51l-3 490l79 14l-4 -505q16 -28 42.5 -39t77.5 -11l16 -10v-70z
M152 617q-79 -6 -154 -30l-14 36q14 5 26 9t23 8q-33 19 -33 55q0 32 23 54.5t55 22.5q34 0 56 -25l-20 -29q-15 9 -32 9q-18 0 -29.5 -9t-11.5 -23q0 -15 15.5 -25t41.5 -13q17 3 32 5t29 3z" />
    <glyph glyph-name="uni06440623.isol" unicode="&#xfedf;&#xfe84;" horiz-adv-x="440" arabic-form="isolated" 
d="M38 91q22 18 45 41t45.5 48.5t43.5 52.5t39 53q-51 58 -109.5 113t-117.5 98l56 67q25 -21 52.5 -47t55.5 -54.5t54 -57t48 -54.5q28 57 42 125.5t15 154.5l79 14q-1 -95 -23.5 -183.5t-65.5 -163.5q54 -67 77 -112.5t23 -80.5q0 -54 -49.5 -83t-143.5 -29
q-44 0 -86.5 6.5t-66.5 17.5zM327 118q0 7 -5.5 19.5t-14.5 28t-21.5 33t-27.5 35.5q-28 -42 -59 -79.5t-66 -70.5q17 -4 37 -5.5t42 -1.5q51 0 83 11.5t32 29.5zM112 665q-79 -6 -154 -30l-14 36q14 5 26 9t23 8q-33 19 -33 55q0 32 23 54.5t55 22.5q34 0 56 -25l-20 -29
q-15 9 -32 9q-18 0 -29.5 -9t-11.5 -23q0 -15 15.5 -25t41.5 -13q17 3 32 5t29 3z" />
    <glyph glyph-name="uni06440627.fina" unicode="&#xfee0;&#xfe8e;" horiz-adv-x="516" arabic-form="final" 
d="M516 0q-56 0 -92.5 14.5t-57.5 43.5q-25 -32 -75 -48.5t-121 -16.5q-32 0 -61 1.5t-53 5.5l-19 93q27 -5 59.5 -7.5t72.5 -2.5h18q-28 101 -63 201t-73 192l72 40q36 -90 70 -197.5t63 -228.5q68 14 68 51l-3 490l79 14l-4 -505q16 -28 42.5 -39t77.5 -11l16 -10v-70z
" />
    <glyph glyph-name="uni06440627.isol" unicode="&#xfedf;&#xfe8e;" horiz-adv-x="440" arabic-form="isolated" 
d="M38 91q22 18 45 41t45.5 48.5t43.5 52.5t39 53q-51 58 -109.5 113t-117.5 98l56 67q25 -21 52.5 -47t55.5 -54.5t54 -57t48 -54.5q28 57 42 125.5t15 154.5l79 14q-1 -95 -23.5 -183.5t-65.5 -163.5q54 -67 77 -112.5t23 -80.5q0 -54 -49.5 -83t-143.5 -29
q-44 0 -86.5 6.5t-66.5 17.5zM327 118q0 7 -5.5 19.5t-14.5 28t-21.5 33t-27.5 35.5q-28 -42 -59 -79.5t-66 -70.5q17 -4 37 -5.5t42 -1.5q51 0 83 11.5t32 29.5z" />
    <glyph glyph-name="uni06A1.init" unicode="&#x6a1;" horiz-adv-x="416" 
d="M285 200q-20 -16 -46.5 -25t-56.5 -9q-66 0 -103.5 38.5t-37.5 107.5q0 39 12 73.5t32.5 60t48.5 40t60 14.5q78 0 118.5 -80t40.5 -236q0 -66 -16 -100.5t-55 -52.5q-19 -9 -41.5 -14.5t-53.5 -9.5t-71 -5.5t-93 -1.5h-23l-16 10v70l16 10h23q130 0 196 10t66 30v70z
M191 242q26 0 50.5 7t39.5 19q-7 78 -28.5 113t-61.5 35q-37 0 -62 -28.5t-25 -70.5q0 -37 22.5 -56t64.5 -19z" />
    <glyph glyph-name="uni06A1.medi" unicode="&#x6a1;" horiz-adv-x="424" 
d="M424 0q-56 0 -110 9t-102 26q-48 -17 -102 -26t-110 -9l-16 10v70l16 10q29 0 56 1t51 3q-52 48 -52 122q0 37 12.5 69.5t34 56.5t50 38t60.5 14t60.5 -14t50 -38t34 -56.5t12.5 -69.5q0 -73 -52 -122q23 -2 50 -3t57 -1l16 -10v-70zM120 213q0 -69 92 -99q92 30 92 99
q0 20 -7 37t-19.5 30t-29.5 20t-36 7t-36 -7t-29.5 -20t-19.5 -30t-7 -37z" />
    <glyph glyph-name="uni06A1.fina" unicode="&#x6a1;" horiz-adv-x="818" 
d="M818 0q-56 0 -110 9t-102 26q-53 -20 -108 -31t-112 -11q-89 0 -153.5 10.5t-106.5 33t-62 57t-20 82.5q0 41 15 89.5t41 93.5l53 -26q-16 -35 -24.5 -67t-8.5 -58q0 -33 14.5 -56.5t46.5 -38t82.5 -21.5t122.5 -7q65 0 118 6q-55 49 -55 125q0 37 12.5 69.5t34 56.5
t50 38t60.5 14t60.5 -14t50 -38t34 -56.5t12.5 -69.5q0 -73 -52 -122q24 -2 50.5 -3t56.5 -1l16 -10v-70zM514 213q0 -71 94 -100q90 34 90 100q0 20 -7 37t-19.5 30t-29.5 20t-36 7t-36 -7t-29.5 -20t-19.5 -30t-7 -37z" />
    <glyph glyph-name="uni0671.fina" unicode="&#x671;" horiz-adv-x="230" arabic-form="final" 
d="M230 0q-161 0 -163 140l-4 491l79 14l-4 -475q0 -43 21.5 -61.5t70.5 -18.5l16 -10v-70zM-5 780q14 -2 26 -3t25 -2q45 106 103 106q27 0 45 -22t18 -54q0 -78 -118 -78q-29 0 -50.5 1t-38.5 3zM148 835q-33 0 -63 -61h15q42 0 59.5 7.5t17.5 24.5q0 13 -8 21t-21 8z" />
    <glyph glyph-name="uni0671.isol" unicode="&#x671;" horiz-adv-x="211" arabic-form="isolated" 
d="M71 0l-5 631l79 14l-5 -645h-69zM-2 780q14 -2 26 -3t25 -2q45 106 103 106q27 0 45 -22t18 -54q0 -78 -118 -78q-29 0 -50.5 1t-38.5 3zM151 835q-33 0 -63 -61h15q42 0 59.5 7.5t17.5 24.5q0 13 -8 21t-21 8z" />
    <glyph glyph-name="uni0622.fina" unicode="&#x622;" horiz-adv-x="230" arabic-form="final" 
d="M230 0q-161 0 -163 140l-4 491l79 14l-4 -475q0 -43 21.5 -61.5t70.5 -18.5l16 -10v-70zM233 795q-11 -34 -31.5 -52t-47.5 -18q-18 0 -53 13q-21 8 -33 11.5t-21 3.5q-25 0 -48 -36l-28 17q11 34 31.5 52t47.5 18q18 0 53 -13q21 -8 33 -11.5t21 -3.5q25 0 48 36z" />
    <glyph glyph-name="uni0622.isol" unicode="&#x622;" horiz-adv-x="211" arabic-form="isolated" 
d="M71 0l-5 631l79 14l-5 -645h-69zM236 795q-11 -34 -31.5 -52t-47.5 -18q-18 0 -53 13q-21 8 -33 11.5t-21 3.5q-25 0 -48 -36l-28 17q11 34 31.5 52t47.5 18q18 0 53 -13q21 -8 33 -11.5t21 -3.5q25 0 48 36z" />
    <glyph glyph-name="uni0625.fina" unicode="&#x625;" horiz-adv-x="230" arabic-form="final" 
d="M230 0q-161 0 -163 140l-4 491l79 14l-4 -475q0 -43 21.5 -61.5t70.5 -18.5l16 -10v-70zM184 -228q-79 -6 -154 -30l-14 36l49 18q-33 19 -33 54q0 32 23 54.5t55 22.5q34 0 56 -25l-20 -29q-15 9 -32 9q-18 0 -29.5 -9t-11.5 -23q0 -15 15.5 -25t41.5 -12q17 3 32 4.5
t29 2.5z" />
    <glyph glyph-name="uni0625.isol" unicode="&#x625;" horiz-adv-x="211" arabic-form="isolated" 
d="M71 0l-5 631l79 14l-5 -645h-69zM187 -228q-79 -6 -154 -30l-14 36l49 18q-33 19 -33 54q0 32 23 54.5t55 22.5q34 0 56 -25l-20 -29q-15 9 -32 9q-18 0 -29.5 -9t-11.5 -23q0 -15 15.5 -25t41.5 -12q17 3 32 4.5t29 2.5z" />
    <glyph glyph-name="uni0623.fina" unicode="&#x623;" horiz-adv-x="230" arabic-form="final" 
d="M230 0q-161 0 -163 140l-4 491l79 14l-4 -475q0 -43 21.5 -61.5t70.5 -18.5l16 -10v-70zM184 746q-79 -6 -154 -30l-14 36q14 5 26 9t23 8q-33 19 -33 55q0 32 23 54.5t55 22.5q34 0 56 -25l-20 -29q-15 9 -32 9q-18 0 -29.5 -9t-11.5 -23q0 -15 15.5 -25t41.5 -13
q17 3 32 5t29 3z" />
    <glyph glyph-name="uni0623.isol" unicode="&#x623;" horiz-adv-x="211" arabic-form="isolated" 
d="M71 0l-5 631l79 14l-5 -645h-69zM187 746q-79 -6 -154 -30l-14 36q14 5 26 9t23 8q-33 19 -33 55q0 32 23 54.5t55 22.5q34 0 56 -25l-20 -29q-15 9 -32 9q-18 0 -29.5 -9t-11.5 -23q0 -15 15.5 -25t41.5 -13q17 3 32 5t29 3z" />
    <glyph glyph-name="uni062C.fina" unicode="&#x62c;" horiz-adv-x="606" arabic-form="final" 
d="M581 -219q-45 -38 -108.5 -59.5t-132.5 -21.5q-62 0 -113 16.5t-87.5 46.5t-56.5 72.5t-20 93.5q0 103 78.5 183.5t227.5 130.5q-12 2 -24.5 5t-24.5 7q-54 15 -87.5 22t-53.5 7q-26 0 -43.5 -9t-39.5 -33l-46 36q51 91 140 91q29 0 70 -9t109 -30q93 -28 145 -28h20v-84
q-195 -48 -294.5 -117t-99.5 -157q0 -35 15 -63t43 -48t67.5 -31t88.5 -11q57 0 111.5 12.5t91.5 32.5zM606 0q-85 0 -129.5 45t-44.5 127q0 17 2 42.5t4 41.5h54q-2 -14 -3 -32t-1 -28q0 -56 26.5 -81t91.5 -25l16 -10v-70zM340 -82l-62 63l62 63l62 -63z" />
    <glyph glyph-name="uni062C.medi" unicode="&#x62c;" horiz-adv-x="561" arabic-form="medial" 
d="M247 163q35 17 63.5 29.5t54.5 20.5l-51 22q-33 14 -57 23.5t-42 15t-32 8t-27 2.5q-26 0 -43.5 -9t-39.5 -33l-46 36q27 48 61.5 69.5t81.5 21.5q15 0 30.5 -2.5t34.5 -8t43.5 -15.5t57.5 -25q27 -12 47.5 -20.5t36.5 -14t29 -7.5t26 -2h20v-84q-23 -6 -45 -13.5
t-46 -18.5t-52.5 -25.5t-64.5 -35.5q-48 -27 -86.5 -46t-72 -30t-64.5 -16t-64 -5l-16 10v70l16 10q29 0 56.5 4t56.5 12.5t62 22.5t72 34zM561 0q-84 0 -123.5 41.5t-39.5 121.5q0 20 1 33.5t4 27.5h55q-2 -19 -3 -27.5t-1 -16.5q0 -24 5 -41t17.5 -28t33 -16t51.5 -5
l16 -10v-70zM240 -186l-62 63l62 63l62 -63z" />
    <glyph glyph-name="uni062C.init" unicode="&#x62c;" horiz-adv-x="552" arabic-form="initial" 
d="M247 163q35 17 63.5 29.5t54.5 20.5l-51 22q-33 14 -57 23.5t-42 15t-32 8t-27 2.5q-26 0 -43.5 -9t-39.5 -33l-46 36q27 48 61.5 69.5t81.5 21.5q15 0 30.5 -2.5t34.5 -8t43.5 -15.5t57.5 -25q27 -12 47.5 -20.5t36.5 -14t29 -7.5t26 -2h20v-84q-23 -6 -45 -13.5
t-46 -18.5t-52.5 -25.5t-64.5 -35.5q-48 -27 -86.5 -46t-72 -30t-64.5 -16t-64 -5l-16 10v70l16 10q29 0 56.5 4t56.5 12.5t62 22.5t72 34zM240 -186l-62 63l62 63l62 -63z" />
    <glyph glyph-name="uni062C.isol" unicode="&#x62c;" horiz-adv-x="587" arabic-form="isolated" 
d="M581 -219q-45 -38 -108.5 -59.5t-132.5 -21.5q-62 0 -113 16.5t-87.5 46.5t-56.5 72.5t-20 93.5q0 103 78.5 183.5t227.5 130.5q-12 2 -24.5 5t-24.5 7q-54 15 -87.5 22t-53.5 7q-26 0 -43.5 -9t-39.5 -33l-46 36q51 91 140 91q29 0 70 -9t109 -30q93 -28 145 -28h20v-84
q-195 -48 -294.5 -117t-99.5 -157q0 -35 15 -63t43 -48t67.5 -31t88.5 -11q57 0 111.5 12.5t91.5 32.5zM356 -82l-62 63l62 63l62 -63z" />
    <glyph glyph-name="uni062B.fina" unicode="&#x62b;" horiz-adv-x="854" arabic-form="final" 
d="M854 0q-122 0 -159 73q-26 -42 -102 -61t-207 -19q-89 0 -153.5 10.5t-106.5 33t-62 57t-20 82.5q0 41 15 89.5t41 93.5l53 -26q-16 -35 -24.5 -67t-8.5 -58q0 -33 14.5 -56.5t46.5 -38t82.5 -21.5t122.5 -7q78 0 129 4t82.5 14t46 28t20.5 45q4 20 8.5 49.5t7.5 54.5
l68 -8q-5 -42 -9 -77t-4 -43q0 -62 119 -62l16 -10v-70zM337 387l-62 63l62 63l62 -63zM483 387l-62 63l62 63l62 -63zM410 516l-62 63l62 63l62 -63z" />
    <glyph glyph-name="uni062B.medi" unicode="&#x62b;" horiz-adv-x="330" arabic-form="medial" 
d="M330 0q-117 0 -156 67q-20 -32 -65.5 -49.5t-108.5 -17.5l-16 10v70l16 10q65 0 96.5 15t39.5 50l5 27.5t6 33.5t5 34t4 30l68 -8q-5 -42 -9 -77t-4 -43q0 -62 119 -62l16 -10v-70zM123 361l-62 63l62 63l62 -63zM269 361l-62 63l62 63l62 -63zM196 490l-62 63l62 63
l62 -63z" />
    <glyph glyph-name="uni062B.init" unicode="&#x62b;" horiz-adv-x="276" arabic-form="initial" 
d="M-16 10v70l16 10q70 0 114 17.5t44 41.5q0 19 -4.5 44t-13 52.5t-19.5 55.5t-24 53l72 40q12 -23 22.5 -52.5t19 -60.5t13 -60.5t4.5 -52.5q0 -87 -56 -127.5t-172 -40.5zM42 474l-62 63l62 63l62 -63zM188 474l-62 63l62 63l62 -63zM115 603l-62 63l62 63l62 -63z" />
    <glyph glyph-name="uni062B.isol" unicode="&#x62b;" horiz-adv-x="775" arabic-form="isolated" 
d="M668 394q13 -24 23.5 -54.5t18.5 -62t12.5 -63.5t4.5 -59q0 -83 -83 -122.5t-258 -39.5q-89 0 -153.5 10.5t-106.5 33t-62 57t-20 82.5q0 41 15 89.5t41 93.5l53 -26q-16 -35 -24.5 -67t-8.5 -58q0 -33 14.5 -56.5t46.5 -38t82.5 -21.5t122.5 -7q56 0 105.5 5t86 14
t58 20.5t21.5 24.5q0 19 -4.5 44t-13 52.5t-19.5 55.5t-24 53zM299 417l-62 63l62 63l62 -63zM445 417l-62 63l62 63l62 -63zM372 546l-62 63l62 63l62 -63z" />
    <glyph glyph-name="uni062A.fina" unicode="&#x62a;" horiz-adv-x="854" arabic-form="final" 
d="M854 0q-122 0 -159 73q-26 -42 -102 -61t-207 -19q-89 0 -153.5 10.5t-106.5 33t-62 57t-20 82.5q0 41 15 89.5t41 93.5l53 -26q-16 -35 -24.5 -67t-8.5 -58q0 -33 14.5 -56.5t46.5 -38t82.5 -21.5t122.5 -7q78 0 129 4t82.5 14t46 28t20.5 45q4 20 8.5 49.5t7.5 54.5
l68 -8q-5 -42 -9 -77t-4 -43q0 -62 119 -62l16 -10v-70zM337 387l-62 63l62 63l62 -63zM483 387l-62 63l62 63l62 -63z" />
    <glyph glyph-name="uni062A.medi" unicode="&#x62a;" horiz-adv-x="330" arabic-form="medial" 
d="M330 0q-117 0 -156 67q-20 -32 -65.5 -49.5t-108.5 -17.5l-16 10v70l16 10q65 0 96.5 15t39.5 50l5 27.5t6 33.5t5 34t4 30l68 -8q-5 -42 -9 -77t-4 -43q0 -62 119 -62l16 -10v-70zM123 361l-62 63l62 63l62 -63zM269 361l-62 63l62 63l62 -63z" />
    <glyph glyph-name="uni062A.init" unicode="&#x62a;" horiz-adv-x="276" arabic-form="initial" 
d="M-16 10v70l16 10q70 0 114 17.5t44 41.5q0 19 -4.5 44t-13 52.5t-19.5 55.5t-24 53l72 40q12 -23 22.5 -52.5t19 -60.5t13 -60.5t4.5 -52.5q0 -87 -56 -127.5t-172 -40.5zM42 474l-62 63l62 63l62 -63zM188 474l-62 63l62 63l62 -63z" />
    <glyph glyph-name="uni062A.isol" unicode="&#x62a;" horiz-adv-x="775" arabic-form="isolated" 
d="M668 394q13 -24 23.5 -54.5t18.5 -62t12.5 -63.5t4.5 -59q0 -83 -83 -122.5t-258 -39.5q-89 0 -153.5 10.5t-106.5 33t-62 57t-20 82.5q0 41 15 89.5t41 93.5l53 -26q-16 -35 -24.5 -67t-8.5 -58q0 -33 14.5 -56.5t46.5 -38t82.5 -21.5t122.5 -7q56 0 105.5 5t86 14
t58 20.5t21.5 24.5q0 19 -4.5 44t-13 52.5t-19.5 55.5t-24 53zM299 417l-62 63l62 63l62 -63zM445 417l-62 63l62 63l62 -63z" />
    <glyph glyph-name="uni0628.fina" unicode="&#x628;" horiz-adv-x="854" arabic-form="final" 
d="M854 0q-122 0 -159 73q-26 -42 -102 -61t-207 -19q-89 0 -153.5 10.5t-106.5 33t-62 57t-20 82.5q0 41 15 89.5t41 93.5l53 -26q-16 -35 -24.5 -67t-8.5 -58q0 -33 14.5 -56.5t46.5 -38t82.5 -21.5t122.5 -7q78 0 129 4t82.5 14t46 28t20.5 45q4 20 8.5 49.5t7.5 54.5
l68 -8q-5 -42 -9 -77t-4 -43q0 -62 119 -62l16 -10v-70zM386 -206l-62 63l62 63l62 -63z" />
    <glyph glyph-name="uni0628.medi" unicode="&#x628;" horiz-adv-x="330" arabic-form="medial" 
d="M330 0q-117 0 -156 67q-20 -32 -65.5 -49.5t-108.5 -17.5l-16 10v70l16 10q65 0 96.5 15t39.5 50l5 27.5t6 33.5t5 34t4 30l68 -8q-5 -42 -9 -77t-4 -43q0 -62 119 -62l16 -10v-70zM175 -206l-62 63l62 63l62 -63z" />
    <glyph glyph-name="uni0628.init" unicode="&#x628;" horiz-adv-x="276" arabic-form="initial" 
d="M-16 10v70l16 10q70 0 114 17.5t44 41.5q0 19 -4.5 44t-13 52.5t-19.5 55.5t-24 53l72 40q12 -23 22.5 -52.5t19 -60.5t13 -60.5t4.5 -52.5q0 -87 -56 -127.5t-172 -40.5zM108 -206l-62 63l62 63l62 -63z" />
    <glyph glyph-name="uni0628.isol" unicode="&#x628;" horiz-adv-x="775" arabic-form="isolated" 
d="M668 394q13 -24 23.5 -54.5t18.5 -62t12.5 -63.5t4.5 -59q0 -83 -83 -122.5t-258 -39.5q-89 0 -153.5 10.5t-106.5 33t-62 57t-20 82.5q0 41 15 89.5t41 93.5l53 -26q-16 -35 -24.5 -67t-8.5 -58q0 -33 14.5 -56.5t46.5 -38t82.5 -21.5t122.5 -7q56 0 105.5 5t86 14
t58 20.5t21.5 24.5q0 19 -4.5 44t-13 52.5t-19.5 55.5t-24 53zM385 -206l-62 63l62 63l62 -63z" />
    <glyph glyph-name="uni0627.fina" unicode="&#x627;" horiz-adv-x="230" arabic-form="final" 
d="M230 0q-161 0 -163 140l-4 491l79 14l-4 -475q0 -43 21.5 -61.5t70.5 -18.5l16 -10v-70z" />
    <glyph glyph-name="uni0627.isol" unicode="&#x627;" horiz-adv-x="211" arabic-form="isolated" 
d="M71 0l-5 631l79 14l-5 -645h-69z" />
    <glyph glyph-name="uni0631.fina" unicode="&#x631;" horiz-adv-x="404" arabic-form="final" 
d="M404 0q-68 0 -111 29q-22 -72 -90 -131.5t-173 -97.5l-46 79q110 42 177 97t78 115q-14 26 -28.5 64t-33.5 95l75 35q12 -37 24.5 -74t19.5 -53q8 -20 17 -33t21 -21t29 -11t41 -3l16 -10v-70z" />
    <glyph glyph-name="uni0631.isol" unicode="&#x631;" horiz-adv-x="351" arabic-form="isolated" 
d="M-16 -121q54 20 100 46t79.5 54.5t52.5 57t19 54.5q0 16 -7 41t-19.5 54.5t-29.5 61.5t-36 62l72 40q42 -56 66 -124t24 -127q0 -94 -72 -172.5t-203 -126.5z" />
    <glyph glyph-name="uni0630.fina" unicode="&#x630;" horiz-adv-x="469" arabic-form="final" 
d="M469 0q-42 0 -71.5 11t-52.5 34q-24 -27 -73 -39.5t-130 -12.5q-21 0 -48.5 2t-47.5 5l-19 93q26 -5 56.5 -7.5t58.5 -2.5q52 0 93 7t66 20q-11 20 -22 45t-24 57t-28 73t-34 93l75 36q52 -145 103 -267q14 -33 34.5 -45t63.5 -12l16 -10v-70zM213 494l-62 63l62 63
l62 -63z" />
    <glyph glyph-name="uni0630.isol" unicode="&#x630;" horiz-adv-x="412" arabic-form="isolated" 
d="M27 93q26 -5 56.5 -7.5t58.5 -2.5q30 0 58.5 3t50.5 7.5t35.5 11t13.5 12.5q0 23 -11.5 53t-32 62t-49 64.5t-61.5 61.5l62 59q37 -33 67 -70t51 -75.5t32.5 -76.5t11.5 -73q0 -69 -53.5 -99t-174.5 -30q-21 0 -48.5 2t-47.5 5zM157 497l-62 63l62 63l62 -63z" />
    <glyph glyph-name="uni062F.fina" unicode="&#x62f;" horiz-adv-x="469" arabic-form="final" 
d="M469 0q-42 0 -71.5 11t-52.5 34q-24 -27 -73 -39.5t-130 -12.5q-21 0 -48.5 2t-47.5 5l-19 93q26 -5 56.5 -7.5t58.5 -2.5q52 0 93 7t66 20q-11 20 -22 45t-24 57t-28 73t-34 93l75 36q52 -145 103 -267q14 -33 34.5 -45t63.5 -12l16 -10v-70z" />
    <glyph glyph-name="uni062F.isol" unicode="&#x62f;" horiz-adv-x="412" arabic-form="isolated" 
d="M27 93q26 -5 56.5 -7.5t58.5 -2.5q30 0 58.5 3t50.5 7.5t35.5 11t13.5 12.5q0 23 -11.5 53t-32 62t-49 64.5t-61.5 61.5l62 59q37 -33 67 -70t51 -75.5t32.5 -76.5t11.5 -73q0 -69 -53.5 -99t-174.5 -30q-21 0 -48.5 2t-47.5 5z" />
    <glyph glyph-name="uni062E.fina" unicode="&#x62e;" horiz-adv-x="606" arabic-form="final" 
d="M581 -219q-45 -38 -108.5 -59.5t-132.5 -21.5q-62 0 -113 16.5t-87.5 46.5t-56.5 72.5t-20 93.5q0 103 78.5 183.5t227.5 130.5q-12 2 -24.5 5t-24.5 7q-54 15 -87.5 22t-53.5 7q-26 0 -43.5 -9t-39.5 -33l-46 36q51 91 140 91q29 0 70 -9t109 -30q93 -28 145 -28h20v-84
q-195 -48 -294.5 -117t-99.5 -157q0 -35 15 -63t43 -48t67.5 -31t88.5 -11q57 0 111.5 12.5t91.5 32.5zM606 0q-85 0 -129.5 45t-44.5 127q0 17 2 42.5t4 41.5h54q-2 -14 -3 -32t-1 -28q0 -56 26.5 -81t91.5 -25l16 -10v-70zM291 450l-62 63l62 63l62 -63z" />
    <glyph glyph-name="uni062E.medi" unicode="&#x62e;" horiz-adv-x="561" arabic-form="medial" 
d="M247 163q35 17 63.5 29.5t54.5 20.5l-51 22q-33 14 -57 23.5t-42 15t-32 8t-27 2.5q-26 0 -43.5 -9t-39.5 -33l-46 36q27 48 61.5 69.5t81.5 21.5q15 0 30.5 -2.5t34.5 -8t43.5 -15.5t57.5 -25q27 -12 47.5 -20.5t36.5 -14t29 -7.5t26 -2h20v-84q-23 -6 -45 -13.5
t-46 -18.5t-52.5 -25.5t-64.5 -35.5q-48 -27 -86.5 -46t-72 -30t-64.5 -16t-64 -5l-16 10v70l16 10q29 0 56.5 4t56.5 12.5t62 22.5t72 34zM561 0q-84 0 -123.5 41.5t-39.5 121.5q0 20 1 33.5t4 27.5h55q-2 -19 -3 -27.5t-1 -16.5q0 -24 5 -41t17.5 -28t33 -16t51.5 -5
l16 -10v-70zM268 450l-62 63l62 63l62 -63z" />
    <glyph glyph-name="uni062E.init" unicode="&#x62e;" horiz-adv-x="552" arabic-form="initial" 
d="M247 163q35 17 63.5 29.5t54.5 20.5l-51 22q-33 14 -57 23.5t-42 15t-32 8t-27 2.5q-26 0 -43.5 -9t-39.5 -33l-46 36q27 48 61.5 69.5t81.5 21.5q15 0 30.5 -2.5t34.5 -8t43.5 -15.5t57.5 -25q27 -12 47.5 -20.5t36.5 -14t29 -7.5t26 -2h20v-84q-23 -6 -45 -13.5
t-46 -18.5t-52.5 -25.5t-64.5 -35.5q-48 -27 -86.5 -46t-72 -30t-64.5 -16t-64 -5l-16 10v70l16 10q29 0 56.5 4t56.5 12.5t62 22.5t72 34zM268 450l-62 63l62 63l62 -63z" />
    <glyph glyph-name="uni062E.isol" unicode="&#x62e;" horiz-adv-x="587" arabic-form="isolated" 
d="M581 -219q-45 -38 -108.5 -59.5t-132.5 -21.5q-62 0 -113 16.5t-87.5 46.5t-56.5 72.5t-20 93.5q0 103 78.5 183.5t227.5 130.5q-12 2 -24.5 5t-24.5 7q-54 15 -87.5 22t-53.5 7q-26 0 -43.5 -9t-39.5 -33l-46 36q51 91 140 91q29 0 70 -9t109 -30q93 -28 145 -28h20v-84
q-195 -48 -294.5 -117t-99.5 -157q0 -35 15 -63t43 -48t67.5 -31t88.5 -11q57 0 111.5 12.5t91.5 32.5zM291 450l-62 63l62 63l62 -63z" />
    <glyph glyph-name="uni062D.fina" unicode="&#x62d;" horiz-adv-x="606" arabic-form="final" 
d="M581 -219q-45 -38 -108.5 -59.5t-132.5 -21.5q-62 0 -113 16.5t-87.5 46.5t-56.5 72.5t-20 93.5q0 103 78.5 183.5t227.5 130.5q-12 2 -24.5 5t-24.5 7q-54 15 -87.5 22t-53.5 7q-26 0 -43.5 -9t-39.5 -33l-46 36q51 91 140 91q29 0 70 -9t109 -30q93 -28 145 -28h20v-84
q-195 -48 -294.5 -117t-99.5 -157q0 -35 15 -63t43 -48t67.5 -31t88.5 -11q57 0 111.5 12.5t91.5 32.5zM606 0q-85 0 -129.5 45t-44.5 127q0 17 2 42.5t4 41.5h54q-2 -14 -3 -32t-1 -28q0 -56 26.5 -81t91.5 -25l16 -10v-70z" />
    <glyph glyph-name="uni062D.medi" unicode="&#x62d;" horiz-adv-x="561" arabic-form="medial" 
d="M247 163q35 17 63.5 29.5t54.5 20.5l-51 22q-33 14 -57 23.5t-42 15t-32 8t-27 2.5q-26 0 -43.5 -9t-39.5 -33l-46 36q27 48 61.5 69.5t81.5 21.5q15 0 30.5 -2.5t34.5 -8t43.5 -15.5t57.5 -25q27 -12 47.5 -20.5t36.5 -14t29 -7.5t26 -2h20v-84q-23 -6 -45 -13.5
t-46 -18.5t-52.5 -25.5t-64.5 -35.5q-48 -27 -86.5 -46t-72 -30t-64.5 -16t-64 -5l-16 10v70l16 10q29 0 56.5 4t56.5 12.5t62 22.5t72 34zM561 0q-84 0 -123.5 41.5t-39.5 121.5q0 20 1 33.5t4 27.5h55q-2 -19 -3 -27.5t-1 -16.5q0 -24 5 -41t17.5 -28t33 -16t51.5 -5
l16 -10v-70z" />
    <glyph glyph-name="uni062D.init" unicode="&#x62d;" horiz-adv-x="552" arabic-form="initial" 
d="M247 163q35 17 63.5 29.5t54.5 20.5l-51 22q-33 14 -57 23.5t-42 15t-32 8t-27 2.5q-26 0 -43.5 -9t-39.5 -33l-46 36q27 48 61.5 69.5t81.5 21.5q15 0 30.5 -2.5t34.5 -8t43.5 -15.5t57.5 -25q27 -12 47.5 -20.5t36.5 -14t29 -7.5t26 -2h20v-84q-23 -6 -45 -13.5
t-46 -18.5t-52.5 -25.5t-64.5 -35.5q-48 -27 -86.5 -46t-72 -30t-64.5 -16t-64 -5l-16 10v70l16 10q29 0 56.5 4t56.5 12.5t62 22.5t72 34z" />
    <glyph glyph-name="uni062D.isol" unicode="&#x62d;" horiz-adv-x="587" arabic-form="isolated" 
d="M581 -219q-45 -38 -108.5 -59.5t-132.5 -21.5q-62 0 -113 16.5t-87.5 46.5t-56.5 72.5t-20 93.5q0 103 78.5 183.5t227.5 130.5q-12 2 -24.5 5t-24.5 7q-54 15 -87.5 22t-53.5 7q-26 0 -43.5 -9t-39.5 -33l-46 36q51 91 140 91q29 0 70 -9t109 -30q93 -28 145 -28h20v-84
q-195 -48 -294.5 -117t-99.5 -157q0 -35 15 -63t43 -48t67.5 -31t88.5 -11q57 0 111.5 12.5t91.5 32.5z" />
    <glyph glyph-name="uni0636.fina" unicode="&#x636;" horiz-adv-x="1135" arabic-form="final" 
d="M510 244q23 -51 52 -84.5t71 -51.5q62 139 133 212.5t144 73.5q36 0 67 -15.5t54 -43t36 -64.5t13 -79q0 -96 -81 -147.5t-232 -51.5q-119 0 -190 48t-108 155zM909 302q-54 0 -107.5 -54.5t-104.5 -157.5q34 -6 79 -6q116 0 175 27.5t59 81.5q0 22 -8 42t-22 35
t-32.5 23.5t-38.5 8.5zM496 280q14 -30 26 -65t21 -70t14.5 -67t5.5 -56q0 -48 -19.5 -89t-54 -70.5t-82 -46t-104.5 -16.5q-59 0 -107 16t-82 45.5t-52 71.5t-18 93q0 54 20 110.5t56 103.5l51 -32q-51 -81 -51 -160q0 -72 49.5 -114.5t133.5 -42.5q38 0 72.5 9t60.5 25
t41.5 36.5t15.5 43.5q0 20 -5 47t-14 57.5t-22 64.5t-29 67zM1135 0q-59 0 -99 23.5t-55 66.5l52 63q0 -30 26.5 -46.5t75.5 -16.5l16 -10v-70zM890 484l-62 63l62 63l62 -63z" />
    <glyph glyph-name="uni0636.medi" unicode="&#x636;" horiz-adv-x="769" arabic-form="medial" 
d="M154 137q20 -16 46 -26t61 -17q62 146 135 223t148 77q36 0 67 -15.5t54 -43t36 -64.5t13 -79q0 -96 -81 -147.5t-233 -51.5q-97 0 -165.5 17.5t-102.5 50.5zM543 302q-54 0 -108 -55t-106 -161q18 -1 38 -1.5t43 -0.5q116 0 175 27.5t59 81.5q0 22 -8 42t-22 35
t-32.5 23.5t-38.5 8.5zM-16 10v70l16 10q31 1 50.5 6t33.5 20t25.5 44t25.5 77l65 -18q-13 -67 -27.5 -109.5t-36.5 -66.5t-54.5 -33t-81.5 -10zM769 0q-59 0 -99 23.5t-55 66.5l52 63q0 -30 26.5 -46.5t75.5 -16.5l16 -10v-70zM524 484l-62 63l62 63l62 -63z" />
    <glyph glyph-name="uni0636.init" unicode="&#x636;" horiz-adv-x="752" arabic-form="initial" 
d="M154 137q20 -16 46 -26t61 -17q62 146 135 223t148 77q36 0 67 -15.5t54 -43t36 -64.5t13 -79q0 -96 -81 -147.5t-233 -51.5q-97 0 -165.5 17.5t-102.5 50.5zM543 302q-54 0 -108 -55t-106 -161q18 -1 38 -1.5t43 -0.5q116 0 175 27.5t59 81.5q0 22 -8 42t-22 35
t-32.5 23.5t-38.5 8.5zM-16 10v70l16 10q31 1 50.5 6t33.5 20t25.5 44t25.5 77l65 -18q-13 -67 -27.5 -109.5t-36.5 -66.5t-54.5 -33t-81.5 -10zM524 484l-62 63l62 63l62 -63z" />
    <glyph glyph-name="uni0636.isol" unicode="&#x636;" horiz-adv-x="1118" arabic-form="isolated" 
d="M510 244q23 -51 52 -84.5t71 -51.5q62 139 133 212.5t144 73.5q36 0 67 -15.5t54 -43t36 -64.5t13 -79q0 -96 -81 -147.5t-232 -51.5q-119 0 -190 48t-108 155zM909 302q-54 0 -107.5 -54.5t-104.5 -157.5q34 -6 79 -6q116 0 175 27.5t59 81.5q0 22 -8 42t-22 35
t-32.5 23.5t-38.5 8.5zM496 280q14 -30 26 -65t21 -70t14.5 -67t5.5 -56q0 -48 -19.5 -89t-54 -70.5t-82 -46t-104.5 -16.5q-59 0 -107 16t-82 45.5t-52 71.5t-18 93q0 54 20 110.5t56 103.5l51 -32q-51 -81 -51 -160q0 -72 49.5 -114.5t133.5 -42.5q38 0 72.5 9t60.5 25
t41.5 36.5t15.5 43.5q0 20 -5 47t-14 57.5t-22 64.5t-29 67zM890 484l-62 63l62 63l62 -63z" />
    <glyph glyph-name="uni0635.fina" unicode="&#x635;" horiz-adv-x="1135" arabic-form="final" 
d="M510 244q23 -51 52 -84.5t71 -51.5q62 139 133 212.5t144 73.5q36 0 67 -15.5t54 -43t36 -64.5t13 -79q0 -96 -81 -147.5t-232 -51.5q-119 0 -190 48t-108 155zM909 302q-54 0 -107.5 -54.5t-104.5 -157.5q34 -6 79 -6q116 0 175 27.5t59 81.5q0 22 -8 42t-22 35
t-32.5 23.5t-38.5 8.5zM496 280q14 -30 26 -65t21 -70t14.5 -67t5.5 -56q0 -48 -19.5 -89t-54 -70.5t-82 -46t-104.5 -16.5q-59 0 -107 16t-82 45.5t-52 71.5t-18 93q0 54 20 110.5t56 103.5l51 -32q-51 -81 -51 -160q0 -72 49.5 -114.5t133.5 -42.5q38 0 72.5 9t60.5 25
t41.5 36.5t15.5 43.5q0 20 -5 47t-14 57.5t-22 64.5t-29 67zM1135 0q-59 0 -99 23.5t-55 66.5l52 63q0 -30 26.5 -46.5t75.5 -16.5l16 -10v-70z" />
    <glyph glyph-name="uni0635.medi" unicode="&#x635;" horiz-adv-x="769" arabic-form="medial" 
d="M154 137q20 -16 46 -26t61 -17q62 146 135 223t148 77q36 0 67 -15.5t54 -43t36 -64.5t13 -79q0 -96 -81 -147.5t-233 -51.5q-97 0 -165.5 17.5t-102.5 50.5zM543 302q-54 0 -108 -55t-106 -161q18 -1 38 -1.5t43 -0.5q116 0 175 27.5t59 81.5q0 22 -8 42t-22 35
t-32.5 23.5t-38.5 8.5zM-16 10v70l16 10q31 1 50.5 6t33.5 20t25.5 44t25.5 77l65 -18q-13 -67 -27.5 -109.5t-36.5 -66.5t-54.5 -33t-81.5 -10zM769 0q-59 0 -99 23.5t-55 66.5l52 63q0 -30 26.5 -46.5t75.5 -16.5l16 -10v-70z" />
    <glyph glyph-name="uni0635.init" unicode="&#x635;" horiz-adv-x="752" arabic-form="initial" 
d="M154 137q20 -16 46 -26t61 -17q62 146 135 223t148 77q36 0 67 -15.5t54 -43t36 -64.5t13 -79q0 -96 -81 -147.5t-233 -51.5q-97 0 -165.5 17.5t-102.5 50.5zM543 302q-54 0 -108 -55t-106 -161q18 -1 38 -1.5t43 -0.5q116 0 175 27.5t59 81.5q0 22 -8 42t-22 35
t-32.5 23.5t-38.5 8.5zM-16 10v70l16 10q31 1 50.5 6t33.5 20t25.5 44t25.5 77l65 -18q-13 -67 -27.5 -109.5t-36.5 -66.5t-54.5 -33t-81.5 -10z" />
    <glyph glyph-name="uni0635.isol" unicode="&#x635;" horiz-adv-x="1118" arabic-form="isolated" 
d="M510 244q23 -51 52 -84.5t71 -51.5q62 139 133 212.5t144 73.5q36 0 67 -15.5t54 -43t36 -64.5t13 -79q0 -96 -81 -147.5t-232 -51.5q-119 0 -190 48t-108 155zM909 302q-54 0 -107.5 -54.5t-104.5 -157.5q34 -6 79 -6q116 0 175 27.5t59 81.5q0 22 -8 42t-22 35
t-32.5 23.5t-38.5 8.5zM496 280q14 -30 26 -65t21 -70t14.5 -67t5.5 -56q0 -48 -19.5 -89t-54 -70.5t-82 -46t-104.5 -16.5q-59 0 -107 16t-82 45.5t-52 71.5t-18 93q0 54 20 110.5t56 103.5l51 -32q-51 -81 -51 -160q0 -72 49.5 -114.5t133.5 -42.5q38 0 72.5 9t60.5 25
t41.5 36.5t15.5 43.5q0 20 -5 47t-14 57.5t-22 64.5t-29 67z" />
    <glyph glyph-name="uni0634.fina" unicode="&#x634;" horiz-adv-x="1152" arabic-form="final" 
d="M1073 290q-3 -38 -5.5 -66t-5 -50t-6 -39t-7.5 -32q-29 -103 -160 -103q-85 0 -124 54q-21 -26 -54.5 -40t-75.5 -14q-63 0 -100.5 31.5t-45.5 91.5l35 63q11 -51 38 -74t76 -23q84 0 97 66l5 27.5t6 33.5t5 34t4 30l68 -8q-5 -42 -9 -77t-4 -43q0 -30 22.5 -46.5
t64.5 -16.5q78 0 90 61q2 9 4.5 26t5 37.5t4.5 42.5t4 40zM496 280q14 -30 26 -65t21 -70t14.5 -67t5.5 -56q0 -48 -19.5 -89t-54 -70.5t-82 -46t-104.5 -16.5q-59 0 -107 16t-82 45.5t-52 71.5t-18 93q0 54 20 110.5t56 103.5l51 -32q-51 -81 -51 -160q0 -72 49.5 -114.5
t133.5 -42.5q38 0 72.5 9t60.5 25t41.5 36.5t15.5 43.5q0 20 -5 47t-14 57.5t-22 64.5t-29 67zM1152 0q-59 0 -99 23.5t-55 66.5l52 63q0 -30 26.5 -46.5t75.5 -16.5l16 -10v-70zM722 405l-62 63l62 63l62 -63zM868 405l-62 63l62 63l62 -63zM795 534l-62 63l62 63l62 -63z
" />
    <glyph glyph-name="uni0634.medi" unicode="&#x634;" horiz-adv-x="789" arabic-form="medial" 
d="M710 290q-3 -38 -5.5 -66t-5 -50t-6 -39t-7.5 -32q-29 -103 -160 -103q-85 0 -124 54q-21 -26 -54.5 -40t-75.5 -14q-63 0 -100.5 31.5t-45.5 91.5l35 63q11 -51 38 -74t76 -23q84 0 97 66l5 27.5t6 33.5t5 34t4 30l68 -8q-5 -42 -9 -77t-4 -43q0 -30 22.5 -46.5
t64.5 -16.5q78 0 90 61q2 9 4.5 26t5 37.5t4.5 42.5t4 40zM-16 10v70l16 10q31 1 50.5 6t33.5 20t25.5 44t25.5 77l65 -18q-13 -67 -27.5 -109.5t-36.5 -66.5t-54.5 -33t-81.5 -10zM789 0q-59 0 -99 23.5t-55 66.5l52 63q0 -30 26.5 -46.5t75.5 -16.5l16 -10v-70zM359 405
l-62 63l62 63l62 -63zM505 405l-62 63l62 63l62 -63zM432 534l-62 63l62 63l62 -63z" />
    <glyph glyph-name="uni0634.init" unicode="&#x634;" horiz-adv-x="752" arabic-form="initial" 
d="M526 0q-85 0 -124 54q-21 -26 -54.5 -40t-75.5 -14q-63 0 -100.5 31.5t-45.5 91.5l35 63q11 -51 38 -74t76 -23q84 0 97 66l5 27.5t6 33.5t5 34t4 30l68 -8q-5 -42 -9 -77t-4 -43q0 -30 22.5 -46.5t64.5 -16.5q20 0 38.5 5t32 13t21.5 19t8 23q0 19 -4.5 44t-13 52.5
t-19.5 55.5t-24 53l72 40q12 -23 22.5 -52.5t19 -60.5t13 -60.5t4.5 -52.5q0 -80 -46.5 -124t-131.5 -44zM-16 10v70l16 10q31 1 50.5 6t33.5 20t25.5 44t25.5 77l65 -18q-13 -67 -27.5 -109.5t-36.5 -66.5t-54.5 -33t-81.5 -10zM319 405l-62 63l62 63l62 -63zM465 405
l-62 63l62 63l62 -63zM392 534l-62 63l62 63l62 -63z" />
    <glyph glyph-name="uni0634.isol" unicode="&#x634;" horiz-adv-x="1115" arabic-form="isolated" 
d="M889 0q-85 0 -124 54q-21 -26 -54.5 -40t-75.5 -14q-63 0 -100.5 31.5t-45.5 91.5l35 63q11 -51 38 -74t76 -23q84 0 97 66l5 27.5t6 33.5t5 34t4 30l68 -8q-5 -42 -9 -77t-4 -43q0 -30 22.5 -46.5t64.5 -16.5q20 0 38.5 5t32 13t21.5 19t8 23q0 19 -4.5 44t-13 52.5
t-19.5 55.5t-24 53l72 40q12 -23 22.5 -52.5t19 -60.5t13 -60.5t4.5 -52.5q0 -80 -46.5 -124t-131.5 -44zM496 280q14 -30 26 -65t21 -70t14.5 -67t5.5 -56q0 -48 -19.5 -89t-54 -70.5t-82 -46t-104.5 -16.5q-59 0 -107 16t-82 45.5t-52 71.5t-18 93q0 54 20 110.5t56 103.5
l51 -32q-51 -81 -51 -160q0 -72 49.5 -114.5t133.5 -42.5q38 0 72.5 9t60.5 25t41.5 36.5t15.5 43.5q0 20 -5 47t-14 57.5t-22 64.5t-29 67zM682 405l-62 63l62 63l62 -63zM828 405l-62 63l62 63l62 -63zM755 534l-62 63l62 63l62 -63z" />
    <glyph glyph-name="uni0633.fina" unicode="&#x633;" horiz-adv-x="1152" arabic-form="final" 
d="M1073 290q-3 -38 -5.5 -66t-5 -50t-6 -39t-7.5 -32q-29 -103 -160 -103q-85 0 -124 54q-21 -26 -54.5 -40t-75.5 -14q-63 0 -100.5 31.5t-45.5 91.5l35 63q11 -51 38 -74t76 -23q84 0 97 66l5 27.5t6 33.5t5 34t4 30l68 -8q-5 -42 -9 -77t-4 -43q0 -30 22.5 -46.5
t64.5 -16.5q78 0 90 61q2 9 4.5 26t5 37.5t4.5 42.5t4 40zM496 280q14 -30 26 -65t21 -70t14.5 -67t5.5 -56q0 -48 -19.5 -89t-54 -70.5t-82 -46t-104.5 -16.5q-59 0 -107 16t-82 45.5t-52 71.5t-18 93q0 54 20 110.5t56 103.5l51 -32q-51 -81 -51 -160q0 -72 49.5 -114.5
t133.5 -42.5q38 0 72.5 9t60.5 25t41.5 36.5t15.5 43.5q0 20 -5 47t-14 57.5t-22 64.5t-29 67zM1152 0q-59 0 -99 23.5t-55 66.5l52 63q0 -30 26.5 -46.5t75.5 -16.5l16 -10v-70z" />
    <glyph glyph-name="uni0633.medi" unicode="&#x633;" horiz-adv-x="789" arabic-form="medial" 
d="M710 290q-3 -38 -5.5 -66t-5 -50t-6 -39t-7.5 -32q-29 -103 -160 -103q-85 0 -124 54q-21 -26 -54.5 -40t-75.5 -14q-63 0 -100.5 31.5t-45.5 91.5l35 63q11 -51 38 -74t76 -23q84 0 97 66l5 27.5t6 33.5t5 34t4 30l68 -8q-5 -42 -9 -77t-4 -43q0 -30 22.5 -46.5
t64.5 -16.5q78 0 90 61q2 9 4.5 26t5 37.5t4.5 42.5t4 40zM-16 10v70l16 10q31 1 50.5 6t33.5 20t25.5 44t25.5 77l65 -18q-13 -67 -27.5 -109.5t-36.5 -66.5t-54.5 -33t-81.5 -10zM789 0q-59 0 -99 23.5t-55 66.5l52 63q0 -30 26.5 -46.5t75.5 -16.5l16 -10v-70z" />
    <glyph glyph-name="uni0633.init" unicode="&#x633;" horiz-adv-x="752" arabic-form="initial" 
d="M526 0q-85 0 -124 54q-21 -26 -54.5 -40t-75.5 -14q-63 0 -100.5 31.5t-45.5 91.5l35 63q11 -51 38 -74t76 -23q84 0 97 66l5 27.5t6 33.5t5 34t4 30l68 -8q-5 -42 -9 -77t-4 -43q0 -30 22.5 -46.5t64.5 -16.5q20 0 38.5 5t32 13t21.5 19t8 23q0 19 -4.5 44t-13 52.5
t-19.5 55.5t-24 53l72 40q12 -23 22.5 -52.5t19 -60.5t13 -60.5t4.5 -52.5q0 -80 -46.5 -124t-131.5 -44zM-16 10v70l16 10q31 1 50.5 6t33.5 20t25.5 44t25.5 77l65 -18q-13 -67 -27.5 -109.5t-36.5 -66.5t-54.5 -33t-81.5 -10z" />
    <glyph glyph-name="uni0633.isol" unicode="&#x633;" horiz-adv-x="1115" arabic-form="isolated" 
d="M889 0q-85 0 -124 54q-21 -26 -54.5 -40t-75.5 -14q-63 0 -100.5 31.5t-45.5 91.5l35 63q11 -51 38 -74t76 -23q84 0 97 66l5 27.5t6 33.5t5 34t4 30l68 -8q-5 -42 -9 -77t-4 -43q0 -30 22.5 -46.5t64.5 -16.5q20 0 38.5 5t32 13t21.5 19t8 23q0 19 -4.5 44t-13 52.5
t-19.5 55.5t-24 53l72 40q12 -23 22.5 -52.5t19 -60.5t13 -60.5t4.5 -52.5q0 -80 -46.5 -124t-131.5 -44zM496 280q14 -30 26 -65t21 -70t14.5 -67t5.5 -56q0 -48 -19.5 -89t-54 -70.5t-82 -46t-104.5 -16.5q-59 0 -107 16t-82 45.5t-52 71.5t-18 93q0 54 20 110.5t56 103.5
l51 -32q-51 -81 -51 -160q0 -72 49.5 -114.5t133.5 -42.5q38 0 72.5 9t60.5 25t41.5 36.5t15.5 43.5q0 20 -5 47t-14 57.5t-22 64.5t-29 67z" />
    <glyph glyph-name="uni0632.fina" unicode="&#x632;" horiz-adv-x="404" arabic-form="final" 
d="M404 0q-68 0 -111 29q-22 -72 -90 -131.5t-173 -97.5l-46 79q110 42 177 97t78 115q-14 26 -28.5 64t-33.5 95l75 35q12 -37 24.5 -74t19.5 -53q8 -20 17 -33t21 -21t29 -11t41 -3l16 -10v-70zM187 366l-62 63l62 63l62 -63z" />
    <glyph glyph-name="uni0632.isol" unicode="&#x632;" horiz-adv-x="351" arabic-form="isolated" 
d="M-16 -121q54 20 100 46t79.5 54.5t52.5 57t19 54.5q0 16 -7 41t-19.5 54.5t-29.5 61.5t-36 62l72 40q42 -56 66 -124t24 -127q0 -94 -72 -172.5t-203 -126.5zM168 431l-62 63l62 63l62 -63z" />
    <glyph glyph-name="uni0641.fina" unicode="&#x641;" horiz-adv-x="818" arabic-form="final" 
d="M818 0q-56 0 -110 9t-102 26q-53 -20 -108 -31t-112 -11q-89 0 -153.5 10.5t-106.5 33t-62 57t-20 82.5q0 41 15 89.5t41 93.5l53 -26q-16 -35 -24.5 -67t-8.5 -58q0 -33 14.5 -56.5t46.5 -38t82.5 -21.5t122.5 -7q65 0 118 6q-55 49 -55 125q0 37 12.5 69.5t34 56.5
t50 38t60.5 14t60.5 -14t50 -38t34 -56.5t12.5 -69.5q0 -73 -52 -122q24 -2 50.5 -3t56.5 -1l16 -10v-70zM514 213q0 -71 94 -100q90 34 90 100q0 20 -7 37t-19.5 30t-29.5 20t-36 7t-36 -7t-29.5 -20t-19.5 -30t-7 -37zM606 474l-62 63l62 63l62 -63z" />
    <glyph glyph-name="uni0641.medi" unicode="&#x641;" horiz-adv-x="424" arabic-form="medial" 
d="M424 0q-56 0 -110 9t-102 26q-48 -17 -102 -26t-110 -9l-16 10v70l16 10q29 0 56 1t51 3q-52 48 -52 122q0 37 12.5 69.5t34 56.5t50 38t60.5 14t60.5 -14t50 -38t34 -56.5t12.5 -69.5q0 -73 -52 -122q23 -2 50 -3t57 -1l16 -10v-70zM120 213q0 -69 92 -99q92 30 92 99
q0 20 -7 37t-19.5 30t-29.5 20t-36 7t-36 -7t-29.5 -20t-19.5 -30t-7 -37zM212 474l-62 63l62 63l62 -63z" />
    <glyph glyph-name="uni0641.init" unicode="&#x641;" horiz-adv-x="416" arabic-form="initial" 
d="M285 200q-20 -16 -46.5 -25t-56.5 -9q-66 0 -103.5 38.5t-37.5 107.5q0 39 12 73.5t32.5 60t48.5 40t60 14.5q78 0 118.5 -80t40.5 -236q0 -66 -16 -100.5t-55 -52.5q-19 -9 -41.5 -14.5t-53.5 -9.5t-71 -5.5t-93 -1.5h-23l-16 10v70l16 10h23q130 0 196 10t66 30v70z
M191 242q26 0 50.5 7t39.5 19q-7 78 -28.5 113t-61.5 35q-37 0 -62 -28.5t-25 -70.5q0 -37 22.5 -56t64.5 -19zM194 580l-62 63l62 63l62 -63z" />
    <glyph glyph-name="uni0641.isol" unicode="&#x641;" horiz-adv-x="781" arabic-form="isolated" 
d="M650 200q-20 -16 -46.5 -25t-56.5 -9q-66 0 -103.5 38.5t-37.5 107.5q0 39 12 73.5t32.5 60t48.5 40t60 14.5q78 0 118.5 -80t40.5 -236q0 -66 -16 -100.5t-55 -52.5q-39 -19 -106 -28.5t-155 -9.5q-89 0 -153.5 10.5t-106.5 33t-62 57t-20 82.5q0 41 15 89.5t41 93.5
l53 -26q-16 -35 -24.5 -67t-8.5 -58q0 -33 14.5 -56.5t46.5 -38t82.5 -21.5t122.5 -7q125 0 194.5 12t69.5 33v70zM556 242q26 0 50.5 7t39.5 19q-7 78 -28.5 113t-61.5 35q-37 0 -62 -28.5t-25 -70.5q0 -37 22.5 -56t64.5 -19zM559 580l-62 63l62 63l62 -63z" />
    <glyph glyph-name="uni063A.fina" unicode="&#x63a;" horiz-adv-x="512" arabic-form="final" 
d="M515 -219q-45 -38 -108.5 -59.5t-132.5 -21.5q-58 0 -105 13.5t-80 38t-51 59t-18 77.5q0 30 10.5 56t32.5 51t55.5 50.5t78.5 52.5q-40 31 -74.5 71t-65.5 89l13 74q34 26 85 40.5t111 14.5q93 0 147.5 -28.5t54.5 -76.5q0 -38 -32 -82t-93 -92q38 -11 77 -14.5t92 -3.5
l16 -10v-70l-16 -10q-75 0 -133 13.5t-117 45.5q-89 -44 -127 -79.5t-38 -74.5q0 -54 50.5 -84t141.5 -30q27 0 55.5 3t55 9t50 14.5t41.5 18.5zM131 273q12 -19 28.5 -39t34.5 -38.5t37 -33.5t36 -25q20 10 43 28t42.5 36.5t32.5 35.5t13 25q0 9 -10.5 16.5t-28.5 13
t-42 8.5t-51 3q-43 0 -80.5 -8t-54.5 -22zM266 468l-62 63l62 63l62 -63z" />
    <glyph glyph-name="uni063A.medi" unicode="&#x63a;" horiz-adv-x="499" arabic-form="medial" 
d="M499 0q-74 0 -131 13t-116 44q-96 -57 -252 -57l-16 10v70l16 10q51 0 92.5 4t79.5 13q-36 30 -67.5 68t-60.5 83l13 74q34 26 85 40.5t111 14.5q93 0 147.5 -28.5t54.5 -76.5q0 -38 -32 -82t-93 -92q38 -11 77 -14.5t92 -3.5l16 -10v-70zM118 273q12 -19 28.5 -39
t34.5 -38.5t37 -33.5t36 -25q20 10 43 28t42.5 36.5t32.5 35.5t13 25q0 9 -10.5 16.5t-28.5 13t-42 8.5t-51 3q-43 0 -80.5 -8t-54.5 -22zM253 468l-62 63l62 63l62 -63z" />
    <glyph glyph-name="uni063A.init" unicode="&#x63a;" horiz-adv-x="451" arabic-form="initial" 
d="M394 63q-80 -31 -184 -46.5t-210 -16.5l-16 10v70l16 10q29 0 57.5 1t56.5 3q-53 45 -53 120q0 37 14 70t37.5 57.5t55 38.5t67.5 14q39 0 73.5 -16.5t59.5 -45.5l-37 -48q-20 11 -42 17.5t-48 6.5q-48 0 -80.5 -25.5t-32.5 -66.5q0 -38 32.5 -65.5t97.5 -37.5
q38 7 74 15t73 17zM235 474l-62 63l62 63l62 -63z" />
    <glyph glyph-name="uni063A.isol" unicode="&#x63a;" horiz-adv-x="512" arabic-form="isolated" 
d="M522 -219q-45 -38 -108.5 -59.5t-132.5 -21.5q-60 0 -108 15t-82 42.5t-52.5 66.5t-18.5 87q0 74 44.5 131.5t126.5 95.5q-40 22 -62 57t-22 85q0 37 14 70t37.5 57.5t55 38.5t67.5 14q39 0 73.5 -16.5t59.5 -45.5l-37 -48q-20 11 -42 17.5t-48 6.5q-48 0 -80.5 -25.5
t-32.5 -66.5q0 -39 35.5 -67.5t106.5 -36.5q31 6 64.5 10.5t69.5 6.5l-12 -87q-167 -11 -254 -58.5t-87 -128.5q0 -30 14 -54t40.5 -41t63 -26t81.5 -9q27 0 55.5 3t55 9t50 14.5t41.5 18.5zM281 540l-62 63l62 63l62 -63z" />
    <glyph glyph-name="uni0639.fina" unicode="&#x639;" horiz-adv-x="512" arabic-form="final" 
d="M515 -219q-45 -38 -108.5 -59.5t-132.5 -21.5q-58 0 -105 13.5t-80 38t-51 59t-18 77.5q0 30 10.5 56t32.5 51t55.5 50.5t78.5 52.5q-40 31 -74.5 71t-65.5 89l13 74q34 26 85 40.5t111 14.5q93 0 147.5 -28.5t54.5 -76.5q0 -38 -32 -82t-93 -92q38 -11 77 -14.5t92 -3.5
l16 -10v-70l-16 -10q-75 0 -133 13.5t-117 45.5q-89 -44 -127 -79.5t-38 -74.5q0 -54 50.5 -84t141.5 -30q27 0 55.5 3t55 9t50 14.5t41.5 18.5zM131 273q12 -19 28.5 -39t34.5 -38.5t37 -33.5t36 -25q20 10 43 28t42.5 36.5t32.5 35.5t13 25q0 9 -10.5 16.5t-28.5 13
t-42 8.5t-51 3q-43 0 -80.5 -8t-54.5 -22z" />
    <glyph glyph-name="uni0639.medi" unicode="&#x639;" horiz-adv-x="499" arabic-form="medial" 
d="M499 0q-74 0 -131 13t-116 44q-96 -57 -252 -57l-16 10v70l16 10q51 0 92.5 4t79.5 13q-36 30 -67.5 68t-60.5 83l13 74q34 26 85 40.5t111 14.5q93 0 147.5 -28.5t54.5 -76.5q0 -38 -32 -82t-93 -92q38 -11 77 -14.5t92 -3.5l16 -10v-70zM118 273q12 -19 28.5 -39
t34.5 -38.5t37 -33.5t36 -25q20 10 43 28t42.5 36.5t32.5 35.5t13 25q0 9 -10.5 16.5t-28.5 13t-42 8.5t-51 3q-43 0 -80.5 -8t-54.5 -22z" />
    <glyph glyph-name="uni0639.init" unicode="&#x639;" horiz-adv-x="451" arabic-form="initial" 
d="M394 63q-80 -31 -184 -46.5t-210 -16.5l-16 10v70l16 10q29 0 57.5 1t56.5 3q-53 45 -53 120q0 37 14 70t37.5 57.5t55 38.5t67.5 14q39 0 73.5 -16.5t59.5 -45.5l-37 -48q-20 11 -42 17.5t-48 6.5q-48 0 -80.5 -25.5t-32.5 -66.5q0 -38 32.5 -65.5t97.5 -37.5
q38 7 74 15t73 17z" />
    <glyph glyph-name="uni0639.isol" unicode="&#x639;" horiz-adv-x="512" arabic-form="isolated" 
d="M522 -219q-45 -38 -108.5 -59.5t-132.5 -21.5q-60 0 -108 15t-82 42.5t-52.5 66.5t-18.5 87q0 74 44.5 131.5t126.5 95.5q-40 22 -62 57t-22 85q0 37 14 70t37.5 57.5t55 38.5t67.5 14q39 0 73.5 -16.5t59.5 -45.5l-37 -48q-20 11 -42 17.5t-48 6.5q-48 0 -80.5 -25.5
t-32.5 -66.5q0 -39 35.5 -67.5t106.5 -36.5q31 6 64.5 10.5t69.5 6.5l-12 -87q-167 -11 -254 -58.5t-87 -128.5q0 -30 14 -54t40.5 -41t63 -26t81.5 -9q27 0 55.5 3t55 9t50 14.5t41.5 18.5z" />
    <glyph glyph-name="uni0638.fina" unicode="&#x638;" horiz-adv-x="682" arabic-form="final" 
d="M27 93q37 -3 72.5 -5t76.5 -3l-7 546l79 14l-7 -445q48 92 104 143t112 51q36 0 67 -15.5t54 -43t36 -64.5t13 -79q0 -96 -81 -147.5t-232 -51.5q-82 0 -146 1.5t-122 5.5zM456 302q-54 0 -108.5 -56t-106.5 -162h76q240 0 240 109q0 22 -8 42t-22 35t-32.5 23.5
t-38.5 8.5zM682 0q-59 0 -99 23.5t-55 66.5l52 63q0 -30 26.5 -46.5t75.5 -16.5l16 -10v-70zM437 484l-62 63l62 63l62 -63z" />
    <glyph glyph-name="uni0638.medi" unicode="&#x638;" horiz-adv-x="576" arabic-form="medial" 
d="M0 0l-16 10v70l16 10h70l-7 541l79 14l-7 -445q48 92 104 143t112 51q36 0 67 -15.5t54 -43t36 -64.5t13 -79q0 -192 -328 -192h-193zM350 302q-54 0 -107.5 -54.5t-104.5 -157.5h55q137 0 197.5 24t60.5 79q0 22 -8 42t-22 35t-32.5 23.5t-38.5 8.5zM576 0
q-59 0 -99 23.5t-55 66.5l52 63q0 -30 26.5 -46.5t75.5 -16.5l16 -10v-70zM331 484l-62 63l62 63l62 -63z" />
    <glyph glyph-name="uni0638.init" unicode="&#x638;" horiz-adv-x="559" arabic-form="initial" 
d="M0 0l-16 10v70l16 10h70l-7 541l79 14l-7 -445q48 92 104 143t112 51q36 0 67 -15.5t54 -43t36 -64.5t13 -79q0 -192 -328 -192h-193zM350 302q-54 0 -107.5 -54.5t-104.5 -157.5h55q137 0 197.5 24t60.5 79q0 22 -8 42t-22 35t-32.5 23.5t-38.5 8.5zM331 484l-62 63
l62 63l62 -63z" />
    <glyph glyph-name="uni0638.isol" unicode="&#x638;" horiz-adv-x="665" arabic-form="isolated" 
d="M27 93q37 -3 72.5 -5t76.5 -3l-7 546l79 14l-7 -445q48 92 104 143t112 51q36 0 67 -15.5t54 -43t36 -64.5t13 -79q0 -96 -81 -147.5t-232 -51.5q-82 0 -146 1.5t-122 5.5zM456 302q-54 0 -108.5 -56t-106.5 -162h76q240 0 240 109q0 22 -8 42t-22 35t-32.5 23.5
t-38.5 8.5zM437 484l-62 63l62 63l62 -63z" />
    <glyph glyph-name="uni0637.fina" unicode="&#x637;" horiz-adv-x="682" arabic-form="final" 
d="M27 93q37 -3 72.5 -5t76.5 -3l-7 546l79 14l-7 -445q48 92 104 143t112 51q36 0 67 -15.5t54 -43t36 -64.5t13 -79q0 -96 -81 -147.5t-232 -51.5q-82 0 -146 1.5t-122 5.5zM456 302q-54 0 -108.5 -56t-106.5 -162h76q240 0 240 109q0 22 -8 42t-22 35t-32.5 23.5
t-38.5 8.5zM682 0q-59 0 -99 23.5t-55 66.5l52 63q0 -30 26.5 -46.5t75.5 -16.5l16 -10v-70z" />
    <glyph glyph-name="uni0637.medi" unicode="&#x637;" horiz-adv-x="576" arabic-form="medial" 
d="M0 0l-16 10v70l16 10h70l-7 541l79 14l-7 -445q48 92 104 143t112 51q36 0 67 -15.5t54 -43t36 -64.5t13 -79q0 -192 -328 -192h-193zM350 302q-54 0 -107.5 -54.5t-104.5 -157.5h55q137 0 197.5 24t60.5 79q0 22 -8 42t-22 35t-32.5 23.5t-38.5 8.5zM576 0
q-59 0 -99 23.5t-55 66.5l52 63q0 -30 26.5 -46.5t75.5 -16.5l16 -10v-70z" />
    <glyph glyph-name="uni0637.init" unicode="&#x637;" horiz-adv-x="559" arabic-form="initial" 
d="M0 0l-16 10v70l16 10h70l-7 541l79 14l-7 -445q48 92 104 143t112 51q36 0 67 -15.5t54 -43t36 -64.5t13 -79q0 -192 -328 -192h-193zM350 302q-54 0 -107.5 -54.5t-104.5 -157.5h55q137 0 197.5 24t60.5 79q0 22 -8 42t-22 35t-32.5 23.5t-38.5 8.5z" />
    <glyph glyph-name="uni0637.isol" unicode="&#x637;" horiz-adv-x="665" arabic-form="isolated" 
d="M27 93q37 -3 72.5 -5t76.5 -3l-7 546l79 14l-7 -445q48 92 104 143t112 51q36 0 67 -15.5t54 -43t36 -64.5t13 -79q0 -96 -81 -147.5t-232 -51.5q-82 0 -146 1.5t-122 5.5zM456 302q-54 0 -108.5 -56t-106.5 -162h76q240 0 240 109q0 22 -8 42t-22 35t-32.5 23.5
t-38.5 8.5z" />
    <glyph glyph-name="uni0646.fina" unicode="&#x646;" horiz-adv-x="642" arabic-form="final" 
d="M496 280q14 -30 26 -65t21 -70t14.5 -67t5.5 -56q0 -48 -19.5 -89t-54 -70.5t-82 -46t-104.5 -16.5q-59 0 -107 16t-82 45.5t-52 71.5t-18 93q0 54 20 110.5t56 103.5l51 -32q-51 -81 -51 -160q0 -72 49.5 -114.5t133.5 -42.5q38 0 72.5 9t60.5 25t41.5 36.5t15.5 43.5
q0 20 -5 47t-14 57.5t-22 64.5t-29 67zM642 0q-59 0 -99 23.5t-55 66.5l52 63q0 -30 26.5 -46.5t75.5 -16.5l16 -10v-70zM293 321l-62 63l62 63l62 -63z" />
    <glyph glyph-name="uni0646.medi" unicode="&#x646;" horiz-adv-x="330" arabic-form="medial" 
d="M330 0q-117 0 -156 67q-20 -32 -65.5 -49.5t-108.5 -17.5l-16 10v70l16 10q65 0 96.5 15t39.5 50l5 27.5t6 33.5t5 34t4 30l68 -8q-5 -42 -9 -77t-4 -43q0 -62 119 -62l16 -10v-70zM196 361l-62 63l62 63l62 -63z" />
    <glyph glyph-name="uni0646.init" unicode="&#x646;" horiz-adv-x="276" arabic-form="initial" 
d="M-16 10v70l16 10q70 0 114 17.5t44 41.5q0 19 -4.5 44t-13 52.5t-19.5 55.5t-24 53l72 40q12 -23 22.5 -52.5t19 -60.5t13 -60.5t4.5 -52.5q0 -87 -56 -127.5t-172 -40.5zM115 474l-62 63l62 63l62 -63z" />
    <glyph glyph-name="uni0646.isol" unicode="&#x646;" horiz-adv-x="605" arabic-form="isolated" 
d="M496 280q14 -30 26 -65t21 -70t14.5 -67t5.5 -56q0 -48 -19.5 -89t-54 -70.5t-82 -46t-104.5 -16.5q-59 0 -107 16t-82 45.5t-52 71.5t-18 93q0 54 20 110.5t56 103.5l51 -32q-51 -81 -51 -160q0 -72 49.5 -114.5t133.5 -42.5q38 0 72.5 9t60.5 25t41.5 36.5t15.5 43.5
q0 20 -5 47t-14 57.5t-22 64.5t-29 67zM293 321l-62 63l62 63l62 -63z" />
    <glyph glyph-name="uni0645.fina" unicode="&#x645;" horiz-adv-x="548" arabic-form="final" 
d="M548 0q-78 0 -121 40q-41 -47 -118 -47q-50 0 -93.5 21t-74.5 59l-23 -44q-4 -9 -4 -18l-1 -391h-69l-6 392q0 15 3.5 27t12.5 29l108 191q32 57 67 83.5t77 26.5q32 0 61 -17t50.5 -46t34.5 -67.5t13 -81.5q0 -25 -4 -42q25 -25 87 -25l16 -10v-70zM179 147
q21 -29 58.5 -48t77.5 -19q38 0 60 21t22 59q0 24 -7.5 46t-21 38.5t-31 26t-36.5 9.5q-54 0 -91 -73z" />
    <glyph glyph-name="uni0645.medi" unicode="&#x645;" horiz-adv-x="550" arabic-form="medial" 
d="M311 -7q-51 0 -94.5 21.5t-74.5 60.5q-27 -40 -61 -57.5t-81 -17.5l-16 10v70l16 10q19 0 34.5 3.5t28 11.5t23.5 21t22 33l56 100q32 57 66.5 83.5t77.5 26.5q32 0 61 -17t50.5 -46t34.5 -67.5t13 -81.5q0 -77 -41.5 -120.5t-114.5 -43.5zM181 147q21 -29 58.5 -48
t77.5 -19q38 0 60 21t22 59q0 24 -7.5 46t-21 38.5t-31 26t-36.5 9.5q-54 0 -91 -73zM550 0q-59 0 -99 23.5t-55 66.5l52 63q0 -30 26.5 -46.5t75.5 -16.5l16 -10v-70z" />
    <glyph glyph-name="uni0645.init" unicode="&#x645;" horiz-adv-x="512" arabic-form="initial" 
d="M311 -7q-51 0 -94.5 21.5t-74.5 60.5q-27 -40 -61 -57.5t-81 -17.5l-16 10v70l16 10q19 0 34.5 3.5t28 11.5t23.5 21t22 33l56 100q32 57 66.5 83.5t77.5 26.5q32 0 61 -17t50.5 -46t34.5 -67.5t13 -81.5q0 -77 -41.5 -120.5t-114.5 -43.5zM181 147q21 -29 58.5 -48
t77.5 -19q38 0 60 21t22 59q0 24 -7.5 46t-21 38.5t-31 26t-36.5 9.5q-54 0 -91 -73z" />
    <glyph glyph-name="uni0645.isol" unicode="&#x645;" horiz-adv-x="526" arabic-form="isolated" 
d="M45 -380l-6 397q-1 35 20 54t60 19h62q-44 41 -44 105q0 36 13.5 67.5t37 55t55 37.5t66.5 14q37 0 68.5 -14t54.5 -39t36 -59.5t13 -74.5t-12.5 -73.5t-34.5 -57.5t-52.5 -37.5t-66.5 -13.5h-181q-19 0 -19 -15l-1 -365h-69zM205 187q0 -23 12 -42t33.5 -33.5t51 -22.5
t64.5 -9q47 31 47 92q0 49 -29 78.5t-77 29.5q-44 0 -73 -26.5t-29 -66.5z" />
    <glyph glyph-name="uni0644.fina" unicode="&#x644;" horiz-adv-x="661" arabic-form="final" 
d="M661 0q-80 0 -120 30v-13q0 -49 -18 -89t-50.5 -68.5t-78 -44t-101.5 -15.5q-117 0 -183 60t-66 166q0 54 20 110.5t56 103.5l51 -32q-51 -81 -51 -160q0 -75 45.5 -116t127.5 -41q37 0 69.5 9t56.5 24.5t38 36t14 44.5l-5 626l79 14l-4 -505q16 -28 42.5 -39t77.5 -11
l16 -10v-70z" />
    <glyph glyph-name="uni0644.medi" unicode="&#x644;" horiz-adv-x="309" arabic-form="medial" 
d="M309 0q-56 0 -92.5 14.5t-57.5 43.5q-22 -29 -63 -43.5t-96 -14.5l-16 10v70l16 10q55 0 86 13.5t31 37.5l-3 490l79 14l-4 -505q16 -28 42.5 -39t77.5 -11l16 -10v-70z" />
    <glyph glyph-name="uni0644.init" unicode="&#x644;" horiz-adv-x="253" arabic-form="initial" 
d="M-16 10v70l16 10q21 0 42 2.5t37.5 8.5t27 16t10.5 24l-3 490l79 14l-4 -496q0 -42 -16.5 -70.5t-43 -46t-60 -25t-69.5 -7.5z" />
    <glyph glyph-name="uni0644.isol" unicode="&#x644;" horiz-adv-x="611" arabic-form="isolated" 
d="M466 631l79 14l-4 -628q0 -49 -18 -89t-50.5 -68.5t-78 -44t-101.5 -15.5q-117 0 -183 60t-66 166q0 54 20 110.5t56 103.5l51 -32q-51 -81 -51 -160q0 -75 45.5 -116t127.5 -41q37 0 69.5 9t56.5 24.5t38 36t14 44.5z" />
    <glyph glyph-name="uni0643.fina" unicode="&#x643;" horiz-adv-x="741" arabic-form="final" 
d="M741 0q-115 0 -153 63q-35 -35 -101.5 -52.5t-153.5 -17.5q-289 0 -289 183q0 41 15 89.5t41 93.5l53 -26q-16 -35 -24.5 -67t-8.5 -58q0 -63 52 -93t161 -30q44 0 83.5 5t69.5 13.5t47.5 20t17.5 23.5l-5 484l79 14l-4 -505q16 -28 42.5 -39t77.5 -11l16 -10v-70z
M272 326q19 1 37 4t31.5 6.5t21.5 7.5t8 7q0 2 -3.5 4.5t-20.5 9.5l-14 6q-19 8 -27 19t-8 28q0 29 34 50.5t86 24.5l-4 -48q-30 -2 -47 -9t-17 -14q0 -6 25 -18l16 -8q35 -16 35 -40q0 -29 -39 -51t-102 -27z" />
    <glyph glyph-name="uni0643.medi" unicode="&#x643;" horiz-adv-x="405" arabic-form="medial" 
d="M405 0q-62 0 -103.5 14t-74.5 49q-65 -63 -227 -63l-16 10v70l16 10q64 0 110 9.5t72 25.5l-9 16l-139 254l13 82q85 48 172 90.5t172 77.5l16 -79q-38 -15 -72.5 -29.5t-70.5 -30.5t-75 -35t-85 -42l135 -246q15 -27 30 -45t34 -28.5t43.5 -15t58.5 -4.5l16 -10v-70z
" />
    <glyph glyph-name="uni0643.init" unicode="&#x643;" horiz-adv-x="426" arabic-form="initial" 
d="M-16 10v70l16 10q42 0 84 5t76.5 12.5t56 17.5t21.5 19q0 25 -16.5 57t-44 66t-64.5 67.5t-78 60.5l13 82q85 48 172 90.5t172 77.5l16 -79q-36 -14 -69.5 -28t-68 -30t-71.5 -33.5t-81 -39.5q90 -69 140 -146t50 -148q0 -69 -78.5 -105t-229.5 -36z" />
    <glyph glyph-name="uni0643.isol" unicode="&#x643;" horiz-adv-x="685" arabic-form="isolated" 
d="M546 631l79 14l-4 -500q-1 -72 -76 -112t-212 -40q-289 0 -289 183q0 41 15 89.5t41 93.5l53 -26q-16 -35 -24.5 -67t-8.5 -58q0 -63 52 -93t161 -30q44 0 83.5 5t69.5 13.5t47.5 20t17.5 23.5zM272 326q19 1 37 4t31.5 6.5t21.5 7.5t8 7q0 2 -3.5 4.5t-20.5 9.5l-14 6
q-19 8 -27 19t-8 28q0 29 34 50.5t86 24.5l-4 -48q-30 -2 -47 -9t-17 -14q0 -6 25 -18l16 -8q35 -16 35 -40q0 -29 -39 -51t-102 -27z" />
    <glyph glyph-name="uni0642.fina" unicode="&#x642;" horiz-adv-x="640" arabic-form="final" 
d="M640 0h-47v-3q0 -93 -72.5 -145t-202.5 -52q-63 0 -113.5 16t-86 45.5t-55 71t-19.5 93.5q0 54 20 110.5t56 103.5l51 -32q-51 -81 -51 -160q0 -73 54 -115t148 -42q43 0 80 6.5t64.5 17.5t43 26t15.5 32v27h-54q-94 0 -147.5 47t-53.5 131q0 40 12 75t33 60.5t49 40.5
t60 15q75 0 115.5 -68t50.5 -211h50l16 -10v-70zM333 181q0 -91 148 -91h42q-7 100 -31.5 147t-70.5 47q-38 0 -63 -29t-25 -74zM351 450l-62 63l62 63l62 -63zM497 450l-62 63l62 63l62 -63z" />
    <glyph glyph-name="uni0642.medi" unicode="&#x642;" horiz-adv-x="424" arabic-form="medial" 
d="M424 0q-56 0 -110 9t-102 26q-48 -17 -102 -26t-110 -9l-16 10v70l16 10q29 0 56 1t51 3q-52 48 -52 122q0 37 12.5 69.5t34 56.5t50 38t60.5 14t60.5 -14t50 -38t34 -56.5t12.5 -69.5q0 -73 -52 -122q23 -2 50 -3t57 -1l16 -10v-70zM120 213q0 -69 92 -99q92 30 92 99
q0 20 -7 37t-19.5 30t-29.5 20t-36 7t-36 -7t-29.5 -20t-19.5 -30t-7 -37zM139 474l-62 63l62 63l62 -63zM285 474l-62 63l62 63l62 -63z" />
    <glyph glyph-name="uni0642.init" unicode="&#x642;" horiz-adv-x="416" arabic-form="initial" 
d="M285 200q-20 -16 -46.5 -25t-56.5 -9q-66 0 -103.5 38.5t-37.5 107.5q0 39 12 73.5t32.5 60t48.5 40t60 14.5q78 0 118.5 -80t40.5 -236q0 -66 -16 -100.5t-55 -52.5q-19 -9 -41.5 -14.5t-53.5 -9.5t-71 -5.5t-93 -1.5h-23l-16 10v70l16 10h23q130 0 196 10t66 30v70z
M191 242q26 0 50.5 7t39.5 19q-7 78 -28.5 113t-61.5 35q-37 0 -62 -28.5t-25 -70.5q0 -37 22.5 -56t64.5 -19zM121 580l-62 63l62 63l62 -63zM267 580l-62 63l62 63l62 -63z" />
    <glyph glyph-name="uni0642.isol" unicode="&#x642;" horiz-adv-x="635" arabic-form="isolated" 
d="M525 9v21t-1 20q-20 -17 -47.5 -26t-57.5 -9q-68 0 -108.5 44.5t-40.5 118.5q0 40 12 75t33 60.5t49 40.5t60 15q86 0 127.5 -91t41.5 -281q0 -93 -72.5 -145t-202.5 -52q-63 0 -113.5 16t-86 45.5t-55 71t-19.5 93.5q0 54 20 110.5t56 103.5l51 -32q-51 -81 -51 -160
q0 -73 54 -115t148 -42q43 0 80 6.5t64.5 17.5t43 26t15.5 32v36zM425 99q27 0 52 7.5t42 19.5q-9 81 -32.5 119.5t-65.5 38.5q-38 0 -63 -29t-25 -74q0 -38 24.5 -60t67.5 -22zM351 450l-62 63l62 63l62 -63zM497 450l-62 63l62 63l62 -63z" />
    <glyph glyph-name="uni0624.fina" unicode="&#x624;" horiz-adv-x="422" arabic-form="final" 
d="M422 0h-66q-28 -81 -98 -133.5t-172 -66.5l-36 82q189 27 238 127h-35q-97 0 -150 43t-53 123q0 42 12 77.5t33 61.5t50 40.5t63 14.5q78 0 121.5 -69t43.5 -200v-10h49l16 -10v-70zM117 177q0 -87 147 -87h42q0 94 -26.5 143t-74.5 49q-39 0 -63.5 -29t-24.5 -76z
M290 471q-79 -6 -154 -30l-14 36q14 5 26 9t23 8q-33 19 -33 55q0 32 23 54.5t55 22.5q34 0 56 -25l-20 -29q-15 9 -32 9q-18 0 -29.5 -9t-11.5 -23q0 -15 15.5 -25t41.5 -13q17 3 32 5t29 3z" />
    <glyph glyph-name="uni0624.isol" unicode="&#x624;" horiz-adv-x="420" arabic-form="isolated" 
d="M50 -118q216 30 249 157q-20 -15 -46.5 -23t-56.5 -8q-66 0 -106 46t-40 121q0 42 12 77.5t33 61.5t50 40.5t63 14.5q78 0 121.5 -70.5t43.5 -198.5q0 -60 -20.5 -111t-58 -90t-90.5 -64.5t-118 -34.5zM209 89q28 0 54.5 8t41.5 20q-4 79 -29.5 122t-70.5 43
q-39 0 -63.5 -29t-24.5 -76q0 -42 24.5 -65t67.5 -23zM290 471q-79 -6 -154 -30l-14 36q14 5 26 9t23 8q-33 19 -33 55q0 32 23 54.5t55 22.5q34 0 56 -25l-20 -29q-15 9 -32 9q-18 0 -29.5 -9t-11.5 -23q0 -15 15.5 -25t41.5 -13q17 3 32 5t29 3z" />
    <glyph glyph-name="uni0648.fina" unicode="&#x648;" horiz-adv-x="422" arabic-form="final" 
d="M422 0h-66q-28 -81 -98 -133.5t-172 -66.5l-36 82q189 27 238 127h-35q-97 0 -150 43t-53 123q0 42 12 77.5t33 61.5t50 40.5t63 14.5q78 0 121.5 -69t43.5 -200v-10h49l16 -10v-70zM117 177q0 -87 147 -87h42q0 94 -26.5 143t-74.5 49q-39 0 -63.5 -29t-24.5 -76z" />
    <glyph glyph-name="uni0648.isol" unicode="&#x648;" horiz-adv-x="420" arabic-form="isolated" 
d="M50 -118q216 30 249 157q-20 -15 -46.5 -23t-56.5 -8q-66 0 -106 46t-40 121q0 42 12 77.5t33 61.5t50 40.5t63 14.5q78 0 121.5 -70.5t43.5 -198.5q0 -60 -20.5 -111t-58 -90t-90.5 -64.5t-118 -34.5zM209 89q28 0 54.5 8t41.5 20q-4 79 -29.5 122t-70.5 43
q-39 0 -63.5 -29t-24.5 -76q0 -42 24.5 -65t67.5 -23z" />
    <glyph glyph-name="uni0629.fina" unicode="&#x629;" horiz-adv-x="457" arabic-form="final" 
d="M457 0q-144 0 -161 113q-42 -24 -99 -24q-34 0 -63.5 9t-51.5 26t-35 42.5t-13 57.5q0 77 67.5 131t188.5 79v61l79 14l-4 -339q-1 -43 21 -61.5t71 -18.5l16 -10v-70zM209 176q48 0 84 14l-2 161q-37 -4 -71 -13.5t-60.5 -24t-42 -33t-15.5 -40.5q0 -18 8.5 -30
t23.5 -19.5t34.5 -11t40.5 -3.5zM147 575l-62 63l62 63l62 -63zM293 575l-62 63l62 63l62 -63z" />
    <glyph glyph-name="uni0629.isol" unicode="&#x629;" horiz-adv-x="433" arabic-form="isolated" 
d="M389 150q0 -72 -46 -114.5t-126 -42.5q-85 0 -129 41.5t-44 119.5q0 49 14 92.5t37.5 76.5t55 52t66.5 19q36 0 67.5 -19t54.5 -52t36.5 -77.5t13.5 -95.5zM321 141q0 35 -7.5 64.5t-21.5 51t-33 33.5t-42 12q-21 0 -40.5 -10.5t-33.5 -28.5t-22.5 -42t-8.5 -51
q0 -43 27 -65.5t78 -22.5q21 0 40 4.5t33 13t22.5 19t8.5 22.5zM144 474l-62 63l62 63l62 -63zM290 474l-62 63l62 63l62 -63z" />
    <glyph glyph-name="uni0647.fina" unicode="&#x647;" horiz-adv-x="457" arabic-form="final" 
d="M457 0q-144 0 -161 113q-42 -24 -99 -24q-34 0 -63.5 9t-51.5 26t-35 42.5t-13 57.5q0 77 67.5 131t188.5 79v61l79 14l-4 -339q-1 -43 21 -61.5t71 -18.5l16 -10v-70zM209 176q48 0 84 14l-2 161q-37 -4 -71 -13.5t-60.5 -24t-42 -33t-15.5 -40.5q0 -18 8.5 -30
t23.5 -19.5t34.5 -11t40.5 -3.5z" />
    <glyph glyph-name="uni0647.medi" unicode="&#x647;" horiz-adv-x="429" arabic-form="medial" 
d="M429 0h-52q24 -32 24 -78q0 -29 -11.5 -53.5t-31.5 -42.5t-48.5 -28t-61.5 -10q-40 0 -73.5 15t-58.5 43t-41.5 67.5t-21.5 87.5q-13 -1 -26 -1h-27l-16 10v70l16 10h53q6 58 25 112.5t46.5 97t60 68.5t65.5 26q24 0 47 -16t40.5 -42t28.5 -59.5t11 -69.5q0 -69 -43 -117
h95l16 -10v-70zM244 304q-21 0 -41.5 -18t-38 -47.5t-29.5 -67t-16 -77.5q103 7 147.5 33.5t44.5 77.5q0 19 -5.5 37t-14.5 31.5t-21.5 22t-25.5 8.5zM335 -63q0 74 -95 95q-53 -19 -119 -26q10 -63 43.5 -97t87.5 -34q38 0 60.5 17t22.5 45z" />
    <glyph glyph-name="uni0647.init" unicode="&#x647;" horiz-adv-x="553" arabic-form="initial" 
d="M335 207q0 -70 -49 -116q11 -1 22 -1.5t23 -0.5q50 0 82 14t32 37q0 48 -17.5 92.5t-49.5 83.5t-77.5 69.5t-100.5 49.5l34 77q64 -23 115.5 -60t88 -83.5t56 -101t19.5 -112.5q0 -74 -47 -114.5t-132 -40.5q-34 0 -73 9.5t-74 25.5q-45 -16 -95 -25.5t-92 -9.5l-16 10
v70l16 10q26 0 50 1t46 3q-47 47 -47 113q0 34 11 63t30.5 51t45.5 34.5t56 12.5t56 -12.5t45.5 -34.5t30.5 -51.5t11 -62.5zM112 207q0 -29 21 -52.5t58 -39.5q81 28 81 92q0 34 -23 57.5t-57 23.5t-57 -23t-23 -58z" />
    <glyph glyph-name="uni0647.isol" unicode="&#x647;" horiz-adv-x="433" arabic-form="isolated" 
d="M389 150q0 -72 -46 -114.5t-126 -42.5q-85 0 -129 41.5t-44 119.5q0 49 14 92.5t37.5 76.5t55 52t66.5 19q36 0 67.5 -19t54.5 -52t36.5 -77.5t13.5 -95.5zM321 141q0 35 -7.5 64.5t-21.5 51t-33 33.5t-42 12q-21 0 -40.5 -10.5t-33.5 -28.5t-22.5 -42t-8.5 -51
q0 -43 27 -65.5t78 -22.5q21 0 40 4.5t33 13t22.5 19t8.5 22.5z" />
    <glyph glyph-name="uni0621.isol" unicode="&#x621;" horiz-adv-x="443" arabic-form="isolated" 
d="M382 49q-81 -6 -160 -21.5t-155 -39.5l-27 64q25 10 51 19.5t52 17.5q-35 20 -54 50t-19 68q0 33 12 62.5t33 51.5t49 35t60 13q35 0 67 -15t55 -43l-37 -48q-17 10 -38 15t-41 5q-41 0 -67 -21t-26 -54q0 -35 38.5 -57.5t106.5 -28.5q29 5 57 8.5t55 5.5z" />
    <glyph glyph-name="uni0626.fina" unicode="&#x626;" horiz-adv-x="648" arabic-form="final" 
d="M648 0q-17 0 -34 2.5t-34 8.5q5 -18 5 -31q0 -32 -26 -64.5t-67.5 -58t-94 -41.5t-105.5 -16q-55 0 -100.5 16t-78.5 45.5t-51 71t-18 93.5q0 54 20 110t56 104l51 -32q-51 -81 -51 -160q0 -72 49.5 -114.5t133.5 -42.5q39 0 78 9t70.5 24t51 33t19.5 36q0 14 -21 43
t-73 87l59 51q37 -46 73 -65t88 -19l16 -10v-70zM233 342q-79 -6 -154 -30l-14 36q14 5 26 9t23 8q-33 19 -33 55q0 32 23 54.5t55 22.5q34 0 56 -25l-20 -29q-15 9 -32 9q-18 0 -29.5 -9t-11.5 -23q0 -15 15.5 -25t41.5 -13q17 3 32 5t29 3z" />
    <glyph glyph-name="uni0626.medi" unicode="&#x626;" horiz-adv-x="330" arabic-form="medial" 
d="M330 0q-117 0 -156 67q-20 -32 -65.5 -49.5t-108.5 -17.5l-16 10v70l16 10q65 0 96.5 15t39.5 50l5 27.5t6 33.5t5 34t4 30l68 -8q-5 -42 -9 -77t-4 -43q0 -62 119 -62l16 -10v-70zM278 382q-79 -6 -154 -30l-14 36q14 5 26 9t23 8q-33 19 -33 55q0 32 23 54.5t55 22.5
q34 0 56 -25l-20 -29q-15 9 -32 9q-18 0 -29.5 -9t-11.5 -23q0 -15 15.5 -25t41.5 -13q17 3 32 5t29 3z" />
    <glyph glyph-name="uni0626.init" unicode="&#x626;" horiz-adv-x="276" arabic-form="initial" 
d="M-16 10v70l16 10q70 0 114 17.5t44 41.5q0 19 -4.5 44t-13 52.5t-19.5 55.5t-24 53l72 40q12 -23 22.5 -52.5t19 -60.5t13 -60.5t4.5 -52.5q0 -87 -56 -127.5t-172 -40.5zM197 495q-79 -6 -154 -30l-14 36q14 5 26 9t23 8q-33 19 -33 55q0 32 23 54.5t55 22.5
q34 0 56 -25l-20 -29q-15 9 -32 9q-18 0 -29.5 -9t-11.5 -23q0 -15 15.5 -25t41.5 -13q17 3 32 5t29 3z" />
    <glyph glyph-name="uni0626.isol" unicode="&#x626;" horiz-adv-x="670" arabic-form="isolated" 
d="M418 79q-54 17 -80.5 49.5t-26.5 85.5q0 36 13.5 68.5t37 57.5t54 39.5t64.5 14.5q43 0 78.5 -25t56.5 -70l-48 -36q-33 48 -91 48q-19 0 -36.5 -7t-30.5 -18.5t-20.5 -26.5t-7.5 -32q0 -13 3.5 -22t12 -16.5t23 -14t37.5 -13.5l71 -22q48 -15 70.5 -39.5t22.5 -62.5
q0 -45 -28 -87.5t-74.5 -75.5t-105.5 -53.5t-121 -20.5q-55 0 -100.5 16t-78.5 45.5t-51 71t-18 93.5q0 54 20 110t56 104l51 -32q-51 -81 -51 -160q0 -72 49.5 -114.5t133.5 -42.5q43 0 87 11.5t79 29.5t57 40.5t22 45.5q0 13 -11.5 20.5t-46.5 18.5zM233 342
q-79 -6 -154 -30l-14 36q14 5 26 9t23 8q-33 19 -33 55q0 32 23 54.5t55 22.5q34 0 56 -25l-20 -29q-15 9 -32 9q-18 0 -29.5 -9t-11.5 -23q0 -15 15.5 -25t41.5 -13q17 3 32 5t29 3z" />
    <glyph glyph-name="uni064A.fina" unicode="&#x64a;" horiz-adv-x="648" arabic-form="final" 
d="M648 0q-17 0 -34 2.5t-34 8.5q5 -18 5 -31q0 -32 -26 -64.5t-67.5 -58t-94 -41.5t-105.5 -16q-55 0 -100.5 16t-78.5 45.5t-51 71t-18 93.5q0 54 20 110t56 104l51 -32q-51 -81 -51 -160q0 -72 49.5 -114.5t133.5 -42.5q39 0 78 9t70.5 24t51 33t19.5 36q0 14 -21 43
t-73 87l59 51q37 -46 73 -65t88 -19l16 -10v-70zM219 -405l-62 63l62 63l62 -63zM365 -405l-62 63l62 63l62 -63z" />
    <glyph glyph-name="uni064A.medi" unicode="&#x64a;" horiz-adv-x="330" arabic-form="medial" 
d="M330 0q-117 0 -156 67q-20 -32 -65.5 -49.5t-108.5 -17.5l-16 10v70l16 10q65 0 96.5 15t39.5 50l5 27.5t6 33.5t5 34t4 30l68 -8q-5 -42 -9 -77t-4 -43q0 -62 119 -62l16 -10v-70zM102 -206l-62 63l62 63l62 -63zM248 -206l-62 63l62 63l62 -63z" />
    <glyph glyph-name="uni064A.init" unicode="&#x64a;" horiz-adv-x="276" arabic-form="initial" 
d="M-16 10v70l16 10q70 0 114 17.5t44 41.5q0 19 -4.5 44t-13 52.5t-19.5 55.5t-24 53l72 40q12 -23 22.5 -52.5t19 -60.5t13 -60.5t4.5 -52.5q0 -87 -56 -127.5t-172 -40.5zM35 -206l-62 63l62 63l62 -63zM181 -206l-62 63l62 63l62 -63z" />
    <glyph glyph-name="uni064A.isol" unicode="&#x64a;" horiz-adv-x="670" arabic-form="isolated" 
d="M418 79q-54 17 -80.5 49.5t-26.5 85.5q0 36 13.5 68.5t37 57.5t54 39.5t64.5 14.5q43 0 78.5 -25t56.5 -70l-48 -36q-33 48 -91 48q-19 0 -36.5 -7t-30.5 -18.5t-20.5 -26.5t-7.5 -32q0 -13 3.5 -22t12 -16.5t23 -14t37.5 -13.5l71 -22q48 -15 70.5 -39.5t22.5 -62.5
q0 -45 -28 -87.5t-74.5 -75.5t-105.5 -53.5t-121 -20.5q-55 0 -100.5 16t-78.5 45.5t-51 71t-18 93.5q0 54 20 110t56 104l51 -32q-51 -81 -51 -160q0 -72 49.5 -114.5t133.5 -42.5q43 0 87 11.5t79 29.5t57 40.5t22 45.5q0 13 -11.5 20.5t-46.5 18.5zM219 -405l-62 63
l62 63l62 -63zM365 -405l-62 63l62 63l62 -63z" />
    <glyph glyph-name="uni0649.fina" unicode="&#x649;" horiz-adv-x="648" arabic-form="final" 
d="M648 0q-17 0 -34 2.5t-34 8.5q5 -18 5 -31q0 -32 -26 -64.5t-67.5 -58t-94 -41.5t-105.5 -16q-55 0 -100.5 16t-78.5 45.5t-51 71t-18 93.5q0 54 20 110t56 104l51 -32q-51 -81 -51 -160q0 -72 49.5 -114.5t133.5 -42.5q39 0 78 9t70.5 24t51 33t19.5 36q0 14 -21 43
t-73 87l59 51q37 -46 73 -65t88 -19l16 -10v-70z" />
    <glyph glyph-name="uni0649.medi" unicode="&#x649;" horiz-adv-x="330" arabic-form="medial" 
d="M330 0q-117 0 -156 67q-20 -32 -65.5 -49.5t-108.5 -17.5l-16 10v70l16 10q65 0 96.5 15t39.5 50l5 27.5t6 33.5t5 34t4 30l68 -8q-5 -42 -9 -77t-4 -43q0 -62 119 -62l16 -10v-70z" />
    <glyph glyph-name="uni0649.init" unicode="&#x649;" horiz-adv-x="276" arabic-form="initial" 
d="M-16 10v70l16 10q70 0 114 17.5t44 41.5q0 19 -4.5 44t-13 52.5t-19.5 55.5t-24 53l72 40q12 -23 22.5 -52.5t19 -60.5t13 -60.5t4.5 -52.5q0 -87 -56 -127.5t-172 -40.5z" />
    <glyph glyph-name="uni0649.isol" unicode="&#x649;" horiz-adv-x="670" arabic-form="isolated" 
d="M418 79q-54 17 -80.5 49.5t-26.5 85.5q0 36 13.5 68.5t37 57.5t54 39.5t64.5 14.5q43 0 78.5 -25t56.5 -70l-48 -36q-33 48 -91 48q-19 0 -36.5 -7t-30.5 -18.5t-20.5 -26.5t-7.5 -32q0 -13 3.5 -22t12 -16.5t23 -14t37.5 -13.5l71 -22q48 -15 70.5 -39.5t22.5 -62.5
q0 -45 -28 -87.5t-74.5 -75.5t-105.5 -53.5t-121 -20.5q-55 0 -100.5 16t-78.5 45.5t-51 71t-18 93.5q0 54 20 110t56 104l51 -32q-51 -81 -51 -160q0 -72 49.5 -114.5t133.5 -42.5q43 0 87 11.5t79 29.5t57 40.5t22 45.5q0 13 -11.5 20.5t-46.5 18.5z" />
    <glyph glyph-name="uni0698.fina" unicode="&#x698;" horiz-adv-x="404" arabic-form="final" 
d="M404 0q-68 0 -111 29q-22 -72 -90 -131.5t-173 -97.5l-46 79q110 42 177 97t78 115q-14 26 -28.5 64t-33.5 95l75 35q12 -37 24.5 -74t19.5 -53q8 -20 17 -33t21 -21t29 -11t41 -3l16 -10v-70zM114 366l-62 63l62 63l62 -63zM260 366l-62 63l62 63l62 -63zM187 495
l-62 63l62 63l62 -63z" />
    <glyph glyph-name="uni0698.isol" unicode="&#x698;" horiz-adv-x="351" arabic-form="isolated" 
d="M-16 -121q54 20 100 46t79.5 54.5t52.5 57t19 54.5q0 16 -7 41t-19.5 54.5t-29.5 61.5t-36 62l72 40q42 -56 66 -124t24 -127q0 -94 -72 -172.5t-203 -126.5zM95 431l-62 63l62 63l62 -63zM241 431l-62 63l62 63l62 -63zM168 560l-62 63l62 63l62 -63z" />
    <glyph glyph-name="uni0688.fina" unicode="&#x688;" horiz-adv-x="469" arabic-form="final" 
d="M469 0q-42 0 -71.5 11t-52.5 34q-24 -27 -73 -39.5t-130 -12.5q-21 0 -48.5 2t-47.5 5l-19 93q26 -5 56.5 -7.5t58.5 -2.5q52 0 93 7t66 20q-11 20 -22 45t-24 57t-28 73t-34 93l75 36q52 -145 103 -267q14 -33 34.5 -45t63.5 -12l16 -10v-70zM106 549q14 -2 26.5 -3
t26.5 -2l-4 180l41 8l-4 -138q30 56 68 56q27 0 45 -22t18 -54q0 -78 -118 -78q-29 0 -50.5 1t-38.5 3zM259 604q-33 0 -63 -61h15q42 0 59.5 7.5t17.5 24.5q0 13 -8 21t-21 8z" />
    <glyph glyph-name="uni0688.isol" unicode="&#x688;" horiz-adv-x="412" arabic-form="isolated" 
d="M27 93q26 -5 56.5 -7.5t58.5 -2.5q30 0 58.5 3t50.5 7.5t35.5 11t13.5 12.5q0 23 -11.5 53t-32 62t-49 64.5t-61.5 61.5l62 59q37 -33 67 -70t51 -75.5t32.5 -76.5t11.5 -73q0 -69 -53.5 -99t-174.5 -30q-21 0 -48.5 2t-47.5 5zM50 552q14 -2 26.5 -3t26.5 -2l-4 180
l41 8l-4 -138q30 56 68 56q27 0 45 -22t18 -54q0 -78 -118 -78q-29 0 -50.5 1t-38.5 3zM203 607q-33 0 -63 -61h15q42 0 59.5 7.5t17.5 24.5q0 13 -8 21t-21 8z" />
    <glyph glyph-name="uni0686.fina" unicode="&#x686;" horiz-adv-x="606" arabic-form="final" 
d="M581 -219q-45 -38 -108.5 -59.5t-132.5 -21.5q-62 0 -113 16.5t-87.5 46.5t-56.5 72.5t-20 93.5q0 103 78.5 183.5t227.5 130.5q-12 2 -24.5 5t-24.5 7q-54 15 -87.5 22t-53.5 7q-26 0 -43.5 -9t-39.5 -33l-46 36q51 91 140 91q29 0 70 -9t109 -30q93 -28 145 -28h20v-84
q-195 -48 -294.5 -117t-99.5 -157q0 -35 15 -63t43 -48t67.5 -31t88.5 -11q57 0 111.5 12.5t91.5 32.5zM606 0q-85 0 -129.5 45t-44.5 127q0 17 2 42.5t4 41.5h54q-2 -14 -3 -32t-1 -28q0 -56 26.5 -81t91.5 -25l16 -10v-70zM288 -27l-48 49l48 49l48 -49zM392 -27l-48 49
l48 49l48 -49zM340 -129l-48 49l48 49l48 -49z" />
    <glyph glyph-name="uni0686.medi" unicode="&#x686;" horiz-adv-x="561" arabic-form="medial" 
d="M247 163q35 17 63.5 29.5t54.5 20.5l-51 22q-33 14 -57 23.5t-42 15t-32 8t-27 2.5q-26 0 -43.5 -9t-39.5 -33l-46 36q27 48 61.5 69.5t81.5 21.5q15 0 30.5 -2.5t34.5 -8t43.5 -15.5t57.5 -25q27 -12 47.5 -20.5t36.5 -14t29 -7.5t26 -2h20v-84q-23 -6 -45 -13.5
t-46 -18.5t-52.5 -25.5t-64.5 -35.5q-48 -27 -86.5 -46t-72 -30t-64.5 -16t-64 -5l-16 10v70l16 10q29 0 56.5 4t56.5 12.5t62 22.5t72 34zM561 0q-84 0 -123.5 41.5t-39.5 121.5q0 20 1 33.5t4 27.5h55q-2 -19 -3 -27.5t-1 -16.5q0 -24 5 -41t17.5 -28t33 -16t51.5 -5
l16 -10v-70zM167 -186l-62 63l62 63l62 -63zM313 -186l-62 63l62 63l62 -63zM240 -315l-62 63l62 63l62 -63z" />
    <glyph glyph-name="uni0686.init" unicode="&#x686;" horiz-adv-x="552" arabic-form="initial" 
d="M247 163q35 17 63.5 29.5t54.5 20.5l-51 22q-33 14 -57 23.5t-42 15t-32 8t-27 2.5q-26 0 -43.5 -9t-39.5 -33l-46 36q27 48 61.5 69.5t81.5 21.5q15 0 30.5 -2.5t34.5 -8t43.5 -15.5t57.5 -25q27 -12 47.5 -20.5t36.5 -14t29 -7.5t26 -2h20v-84q-23 -6 -45 -13.5
t-46 -18.5t-52.5 -25.5t-64.5 -35.5q-48 -27 -86.5 -46t-72 -30t-64.5 -16t-64 -5l-16 10v70l16 10q29 0 56.5 4t56.5 12.5t62 22.5t72 34zM167 -186l-62 63l62 63l62 -63zM313 -186l-62 63l62 63l62 -63zM240 -315l-62 63l62 63l62 -63z" />
    <glyph glyph-name="uni0686.isol" unicode="&#x686;" horiz-adv-x="587" arabic-form="isolated" 
d="M581 -219q-45 -38 -108.5 -59.5t-132.5 -21.5q-62 0 -113 16.5t-87.5 46.5t-56.5 72.5t-20 93.5q0 103 78.5 183.5t227.5 130.5q-12 2 -24.5 5t-24.5 7q-54 15 -87.5 22t-53.5 7q-26 0 -43.5 -9t-39.5 -33l-46 36q51 91 140 91q29 0 70 -9t109 -30q93 -28 145 -28h20v-84
q-195 -48 -294.5 -117t-99.5 -157q0 -35 15 -63t43 -48t67.5 -31t88.5 -11q57 0 111.5 12.5t91.5 32.5zM304 -27l-48 49l48 49l48 -49zM408 -27l-48 49l48 49l48 -49zM356 -129l-48 49l48 49l48 -49z" />
    <glyph glyph-name="uni0679.fina" unicode="&#x679;" horiz-adv-x="854" arabic-form="final" 
d="M854 0q-122 0 -159 73q-26 -42 -102 -61t-207 -19q-89 0 -153.5 10.5t-106.5 33t-62 57t-20 82.5q0 41 15 89.5t41 93.5l53 -26q-16 -35 -24.5 -67t-8.5 -58q0 -33 14.5 -56.5t46.5 -38t82.5 -21.5t122.5 -7q78 0 129 4t82.5 14t46 28t20.5 45q4 20 8.5 49.5t7.5 54.5
l68 -8q-5 -42 -9 -77t-4 -43q0 -62 119 -62l16 -10v-70zM303 442q14 -2 26.5 -3t26.5 -2l-4 180l41 8l-4 -138q30 56 68 56q27 0 45 -22t18 -54q0 -78 -118 -78q-29 0 -50.5 1t-38.5 3zM456 497q-33 0 -63 -61h15q42 0 59.5 7.5t17.5 24.5q0 13 -8 21t-21 8z" />
    <glyph glyph-name="uni0679.medi" unicode="&#x679;" horiz-adv-x="330" arabic-form="medial" 
d="M330 0q-117 0 -156 67q-20 -32 -65.5 -49.5t-108.5 -17.5l-16 10v70l16 10q65 0 96.5 15t39.5 50l5 27.5t6 33.5t5 34t4 30l68 -8q-5 -42 -9 -77t-4 -43q0 -62 119 -62l16 -10v-70zM89 416q14 -2 26.5 -3t26.5 -2l-4 180l41 8l-4 -138q30 56 68 56q27 0 45 -22t18 -54
q0 -78 -118 -78q-29 0 -50.5 1t-38.5 3zM242 471q-33 0 -63 -61h15q42 0 59.5 7.5t17.5 24.5q0 13 -8 21t-21 8z" />
    <glyph glyph-name="uni0679.init" unicode="&#x679;" horiz-adv-x="276" arabic-form="initial" 
d="M-16 10v70l16 10q70 0 114 17.5t44 41.5q0 19 -4.5 44t-13 52.5t-19.5 55.5t-24 53l72 40q12 -23 22.5 -52.5t19 -60.5t13 -60.5t4.5 -52.5q0 -87 -56 -127.5t-172 -40.5zM8 529q14 -2 26.5 -3t26.5 -2l-4 180l41 8l-4 -138q30 56 68 56q27 0 45 -22t18 -54
q0 -78 -118 -78q-29 0 -50.5 1t-38.5 3zM161 584q-33 0 -63 -61h15q42 0 59.5 7.5t17.5 24.5q0 13 -8 21t-21 8z" />
    <glyph glyph-name="uni0679.isol" unicode="&#x679;" horiz-adv-x="775" arabic-form="isolated" 
d="M668 394q13 -24 23.5 -54.5t18.5 -62t12.5 -63.5t4.5 -59q0 -83 -83 -122.5t-258 -39.5q-89 0 -153.5 10.5t-106.5 33t-62 57t-20 82.5q0 41 15 89.5t41 93.5l53 -26q-16 -35 -24.5 -67t-8.5 -58q0 -33 14.5 -56.5t46.5 -38t82.5 -21.5t122.5 -7q56 0 105.5 5t86 14
t58 20.5t21.5 24.5q0 19 -4.5 44t-13 52.5t-19.5 55.5t-24 53zM265 472q14 -2 26.5 -3t26.5 -2l-4 180l41 8l-4 -138q30 56 68 56q27 0 45 -22t18 -54q0 -78 -118 -78q-29 0 -50.5 1t-38.5 3zM418 527q-33 0 -63 -61h15q42 0 59.5 7.5t17.5 24.5q0 13 -8 21t-21 8z" />
    <glyph glyph-name="uni067E.fina" unicode="&#x67e;" horiz-adv-x="854" arabic-form="final" 
d="M854 0q-122 0 -159 73q-26 -42 -102 -61t-207 -19q-89 0 -153.5 10.5t-106.5 33t-62 57t-20 82.5q0 41 15 89.5t41 93.5l53 -26q-16 -35 -24.5 -67t-8.5 -58q0 -33 14.5 -56.5t46.5 -38t82.5 -21.5t122.5 -7q78 0 129 4t82.5 14t46 28t20.5 45q4 20 8.5 49.5t7.5 54.5
l68 -8q-5 -42 -9 -77t-4 -43q0 -62 119 -62l16 -10v-70zM313 -206l-62 63l62 63l62 -63zM459 -206l-62 63l62 63l62 -63zM386 -335l-62 63l62 63l62 -63z" />
    <glyph glyph-name="uni067E.medi" unicode="&#x67e;" horiz-adv-x="330" arabic-form="medial" 
d="M330 0q-117 0 -156 67q-20 -32 -65.5 -49.5t-108.5 -17.5l-16 10v70l16 10q65 0 96.5 15t39.5 50l5 27.5t6 33.5t5 34t4 30l68 -8q-5 -42 -9 -77t-4 -43q0 -62 119 -62l16 -10v-70zM102 -206l-62 63l62 63l62 -63zM248 -206l-62 63l62 63l62 -63zM175 -335l-62 63l62 63
l62 -63z" />
    <glyph glyph-name="uni067E.init" unicode="&#x67e;" horiz-adv-x="276" arabic-form="initial" 
d="M-16 10v70l16 10q70 0 114 17.5t44 41.5q0 19 -4.5 44t-13 52.5t-19.5 55.5t-24 53l72 40q12 -23 22.5 -52.5t19 -60.5t13 -60.5t4.5 -52.5q0 -87 -56 -127.5t-172 -40.5zM35 -206l-62 63l62 63l62 -63zM181 -206l-62 63l62 63l62 -63zM108 -335l-62 63l62 63l62 -63z
" />
    <glyph glyph-name="uni067E.isol" unicode="&#x67e;" horiz-adv-x="775" arabic-form="isolated" 
d="M668 394q13 -24 23.5 -54.5t18.5 -62t12.5 -63.5t4.5 -59q0 -83 -83 -122.5t-258 -39.5q-89 0 -153.5 10.5t-106.5 33t-62 57t-20 82.5q0 41 15 89.5t41 93.5l53 -26q-16 -35 -24.5 -67t-8.5 -58q0 -33 14.5 -56.5t46.5 -38t82.5 -21.5t122.5 -7q56 0 105.5 5t86 14
t58 20.5t21.5 24.5q0 19 -4.5 44t-13 52.5t-19.5 55.5t-24 53zM312 -206l-62 63l62 63l62 -63zM458 -206l-62 63l62 63l62 -63zM385 -335l-62 63l62 63l62 -63z" />
    <glyph glyph-name="uni06BA.fina" unicode="&#x6ba;" horiz-adv-x="642" arabic-form="final" 
d="M496 280q14 -30 26 -65t21 -70t14.5 -67t5.5 -56q0 -48 -19.5 -89t-54 -70.5t-82 -46t-104.5 -16.5q-59 0 -107 16t-82 45.5t-52 71.5t-18 93q0 54 20 110.5t56 103.5l51 -32q-51 -81 -51 -160q0 -72 49.5 -114.5t133.5 -42.5q38 0 72.5 9t60.5 25t41.5 36.5t15.5 43.5
q0 20 -5 47t-14 57.5t-22 64.5t-29 67zM642 0q-59 0 -99 23.5t-55 66.5l52 63q0 -30 26.5 -46.5t75.5 -16.5l16 -10v-70z" />
    <glyph glyph-name="uni06BA.isol" unicode="&#x6ba;" horiz-adv-x="605" arabic-form="isolated" 
d="M496 280q14 -30 26 -65t21 -70t14.5 -67t5.5 -56q0 -48 -19.5 -89t-54 -70.5t-82 -46t-104.5 -16.5q-59 0 -107 16t-82 45.5t-52 71.5t-18 93q0 54 20 110.5t56 103.5l51 -32q-51 -81 -51 -160q0 -72 49.5 -114.5t133.5 -42.5q38 0 72.5 9t60.5 25t41.5 36.5t15.5 43.5
q0 20 -5 47t-14 57.5t-22 64.5t-29 67z" />
    <glyph glyph-name="uni06AF.fina" unicode="&#x6af;" horiz-adv-x="766" arabic-form="final" 
d="M766 0q-60 0 -104.5 12.5t-76.5 46.5q-35 -32 -100 -49t-152 -17q-289 0 -289 183q0 41 15 89.5t41 93.5l53 -26q-16 -35 -24.5 -67t-8.5 -58q0 -63 52 -93t161 -30q67 0 123.5 11t85.5 29l-147 270l13 82q85 48 172 90.5t172 77.5l16 -79q-38 -15 -72.5 -29.5
t-70.5 -30.5t-75 -35t-85 -42l135 -246q15 -27 30 -45t34 -28.5t43.5 -15t58.5 -4.5l16 -10v-70zM673 678q-66 -32 -131.5 -60.5t-125.5 -50.5v48q65 24 128 51.5t129 59.5v-48z" />
    <glyph glyph-name="uni06AF.medi" unicode="&#x6af;" horiz-adv-x="405" arabic-form="medial" 
d="M405 0q-62 0 -103.5 14t-74.5 49q-65 -63 -227 -63l-16 10v70l16 10q64 0 110 9.5t72 25.5l-9 16l-139 254l13 82q85 48 172 90.5t172 77.5l16 -79q-38 -15 -72.5 -29.5t-70.5 -30.5t-75 -35t-85 -42l135 -246q15 -27 30 -45t34 -28.5t43.5 -15t58.5 -4.5l16 -10v-70z
M312 678q-66 -32 -131.5 -60.5t-125.5 -50.5v48q65 24 128 51.5t129 59.5v-48z" />
    <glyph glyph-name="uni06AF.init" unicode="&#x6af;" horiz-adv-x="426" arabic-form="initial" 
d="M-16 10v70l16 10q42 0 84 5t76.5 12.5t56 17.5t21.5 19q0 25 -16.5 57t-44 66t-64.5 67.5t-78 60.5l13 82q85 48 172 90.5t172 77.5l16 -79q-36 -14 -69.5 -28t-68 -30t-71.5 -33.5t-81 -39.5q90 -69 140 -146t50 -148q0 -69 -78.5 -105t-229.5 -36zM313 678
q-66 -32 -131.5 -60.5t-125.5 -50.5v48q65 24 128 51.5t129 59.5v-48z" />
    <glyph glyph-name="uni06AF.isol" unicode="&#x6af;" horiz-adv-x="738" arabic-form="isolated" 
d="M720 566q-36 -14 -69.5 -28t-68 -30t-71.5 -33.5t-81 -39.5q90 -70 140 -146.5t50 -144.5q0 -35 -20 -63t-57 -47.5t-90.5 -30t-119.5 -10.5q-289 0 -289 183q0 41 15 89.5t41 93.5l53 -26q-16 -35 -24.5 -67t-8.5 -58q0 -63 52 -93t161 -30q44 0 83.5 5t69 13t47 19.5
t17.5 23.5q0 24 -16.5 55.5t-44 65.5t-64.5 67.5t-78 60.5l13 82q86 48 174.5 91t169.5 77zM625 678q-66 -32 -131.5 -60.5t-125.5 -50.5v48q65 24 128 51.5t129 59.5v-48z" />
    <glyph glyph-name="uni06A9.fina" unicode="&#x6a9;" horiz-adv-x="766" arabic-form="final" 
d="M766 0q-60 0 -104.5 12.5t-76.5 46.5q-35 -32 -100 -49t-152 -17q-289 0 -289 183q0 41 15 89.5t41 93.5l53 -26q-16 -35 -24.5 -67t-8.5 -58q0 -63 52 -93t161 -30q67 0 123.5 11t85.5 29l-147 270l13 82q85 48 172 90.5t172 77.5l16 -79q-38 -15 -72.5 -29.5
t-70.5 -30.5t-75 -35t-85 -42l135 -246q15 -27 30 -45t34 -28.5t43.5 -15t58.5 -4.5l16 -10v-70z" />
    <glyph glyph-name="uni06A9.medi" unicode="&#x6a9;" horiz-adv-x="405" arabic-form="medial" 
d="M405 0q-62 0 -103.5 14t-74.5 49q-65 -63 -227 -63l-16 10v70l16 10q64 0 110 9.5t72 25.5l-9 16l-139 254l13 82q85 48 172 90.5t172 77.5l16 -79q-38 -15 -72.5 -29.5t-70.5 -30.5t-75 -35t-85 -42l135 -246q15 -27 30 -45t34 -28.5t43.5 -15t58.5 -4.5l16 -10v-70z
" />
    <glyph glyph-name="uni06A9.init" unicode="&#x6a9;" horiz-adv-x="426" arabic-form="initial" 
d="M-16 10v70l16 10q42 0 84 5t76.5 12.5t56 17.5t21.5 19q0 25 -16.5 57t-44 66t-64.5 67.5t-78 60.5l13 82q85 48 172 90.5t172 77.5l16 -79q-36 -14 -69.5 -28t-68 -30t-71.5 -33.5t-81 -39.5q90 -69 140 -146t50 -148q0 -69 -78.5 -105t-229.5 -36z" />
    <glyph glyph-name="uni06A9.isol" unicode="&#x6a9;" horiz-adv-x="738" arabic-form="isolated" 
d="M720 566q-36 -14 -69.5 -28t-68 -30t-71.5 -33.5t-81 -39.5q90 -70 140 -146.5t50 -144.5q0 -35 -20 -63t-57 -47.5t-90.5 -30t-119.5 -10.5q-289 0 -289 183q0 41 15 89.5t41 93.5l53 -26q-16 -35 -24.5 -67t-8.5 -58q0 -63 52 -93t161 -30q44 0 83.5 5t69 13t47 19.5
t17.5 23.5q0 24 -16.5 55.5t-44 65.5t-64.5 67.5t-78 60.5l13 82q86 48 174.5 91t169.5 77z" />
    <glyph glyph-name="uni06A4.fina" unicode="&#x6a4;" horiz-adv-x="818" arabic-form="final" 
d="M818 0q-56 0 -110 9t-102 26q-53 -20 -108 -31t-112 -11q-89 0 -153.5 10.5t-106.5 33t-62 57t-20 82.5q0 41 15 89.5t41 93.5l53 -26q-16 -35 -24.5 -67t-8.5 -58q0 -33 14.5 -56.5t46.5 -38t82.5 -21.5t122.5 -7q65 0 118 6q-55 49 -55 125q0 37 12.5 69.5t34 56.5
t50 38t60.5 14t60.5 -14t50 -38t34 -56.5t12.5 -69.5q0 -73 -52 -122q24 -2 50.5 -3t56.5 -1l16 -10v-70zM514 213q0 -71 94 -100q90 34 90 100q0 20 -7 37t-19.5 30t-29.5 20t-36 7t-36 -7t-29.5 -20t-19.5 -30t-7 -37zM533 474l-62 63l62 63l62 -63zM679 474l-62 63l62 63
l62 -63zM606 603l-62 63l62 63l62 -63z" />
    <glyph glyph-name="uni06A4.medi" unicode="&#x6a4;" horiz-adv-x="424" arabic-form="medial" 
d="M424 0q-56 0 -110 9t-102 26q-48 -17 -102 -26t-110 -9l-16 10v70l16 10q29 0 56 1t51 3q-52 48 -52 122q0 37 12.5 69.5t34 56.5t50 38t60.5 14t60.5 -14t50 -38t34 -56.5t12.5 -69.5q0 -73 -52 -122q23 -2 50 -3t57 -1l16 -10v-70zM120 213q0 -69 92 -99q92 30 92 99
q0 20 -7 37t-19.5 30t-29.5 20t-36 7t-36 -7t-29.5 -20t-19.5 -30t-7 -37zM139 474l-62 63l62 63l62 -63zM285 474l-62 63l62 63l62 -63zM212 603l-62 63l62 63l62 -63z" />
    <glyph glyph-name="uni06A4.init" unicode="&#x6a4;" horiz-adv-x="416" arabic-form="initial" 
d="M285 200q-20 -16 -46.5 -25t-56.5 -9q-66 0 -103.5 38.5t-37.5 107.5q0 39 12 73.5t32.5 60t48.5 40t60 14.5q78 0 118.5 -80t40.5 -236q0 -66 -16 -100.5t-55 -52.5q-19 -9 -41.5 -14.5t-53.5 -9.5t-71 -5.5t-93 -1.5h-23l-16 10v70l16 10h23q130 0 196 10t66 30v70z
M191 242q26 0 50.5 7t39.5 19q-7 78 -28.5 113t-61.5 35q-37 0 -62 -28.5t-25 -70.5q0 -37 22.5 -56t64.5 -19zM121 580l-62 63l62 63l62 -63zM267 580l-62 63l62 63l62 -63zM194 709l-62 63l62 63l62 -63z" />
    <glyph glyph-name="uni06A4.isol" unicode="&#x6a4;" horiz-adv-x="781" arabic-form="isolated" 
d="M650 200q-20 -16 -46.5 -25t-56.5 -9q-66 0 -103.5 38.5t-37.5 107.5q0 39 12 73.5t32.5 60t48.5 40t60 14.5q78 0 118.5 -80t40.5 -236q0 -66 -16 -100.5t-55 -52.5q-39 -19 -106 -28.5t-155 -9.5q-89 0 -153.5 10.5t-106.5 33t-62 57t-20 82.5q0 41 15 89.5t41 93.5
l53 -26q-16 -35 -24.5 -67t-8.5 -58q0 -33 14.5 -56.5t46.5 -38t82.5 -21.5t122.5 -7q125 0 194.5 12t69.5 33v70zM556 242q26 0 50.5 7t39.5 19q-7 78 -28.5 113t-61.5 35q-37 0 -62 -28.5t-25 -70.5q0 -37 22.5 -56t64.5 -19zM486 580l-62 63l62 63l62 -63zM632 580
l-62 63l62 63l62 -63zM559 709l-62 63l62 63l62 -63z" />
    <glyph glyph-name="uni0691.fina" unicode="&#x691;" horiz-adv-x="404" arabic-form="final" 
d="M404 0q-68 0 -111 29q-22 -72 -90 -131.5t-173 -97.5l-46 79q110 42 177 97t78 115q-14 26 -28.5 64t-33.5 95l75 35q12 -37 24.5 -74t19.5 -53q8 -20 17 -33t21 -21t29 -11t41 -3l16 -10v-70zM80 421q14 -2 26.5 -3t26.5 -2l-4 180l41 8l-4 -138q30 56 68 56
q27 0 45 -22t18 -54q0 -78 -118 -78q-29 0 -50.5 1t-38.5 3zM233 476q-33 0 -63 -61h15q42 0 59.5 7.5t17.5 24.5q0 13 -8 21t-21 8z" />
    <glyph glyph-name="uni0691.isol" unicode="&#x691;" horiz-adv-x="351" arabic-form="isolated" 
d="M-16 -121q54 20 100 46t79.5 54.5t52.5 57t19 54.5q0 16 -7 41t-19.5 54.5t-29.5 61.5t-36 62l72 40q42 -56 66 -124t24 -127q0 -94 -72 -172.5t-203 -126.5zM61 486q14 -2 26.5 -3t26.5 -2l-4 180l41 8l-4 -138q30 56 68 56q27 0 45 -22t18 -54q0 -78 -118 -78
q-29 0 -50.5 1t-38.5 3zM214 541q-33 0 -63 -61h15q42 0 59.5 7.5t17.5 24.5q0 13 -8 21t-21 8z" />
    <glyph glyph-name="uni06C3.fina" unicode="&#x6c3;" horiz-adv-x="534" 
d="M534 0q-38 0 -66 6.5t-49.5 22.5t-38.5 42.5t-33 67.5q-18 43 -31 57t-36 14q-20 0 -45 -7.5t-52 -20.5t-54 -31t-52 -39l-35 60q25 27 56.5 51t64.5 41t65 27t58 10q41 0 69 -25t51 -82q13 -32 25 -52t26 -31.5t32.5 -16t44.5 -4.5l16 -10v-70zM158 382l-62 63l62 63
l62 -63zM304 382l-62 63l62 63l62 -63z" />
    <glyph glyph-name="uni06C0.fina" unicode="&#x6c0;" horiz-adv-x="457" arabic-form="final" 
d="M457 0q-144 0 -161 113q-42 -24 -99 -24q-34 0 -63.5 9t-51.5 26t-35 42.5t-13 57.5q0 77 67.5 131t188.5 79v61l79 14l-4 -339q-1 -43 21 -61.5t71 -18.5l16 -10v-70zM209 176q48 0 84 14l-2 161q-37 -4 -71 -13.5t-60.5 -24t-42 -33t-15.5 -40.5q0 -18 8.5 -30
t23.5 -19.5t34.5 -11t40.5 -3.5zM302 596q-79 -6 -154 -30l-14 36q14 5 26 9t23 8q-33 19 -33 55q0 32 23 54.5t55 22.5q34 0 56 -25l-20 -29q-15 9 -32 9q-18 0 -29.5 -9t-11.5 -23q0 -15 15.5 -25t41.5 -13q17 3 32 5t29 3z" />
    <glyph glyph-name="uni06C0.isol" unicode="&#x6c0;" horiz-adv-x="433" arabic-form="isolated" 
d="M389 150q0 -72 -46 -114.5t-126 -42.5q-85 0 -129 41.5t-44 119.5q0 49 14 92.5t37.5 76.5t55 52t66.5 19q36 0 67.5 -19t54.5 -52t36.5 -77.5t13.5 -95.5zM321 141q0 35 -7.5 64.5t-21.5 51t-33 33.5t-42 12q-21 0 -40.5 -10.5t-33.5 -28.5t-22.5 -42t-8.5 -51
q0 -43 27 -65.5t78 -22.5q21 0 40 4.5t33 13t22.5 19t8.5 22.5zM299 495q-79 -6 -154 -30l-14 36q14 5 26 9t23 8q-33 19 -33 55q0 32 23 54.5t55 22.5q34 0 56 -25l-20 -29q-15 9 -32 9q-18 0 -29.5 -9t-11.5 -23q0 -15 15.5 -25t41.5 -13q17 3 32 5t29 3z" />
    <glyph glyph-name="uni06C2.fina" unicode="&#x6c2;" horiz-adv-x="534" 
d="M534 0q-38 0 -66 6.5t-49.5 22.5t-38.5 42.5t-33 67.5q-18 43 -31 57t-36 14q-20 0 -45 -7.5t-52 -20.5t-54 -31t-52 -39l-35 60q25 27 56.5 51t64.5 41t65 27t58 10q41 0 69 -25t51 -82q13 -32 25 -52t26 -31.5t32.5 -16t44.5 -4.5l16 -10v-70zM313 403q-79 -6 -154 -30
l-14 36q14 5 26 9t23 8q-33 19 -33 55q0 32 23 54.5t55 22.5q34 0 56 -25l-20 -29q-15 9 -32 9q-18 0 -29.5 -9t-11.5 -23q0 -15 15.5 -25t41.5 -13q17 3 32 5t29 3z" />
    <glyph glyph-name="uni06D5.fina" unicode="&#x6d5;" horiz-adv-x="457" 
d="M457 0q-144 0 -161 113q-42 -24 -99 -24q-34 0 -63.5 9t-51.5 26t-35 42.5t-13 57.5q0 77 67.5 131t188.5 79v61l79 14l-4 -339q-1 -43 21 -61.5t71 -18.5l16 -10v-70zM209 176q48 0 84 14l-2 161q-37 -4 -71 -13.5t-60.5 -24t-42 -33t-15.5 -40.5q0 -18 8.5 -30
t23.5 -19.5t34.5 -11t40.5 -3.5z" />
    <glyph glyph-name="uni06C1.fina" unicode="&#x6c1;" horiz-adv-x="534" arabic-form="final" 
d="M534 0q-38 0 -66 6.5t-49.5 22.5t-38.5 42.5t-33 67.5q-18 43 -31 57t-36 14q-20 0 -45 -7.5t-52 -20.5t-54 -31t-52 -39l-35 60q25 27 56.5 51t64.5 41t65 27t58 10q41 0 69 -25t51 -82q13 -32 25 -52t26 -31.5t32.5 -16t44.5 -4.5l16 -10v-70z" />
    <glyph glyph-name="uni06C1.medi" unicode="&#x6c1;" horiz-adv-x="489" arabic-form="medial" 
d="M359 -229q-48 9 -89.5 33t-74 58.5t-53.5 77.5t-27 91q-20 -14 -48 -22.5t-57 -8.5h-10l-16 10v70l16 10q31 0 52.5 5t38 18.5t30 37t27.5 59.5l63 -19q-13 -34 -18.5 -62t-5.5 -56q0 -64 32.5 -117.5t89.5 -85.5q-5 17 -7.5 33t-2.5 31q0 75 35 115.5t100 40.5h55
l16 -10v-70l-16 -10h-76q-50 0 -50 -61q0 -13 3 -29t7.5 -32.5t11 -32.5t14.5 -28zM77 -444q-30 24 -43.5 45.5t-13.5 44.5q0 33 26 74t68 73l26 -23q-25 -26 -41 -52.5t-16 -42.5q0 -12 11.5 -27t37.5 -39z" />
    <glyph glyph-name="uni06C1.init" unicode="&#x6c1;" horiz-adv-x="276" arabic-form="initial" 
d="M-16 10v70l16 10q70 0 114 17.5t44 41.5q0 19 -4.5 44t-13 52.5t-19.5 55.5t-24 53l72 40q12 -23 22.5 -52.5t19 -60.5t13 -60.5t4.5 -52.5q0 -87 -56 -127.5t-172 -40.5zM105 -320q-30 24 -43.5 45.5t-13.5 44.5q0 33 26 74t68 73l26 -23q-25 -26 -41 -52.5t-16 -42.5
q0 -12 11.5 -27t37.5 -39z" />
    <glyph glyph-name="uni06C1.isol" unicode="&#x6c1;" horiz-adv-x="433" arabic-form="isolated" 
d="M389 150q0 -72 -46 -114.5t-126 -42.5q-85 0 -129 41.5t-44 119.5q0 49 14 92.5t37.5 76.5t55 52t66.5 19q36 0 67.5 -19t54.5 -52t36.5 -77.5t13.5 -95.5zM321 141q0 35 -7.5 64.5t-21.5 51t-33 33.5t-42 12q-21 0 -40.5 -10.5t-33.5 -28.5t-22.5 -42t-8.5 -51
q0 -43 27 -65.5t78 -22.5q21 0 40 4.5t33 13t22.5 19t8.5 22.5z" />
    <glyph glyph-name="uni06D3.fina" unicode="&#x6d3;" horiz-adv-x="543" arabic-form="final" 
d="M445 -241q-15 -2 -34.5 -3.5t-40.5 -3t-42 -2t-39 -0.5q-146 0 -214.5 39t-68.5 121q0 86 73.5 133t209.5 47h254l16 -10v-70l-16 -10h-294q-83 0 -128 -22t-45 -63q0 -39 50.5 -56.5t162.5 -17.5q20 0 44 1t48 2.5t45.5 3.5t37.5 4zM391 192q-79 -6 -154 -30l-14 36
q14 5 26 9t23 8q-33 19 -33 55q0 32 23 54.5t55 22.5q34 0 56 -25l-20 -29q-15 9 -32 9q-18 0 -29.5 -9t-11.5 -23q0 -15 15.5 -25t41.5 -13q17 3 32 5t29 3z" />
    <glyph glyph-name="uni06D3.isol" unicode="&#x6d3;" horiz-adv-x="627" arabic-form="isolated" 
d="M581 10q-21 -3 -51 -6.5t-64 -5.5t-68.5 -3.5t-65.5 -1.5q-153 0 -223.5 31.5t-70.5 100.5q0 26 16 57.5t42 64t59 63t68.5 54t70 38t62.5 14.5q31 0 50 -29.5t24 -83.5l-56 -17q-6 21 -13 29.5t-18 8.5q-26 0 -64.5 -20.5t-74.5 -50t-62 -60.5t-26 -52q0 -29 53 -42.5
t163 -13.5q29 0 67.5 1.5t76.5 4t71 6t53 6.5zM372 517q-79 -6 -154 -30l-14 36q14 5 26 9t23 8q-33 19 -33 55q0 32 23 54.5t55 22.5q34 0 56 -25l-20 -29q-15 9 -32 9q-18 0 -29.5 -9t-11.5 -23q0 -15 15.5 -25t41.5 -13q17 3 32 5t29 3z" />
    <glyph glyph-name="uni06D2.fina" unicode="&#x6d2;" horiz-adv-x="543" arabic-form="final" 
d="M445 -241q-15 -2 -34.5 -3.5t-40.5 -3t-42 -2t-39 -0.5q-146 0 -214.5 39t-68.5 121q0 86 73.5 133t209.5 47h254l16 -10v-70l-16 -10h-294q-83 0 -128 -22t-45 -63q0 -39 50.5 -56.5t162.5 -17.5q20 0 44 1t48 2.5t45.5 3.5t37.5 4z" />
    <glyph glyph-name="uni06D2.isol" unicode="&#x6d2;" horiz-adv-x="627" arabic-form="isolated" 
d="M581 10q-21 -3 -51 -6.5t-64 -5.5t-68.5 -3.5t-65.5 -1.5q-153 0 -223.5 31.5t-70.5 100.5q0 26 16 57.5t42 64t59 63t68.5 54t70 38t62.5 14.5q31 0 50 -29.5t24 -83.5l-56 -17q-6 21 -13 29.5t-18 8.5q-26 0 -64.5 -20.5t-74.5 -50t-62 -60.5t-26 -52q0 -29 53 -42.5
t163 -13.5q29 0 67.5 1.5t76.5 4t71 6t53 6.5z" />
    <glyph glyph-name="uni06CC.fina" unicode="&#x6cc;" horiz-adv-x="648" arabic-form="final" 
d="M648 0q-17 0 -34 2.5t-34 8.5q5 -18 5 -31q0 -32 -26 -64.5t-67.5 -58t-94 -41.5t-105.5 -16q-55 0 -100.5 16t-78.5 45.5t-51 71t-18 93.5q0 54 20 110t56 104l51 -32q-51 -81 -51 -160q0 -72 49.5 -114.5t133.5 -42.5q39 0 78 9t70.5 24t51 33t19.5 36q0 14 -21 43
t-73 87l59 51q37 -46 73 -65t88 -19l16 -10v-70z" />
    <glyph glyph-name="uni06CC.medi" unicode="&#x6cc;" horiz-adv-x="330" arabic-form="medial" 
d="M330 0q-117 0 -156 67q-20 -32 -65.5 -49.5t-108.5 -17.5l-16 10v70l16 10q65 0 96.5 15t39.5 50l5 27.5t6 33.5t5 34t4 30l68 -8q-5 -42 -9 -77t-4 -43q0 -62 119 -62l16 -10v-70zM102 -206l-62 63l62 63l62 -63zM248 -206l-62 63l62 63l62 -63z" />
    <glyph glyph-name="uni06CC.init" unicode="&#x6cc;" horiz-adv-x="276" arabic-form="initial" 
d="M-16 10v70l16 10q70 0 114 17.5t44 41.5q0 19 -4.5 44t-13 52.5t-19.5 55.5t-24 53l72 40q12 -23 22.5 -52.5t19 -60.5t13 -60.5t4.5 -52.5q0 -87 -56 -127.5t-172 -40.5zM35 -206l-62 63l62 63l62 -63zM181 -206l-62 63l62 63l62 -63z" />
    <glyph glyph-name="uni06CC.isol" unicode="&#x6cc;" horiz-adv-x="670" arabic-form="isolated" 
d="M418 79q-54 17 -80.5 49.5t-26.5 85.5q0 36 13.5 68.5t37 57.5t54 39.5t64.5 14.5q43 0 78.5 -25t56.5 -70l-48 -36q-33 48 -91 48q-19 0 -36.5 -7t-30.5 -18.5t-20.5 -26.5t-7.5 -32q0 -13 3.5 -22t12 -16.5t23 -14t37.5 -13.5l71 -22q48 -15 70.5 -39.5t22.5 -62.5
q0 -45 -28 -87.5t-74.5 -75.5t-105.5 -53.5t-121 -20.5q-55 0 -100.5 16t-78.5 45.5t-51 71t-18 93.5q0 54 20 110t56 104l51 -32q-51 -81 -51 -160q0 -72 49.5 -114.5t133.5 -42.5q43 0 87 11.5t79 29.5t57 40.5t22 45.5q0 13 -11.5 20.5t-46.5 18.5z" />
    <glyph glyph-name="uni06BE.fina" unicode="&#x6be;" horiz-adv-x="571" arabic-form="final" 
d="M571 0h-52q24 -32 24 -78q0 -29 -11.5 -53.5t-31.5 -42.5t-48.5 -28t-61.5 -10q-40 0 -73.5 15t-58.5 43t-41.5 67.5t-21.5 87.5q-13 -1 -26 -1h-27l-16 10v70l16 10h53q6 58 25 112.5t46.5 97t60 68.5t65.5 26q24 0 47 -16t40.5 -42t28.5 -59.5t11 -69.5q0 -69 -43 -117
h95l16 -10v-70zM386 304q-21 0 -41.5 -18t-38 -47.5t-29.5 -67t-16 -77.5q103 7 147.5 33.5t44.5 77.5q0 19 -5.5 37t-14.5 31.5t-21.5 22t-25.5 8.5zM477 -63q0 74 -95 95q-53 -19 -119 -26q10 -63 43.5 -97t87.5 -34q38 0 60.5 17t22.5 45zM142 0q-21 0 -48.5 2t-47.5 5
l-19 93q26 -5 56.5 -7.5t58.5 -2.5l16 -10v-70z" />
    <glyph glyph-name="uni06BE.medi" unicode="&#x6be;" horiz-adv-x="429" arabic-form="medial" 
d="M429 0h-52q24 -32 24 -78q0 -29 -11.5 -53.5t-31.5 -42.5t-48.5 -28t-61.5 -10q-40 0 -73.5 15t-58.5 43t-41.5 67.5t-21.5 87.5q-13 -1 -26 -1h-27l-16 10v70l16 10h53q6 58 25 112.5t46.5 97t60 68.5t65.5 26q24 0 47 -16t40.5 -42t28.5 -59.5t11 -69.5q0 -69 -43 -117
h95l16 -10v-70zM244 304q-21 0 -41.5 -18t-38 -47.5t-29.5 -67t-16 -77.5q103 7 147.5 33.5t44.5 77.5q0 19 -5.5 37t-14.5 31.5t-21.5 22t-25.5 8.5zM335 -63q0 74 -95 95q-53 -19 -119 -26q10 -63 43.5 -97t87.5 -34q38 0 60.5 17t22.5 45z" />
    <glyph glyph-name="uni06BE.init" unicode="&#x6be;" horiz-adv-x="553" arabic-form="initial" 
d="M335 207q0 -70 -49 -116q11 -1 22 -1.5t23 -0.5q50 0 82 14t32 37q0 48 -17.5 92.5t-49.5 83.5t-77.5 69.5t-100.5 49.5l34 77q64 -23 115.5 -60t88 -83.5t56 -101t19.5 -112.5q0 -74 -47 -114.5t-132 -40.5q-34 0 -73 9.5t-74 25.5q-45 -16 -95 -25.5t-92 -9.5l-16 10
v70l16 10q26 0 50 1t46 3q-47 47 -47 113q0 34 11 63t30.5 51t45.5 34.5t56 12.5t56 -12.5t45.5 -34.5t30.5 -51.5t11 -62.5zM112 207q0 -29 21 -52.5t58 -39.5q81 28 81 92q0 34 -23 57.5t-57 23.5t-57 -23t-23 -58z" />
    <glyph glyph-name="uni06BE.isol" unicode="&#x6be;" horiz-adv-x="695" arabic-form="isolated" 
d="M477 207q0 -70 -49 -116q11 -1 22 -1.5t23 -0.5q50 0 82 14t32 37q0 48 -17.5 92.5t-49.5 83.5t-77.5 69.5t-100.5 49.5l34 77q64 -23 115.5 -60t88 -83.5t56 -101t19.5 -112.5q0 -74 -47 -114.5t-132 -40.5q-34 0 -73 9.5t-74 25.5q-45 -16 -95 -25.5t-92 -9.5l-16 10
v70l16 10q26 0 50 1t46 3q-47 47 -47 113q0 34 11 63t30.5 51t45.5 34.5t56 12.5t56 -12.5t45.5 -34.5t30.5 -51.5t11 -62.5zM254 207q0 -29 21 -52.5t58 -39.5q81 28 81 92q0 34 -23 57.5t-57 23.5t-57 -23t-23 -58zM142 0q-21 0 -48.5 2t-47.5 5l-19 93q26 -5 56.5 -7.5
t58.5 -2.5l16 -10v-70z" />
    <glyph glyph-name=".notdef" horiz-adv-x="500" 
d="M50 0v750h400v-750h-400zM400 50v650h-300v-650h300z" />
    <glyph glyph-name="uni0000" horiz-adv-x="0" 
 />
    <glyph glyph-name="uni0000" horiz-adv-x="0" 
 />
    <glyph glyph-name="uni0000" horiz-adv-x="0" 
 />
    <glyph glyph-name="nonmarkingreturn" unicode="&#x9;" horiz-adv-x="181" 
 />
    <glyph glyph-name="nonmarkingreturn" unicode="&#xd;" horiz-adv-x="181" 
 />
    <glyph glyph-name="space" unicode=" " horiz-adv-x="181" 
 />
    <glyph glyph-name="period" unicode="." horiz-adv-x="255" 
d="M71 112h113v-112h-113v112z" />
    <glyph glyph-name="colon" unicode=":" horiz-adv-x="255" 
d="M71 112h113v-112h-113v112zM71 465h113v-112h-113v112z" />
    <glyph glyph-name="comma" unicode="," horiz-adv-x="255" 
d="M111 0h-40v111h113v-110l-69 -118h-55z" />
    <glyph glyph-name="semicolon" unicode=";" horiz-adv-x="255" 
d="M111 0h-40v111h113v-110l-69 -118h-55zM71 465h113v-112h-113v112z" />
    <glyph glyph-name="question" unicode="?" horiz-adv-x="506" 
d="M177 220q0 54 22 97t73 80q16 12 32.5 24.5t29.5 26.5t21 31t8 37q0 38 -31 61.5t-82 23.5q-28 0 -51 -7t-42 -17t-33 -22.5t-24 -22.5l-60 55q9 12 26 28.5t43 31.5t61 26t80 11q49 0 87 -13.5t64.5 -36.5t40 -53.5t13.5 -64.5q0 -29 -7 -51.5t-20 -42t-32 -36.5
t-43 -35q-20 -15 -36 -27.5t-27 -27.5t-17 -33.5t-6 -43.5v-27h-90v28zM166 112h113v-112h-113v112z" />
    <glyph glyph-name="exclam" unicode="!" horiz-adv-x="263" 
d="M81 667h100l-2 -475h-95zM75 112h113v-112h-113v112z" />
    <glyph glyph-name="questiondown" unicode="&#xbf;" horiz-adv-x="506" 
d="M466 -122q-9 -12 -26 -28.5t-43 -31.5t-61 -26t-80 -11q-49 0 -87 13.5t-64.5 36.5t-40 53.5t-13.5 64.5q0 29 7 51.5t20 42t32 36.5t43 35q20 15 36 27.5t27 27.5t17 33t6 44v27h90v-28q0 -54 -22 -97t-73 -80q-17 -12 -33 -24.5t-29 -26.5t-21 -31t-8 -37
q0 -38 31 -61.5t82 -23.5q28 0 51 7t42 17t33 22t24 23zM227 465h113v-112h-113v112z" />
    <glyph glyph-name="exclamdown" unicode="&#xa1;" horiz-adv-x="263" 
d="M83 273h95l3 -475h-100zM75 465h113v-112h-113v112z" />
    <glyph glyph-name="quotesingle" unicode="'" horiz-adv-x="202" 
d="M58 667h86v-221h-86v221z" />
    <glyph glyph-name="quotedbl" unicode="&#x22;" horiz-adv-x="364" 
d="M64 667h86v-221h-86v221zM218 667h86v-221h-86v221z" />
    <glyph glyph-name="ellipsis" unicode="&#x2026;" horiz-adv-x="767" 
d="M71 112h113v-112h-113v112zM327 112h113v-112h-113v112zM583 112h113v-112h-113v112z" />
    <glyph glyph-name="questiondown.cap" horiz-adv-x="506" 
d="M466 80q-9 -12 -26 -28.5t-43 -31.5t-61 -26t-80 -11q-49 0 -87 13.5t-64.5 36.5t-40 53.5t-13.5 64.5q0 29 7 51.5t20 42t32 36.5t43 35q20 15 36 27.5t27 27.5t17 33t6 44v27h90v-28q0 -54 -22 -97t-73 -80q-17 -12 -33 -24.5t-29 -26.5t-21 -31t-8 -37q0 -38 31 -61.5
t82 -23.5q28 0 51 7t42 17t33 22t24 23zM227 667h113v-112h-113v112z" />
    <glyph glyph-name="exclamdown.cap" horiz-adv-x="263" 
d="M83 475h95l3 -475h-100zM75 667h113v-112h-113v112z" />
    <glyph glyph-name="uni00A0" unicode="&#xa0;" horiz-adv-x="181" 
 />
    <glyph glyph-name="uni2000" unicode="&#x2000;" horiz-adv-x="500" 
 />
    <glyph glyph-name="uni2001" unicode="&#x2001;" horiz-adv-x="1000" 
 />
    <glyph glyph-name="uni2002" unicode="&#x2002;" horiz-adv-x="500" 
 />
    <glyph glyph-name="uni2003" unicode="&#x2003;" horiz-adv-x="1000" 
 />
    <glyph glyph-name="uni2004" unicode="&#x2004;" horiz-adv-x="333" 
 />
    <glyph glyph-name="uni2005" unicode="&#x2005;" horiz-adv-x="250" 
 />
    <glyph glyph-name="uni2006" unicode="&#x2006;" horiz-adv-x="166" 
 />
    <glyph glyph-name="uni2007" unicode="&#x2007;" 
 />
    <glyph glyph-name="uni2008" unicode="&#x2008;" horiz-adv-x="255" 
 />
    <glyph glyph-name="uni2009" unicode="&#x2009;" horiz-adv-x="200" 
 />
    <glyph glyph-name="uni200A" unicode="&#x200a;" horiz-adv-x="100" 
 />
    <glyph glyph-name="uni200B" unicode="&#x200b;" horiz-adv-x="0" 
 />
    <glyph glyph-name="uniFEFF" unicode="&#xfeff;" horiz-adv-x="0" 
 />
    <glyph glyph-name="highdef" horiz-adv-x="0" 
d="M-25 1224h50l-25 -50zM0 -636l25 -50h-50z" />
    <glyph glyph-name="zero" unicode="0" 
d="M272 -14q-59 0 -103.5 24t-75 68t-46 106t-15.5 138q0 75 15.5 135t46.5 102.5t75.5 65.5t103.5 23q58 0 103 -23t75.5 -65.5t46 -102.5t15.5 -135q0 -76 -15.5 -138t-46.5 -106t-76 -68t-103 -24zM272 69q36 0 63.5 18.5t46 52t28 80t9.5 102.5q0 55 -9.5 100
t-28.5 76.5t-46 48.5t-63 17t-63 -17t-45.5 -48.5t-28 -76.5t-9.5 -100q0 -56 9.5 -102.5t28 -80t45.5 -52t63 -18.5z" />
    <glyph glyph-name="one" unicode="1" 
d="M141 80h112v453l-130 -70l-37 71l177 97h81v-551h110v-80h-313v80z" />
    <glyph glyph-name="two" unicode="2" 
d="M68 65q0 53 25 93t60 75q43 43 81.5 74t67.5 57t45.5 51.5t16.5 58.5q0 15 -5.5 31t-18.5 29.5t-33 22.5t-50 9q-27 0 -48 -7.5t-37 -18.5t-27 -25t-20 -26l-67 48q10 18 27.5 37.5t42 36t58 27t77.5 10.5q51 0 88.5 -14t61.5 -37.5t36 -53.5t12 -63q0 -35 -12 -65.5
t-32 -56.5t-45.5 -49.5t-52.5 -44.5q-32 -25 -59.5 -48t-48 -45t-32 -44t-11.5 -45h300v-82h-400v65z" />
    <glyph glyph-name="three" unicode="3" 
d="M87 118q25 -20 59 -37.5t86 -17.5q63 0 100 34t37 91q0 51 -31.5 84t-92.5 33q-18 0 -33 -3t-29 -8l-29 47l177 206h-252v83h362v-72l-162 -189q42 0 76 -13t58.5 -37t37.5 -57.5t13 -74.5q0 -50 -18 -88t-49.5 -63.5t-74 -39t-91.5 -13.5q-36 0 -66 6t-54 16t-43 22.5
t-34 25.5z" />
    <glyph glyph-name="four" unicode="4" 
d="M49 208l286 423h91v-422h68v-78h-68v-131h-87v131h-290v77zM339 209v301l-201 -301h201z" />
    <glyph glyph-name="five" unicode="5" 
d="M89 118q28 -23 61.5 -38.5t83.5 -15.5q35 0 61 10.5t43.5 28.5t26 42t8.5 52q0 19 -6 41t-21 40.5t-41 30.5t-66 12q-41 0 -65 -8t-44 -18l-46 35l60 300h309v-84h-246l-29 -165q10 6 32 11.5t53 5.5q45 0 82.5 -13t64.5 -38.5t42 -62t15 -84.5q0 -44 -14 -83t-43 -69
t-74 -47.5t-107 -17.5q-66 0 -112.5 20t-78.5 49z" />
    <glyph glyph-name="six" unicode="6" 
d="M437 534q-3 2 -11.5 7t-22.5 10.5t-32.5 10t-40.5 4.5q-42 0 -74 -18t-54 -48t-34 -68.5t-13 -79.5q22 15 57 32.5t89 17.5q91 0 142.5 -54t51.5 -153q0 -47 -15.5 -86t-43 -67t-65.5 -43.5t-83 -15.5q-106 0 -165.5 75t-59.5 227q0 84 17.5 151t52 114t84.5 72t116 25
q51 0 88.5 -15t56.5 -27zM154 273q0 -99 31 -154.5t102 -55.5q24 0 46 9t39 26t27 42t10 57q0 54 -27.5 89.5t-89.5 35.5q-48 0 -81.5 -14.5t-56.5 -34.5z" />
    <glyph glyph-name="seven" unicode="7" 
d="M140 0q23 71 55 151.5t65.5 156.5t65 139t53.5 99h-310v85h403v-82q-15 -23 -34.5 -62t-42 -86.5t-46 -101.5t-44.5 -107t-39 -103t-29 -89h-97z" />
    <glyph glyph-name="eight" unicode="8" 
d="M273 379q48 15 77 44t29 68q0 37 -29 61.5t-77 24.5t-77 -24.5t-29 -66.5q0 -34 27.5 -63t78.5 -44zM269 302q-27 -7 -51 -19.5t-42 -29t-28.5 -37t-10.5 -44.5q0 -30 12.5 -51.5t32 -35t43.5 -19.5t48 -6t48 6t43.5 19.5t31.5 35t12 51.5q0 24 -11.5 44.5t-31 37
t-44.5 29t-52 19.5zM176 344q-40 21 -68 56t-28 86q0 35 13.5 65t38.5 51.5t60.5 33.5t80.5 12q47 0 83 -12t60 -33t36.5 -49.5t12.5 -61.5q0 -47 -26 -85t-74 -60q18 -8 41.5 -22t44.5 -36t35.5 -51.5t14.5 -67.5q0 -32 -12.5 -65t-40 -60t-71 -44t-104.5 -17
q-63 0 -106.5 17t-70.5 44t-39.5 59.5t-12.5 64.5q0 33 11 60t29.5 49t42.5 38.5t49 27.5z" />
    <glyph glyph-name="nine" unicode="9" 
d="M106 99q3 -2 13 -7.5t25.5 -11.5t35 -10.5t41.5 -4.5q42 0 73 17.5t51.5 46.5t31 67.5t12.5 79.5q-18 -15 -53.5 -32t-94.5 -17q-45 0 -81 15.5t-61.5 43t-39 65.5t-13.5 84q0 47 16 86t44 67.5t66.5 44t83.5 15.5q106 0 165.5 -75.5t59.5 -227.5q0 -83 -16.5 -149.5
t-49.5 -113t-82 -72t-114 -25.5q-26 0 -49.5 4.5t-43.5 10.5t-35 13t-24 13zM390 357q0 98 -31.5 154t-101.5 56q-24 0 -46.5 -8.5t-39.5 -25.5t-28 -42t-11 -57q0 -26 7 -48.5t21.5 -39.5t37.5 -27t56 -10q50 0 81.5 14t54.5 34z" />
    <glyph glyph-name="zero.pnum" horiz-adv-x="569" 
d="M284 -14q-59 0 -103.5 24t-75 68t-46 106t-15.5 138q0 75 15.5 135t46.5 102.5t75.5 65.5t103.5 23q58 0 103 -23t75.5 -65.5t46 -102.5t15.5 -135q0 -76 -15.5 -138t-46.5 -106t-76 -68t-103 -24zM284 69q36 0 63.5 18.5t46 52t28 80t9.5 102.5q0 55 -9.5 100
t-28.5 76.5t-46 48.5t-63 17t-63 -17t-45.5 -48.5t-28 -76.5t-9.5 -100q0 -56 9.5 -102.5t28 -80t45.5 -52t63 -18.5z" />
    <glyph glyph-name="one.pnum" horiz-adv-x="429" 
d="M86 80h112v453l-130 -70l-37 71l177 97h81v-551h110v-80h-313v80z" />
    <glyph glyph-name="two.pnum" horiz-adv-x="500" 
d="M51 65q0 53 25 93t60 75q43 43 81.5 74t67.5 57t45.5 51.5t16.5 58.5q0 15 -5.5 31t-18.5 29.5t-33 22.5t-50 9q-27 0 -48 -7.5t-37 -18.5t-27 -25t-20 -26l-67 48q10 18 27.5 37.5t42 36t58 27t77.5 10.5q51 0 88.5 -14t61.5 -37.5t36 -53.5t12 -63q0 -35 -12 -65.5
t-32 -56.5t-45.5 -49.5t-52.5 -44.5q-32 -25 -59.5 -48t-48 -45t-32 -44t-11.5 -45h300v-82h-400v65z" />
    <glyph glyph-name="three.pnum" horiz-adv-x="507" 
d="M70 118q25 -20 59 -37.5t86 -17.5q63 0 100 34t37 91q0 51 -31.5 84t-92.5 33q-18 0 -33 -3t-29 -8l-29 47l177 206h-252v83h362v-72l-162 -189q42 0 76 -13t58.5 -37t37.5 -57.5t13 -74.5q0 -50 -18 -88t-49.5 -63.5t-74 -39t-91.5 -13.5q-36 0 -66 6t-54 16t-43 22.5
t-34 25.5z" />
    <glyph glyph-name="four.pnum" horiz-adv-x="527" 
d="M43 208l286 423h91v-422h68v-78h-68v-131h-87v131h-290v77zM333 209v301l-201 -301h201z" />
    <glyph glyph-name="five.pnum" horiz-adv-x="511" 
d="M71 118q28 -23 61.5 -38.5t83.5 -15.5q35 0 61 10.5t43.5 28.5t26 42t8.5 52q0 19 -6 41t-21 40.5t-41 30.5t-66 12q-41 0 -65 -8t-44 -18l-46 35l60 300h309v-84h-246l-29 -165q10 6 32 11.5t53 5.5q45 0 82.5 -13t64.5 -38.5t42 -62t15 -84.5q0 -44 -14 -83t-43 -69
t-74 -47.5t-107 -17.5q-66 0 -112.5 20t-78.5 49z" />
    <glyph glyph-name="six.pnum" horiz-adv-x="527" 
d="M424 534q-3 2 -11.5 7t-22.5 10.5t-32.5 10t-40.5 4.5q-42 0 -74 -18t-54 -48t-34 -68.5t-13 -79.5q22 15 57 32.5t89 17.5q91 0 142.5 -54t51.5 -153q0 -47 -15.5 -86t-43 -67t-65.5 -43.5t-83 -15.5q-106 0 -165.5 75t-59.5 227q0 84 17.5 151t52 114t84.5 72t116 25
q51 0 88.5 -15t56.5 -27zM141 273q0 -99 31 -154.5t102 -55.5q24 0 46 9t39 26t27 42t10 57q0 54 -27.5 89.5t-89.5 35.5q-48 0 -81.5 -14.5t-56.5 -34.5z" />
    <glyph glyph-name="seven.pnum" horiz-adv-x="467" 
d="M96 0q23 71 55 151.5t65.5 156.5t65 139t53.5 99h-310v85h403v-82q-15 -23 -34.5 -62t-42 -86.5t-46 -101.5t-44.5 -107t-39 -103t-29 -89h-97z" />
    <glyph glyph-name="eight.pnum" horiz-adv-x="554" 
d="M277 379q48 15 77 44t29 68q0 37 -29 61.5t-77 24.5t-77 -24.5t-29 -66.5q0 -34 27.5 -63t78.5 -44zM273 302q-27 -7 -51 -19.5t-42 -29t-28.5 -37t-10.5 -44.5q0 -30 12.5 -51.5t32 -35t43.5 -19.5t48 -6t48 6t43.5 19.5t31.5 35t12 51.5q0 24 -11.5 44.5t-31 37
t-44.5 29t-52 19.5zM180 344q-40 21 -68 56t-28 86q0 35 13.5 65t38.5 51.5t60.5 33.5t80.5 12q47 0 83 -12t60 -33t36.5 -49.5t12.5 -61.5q0 -47 -26 -85t-74 -60q18 -8 41.5 -22t44.5 -36t35.5 -51.5t14.5 -67.5q0 -32 -12.5 -65t-40 -60t-71 -44t-104.5 -17
q-63 0 -106.5 17t-70.5 44t-39.5 59.5t-12.5 64.5q0 33 11 60t29.5 49t42.5 38.5t49 27.5z" />
    <glyph glyph-name="nine.pnum" horiz-adv-x="530" 
d="M106 99q3 -2 13 -7.5t25.5 -11.5t35 -10.5t41.5 -4.5q42 0 73 17.5t51.5 46.5t31 67.5t12.5 79.5q-18 -15 -53.5 -32t-94.5 -17q-45 0 -81 15.5t-61.5 43t-39 65.5t-13.5 84q0 47 16 86t44 67.5t66.5 44t83.5 15.5q106 0 165.5 -75.5t59.5 -227.5q0 -83 -16.5 -149.5
t-49.5 -113t-82 -72t-114 -25.5q-26 0 -49.5 4.5t-43.5 10.5t-35 13t-24 13zM390 357q0 98 -31.5 154t-101.5 56q-24 0 -46.5 -8.5t-39.5 -25.5t-28 -42t-11 -57q0 -26 7 -48.5t21.5 -39.5t37.5 -27t56 -10q50 0 81.5 14t54.5 34z" />
    <glyph glyph-name="uni2080" unicode="&#x2080;" horiz-adv-x="360" 
d="M178 -99q-68 0 -111.5 46t-43.5 135t43.5 134.5t111.5 45.5q34 0 62.5 -11.5t49 -34t32 -56t11.5 -78.5q0 -89 -43.5 -135t-111.5 -46zM178 -36q14 0 27.5 6t24.5 20t18 36.5t7 55.5t-7 55.5t-18 36t-24.5 19.5t-27.5 6t-28 -6t-25 -19.5t-18 -36t-7 -55.5t7 -55.5
t18 -36.5t25 -20t28 -6z" />
    <glyph glyph-name="uni2081" unicode="&#x2081;" horiz-adv-x="360" 
d="M178 172l-88 -44l-28 57l126 67h67v-341h-77v261z" />
    <glyph glyph-name="uni2082" unicode="&#x2082;" horiz-adv-x="360" 
d="M49 -47q0 26 13 45.5t32.5 35.5t42 30t42 28t32.5 28.5t13 32.5q0 23 -16 33t-36 10q-26 0 -52 -12.5t-44 -28.5l-33 53q22 20 57.5 37t80.5 17q65 0 95.5 -31t30.5 -73q0 -41 -23.5 -66t-53.5 -43.5t-58 -34.5t-37 -39h173v-64h-259v42z" />
    <glyph glyph-name="uni2083" unicode="&#x2083;" horiz-adv-x="360" 
d="M70 -7q17 -14 39 -22t48 -8q31 0 50.5 13.5t19.5 39.5q0 16 -6 26t-16 16t-23 8.5t-27 2.5q-11 0 -23 -1.5t-21 -4.5l-15 31l107 96h-142v62h228v-57l-88 -81q51 -5 76.5 -33t25.5 -70q0 -48 -39.5 -79t-105.5 -31q-38 0 -69 10t-55 27z" />
    <glyph glyph-name="uni2084" unicode="&#x2084;" horiz-adv-x="360" 
d="M35 34l179 218h76v-217h42v-58h-42v-65h-69v65h-186v57zM221 35v144l-120 -144h120z" />
    <glyph glyph-name="uni2085" unicode="&#x2085;" horiz-adv-x="360" 
d="M71 -8q18 -14 40.5 -22t47.5 -8q11 0 24 2.5t24 8.5t18 17t7 28q0 27 -20.5 40.5t-51.5 13.5q-15 0 -30.5 -2.5t-30.5 -9.5l-34 28l33 164h190v-63h-136l-13 -68q12 4 24.5 5t22.5 1q23 0 45 -7t38.5 -20.5t26.5 -33.5t10 -47q0 -24 -10 -46t-28.5 -38.5t-45 -26
t-59.5 -9.5q-35 0 -68 10t-58 28z" />
    <glyph glyph-name="uni2086" unicode="&#x2086;" horiz-adv-x="360" 
d="M272 182q-10 7 -25.5 12t-35.5 5q-42 0 -67.5 -26.5t-28.5 -65.5q17 10 39.5 17t45.5 7q24 0 45.5 -6.5t38 -20.5t26.5 -35.5t10 -50.5q0 -26 -10.5 -47.5t-29 -37t-42.5 -24t-51 -8.5q-31 0 -58 10.5t-46.5 30.5t-31 50.5t-11.5 71.5q0 91 45.5 144.5t123.5 53.5
q33 0 55.5 -8.5t35.5 -16.5zM114 52q0 -43 18 -68t53 -25q27 0 46.5 15.5t19.5 43.5q0 9 -3 19.5t-10.5 18.5t-20 13.5t-30.5 5.5q-19 0 -39.5 -6t-33.5 -17z" />
    <glyph glyph-name="uni2087" unicode="&#x2087;" horiz-adv-x="360" 
d="M90 -89q13 36 30.5 75.5t36 76.5t37 70t33.5 57h-180v62h257v-63q-12 -19 -30 -52.5t-37.5 -72.5t-37 -79.5t-27.5 -73.5h-82z" />
    <glyph glyph-name="uni2088" unicode="&#x2088;" horiz-adv-x="360" 
d="M112 93q-23 11 -39 29.5t-16 46.5q0 44 35 68.5t87 24.5q54 0 89 -24t35 -69q0 -28 -16 -46.5t-39 -29.5q13 -5 26 -13t23.5 -19t17 -25.5t6.5 -32.5q0 -47 -38.5 -74.5t-103.5 -27.5t-102.5 27.5t-37.5 74.5q0 35 22 56.5t51 33.5zM179 67q-25 -7 -44.5 -21.5
t-19.5 -40.5t20.5 -36t43.5 -10q24 0 44.5 10.5t20.5 35.5q0 26 -20.5 40t-44.5 22zM180 117q22 7 38 18.5t16 31.5q0 21 -15.5 32t-39.5 11q-23 0 -38 -11t-15 -32q0 -22 16.5 -33t37.5 -17z" />
    <glyph glyph-name="uni2089" unicode="&#x2089;" horiz-adv-x="360" 
d="M82 -19q11 -7 28.5 -12.5t39.5 -5.5q44 0 66 27t26 66q-17 -11 -40 -17.5t-46 -6.5q-24 0 -45.5 6.5t-38 20.5t-26.5 35.5t-10 50.5q0 26 10.5 47.5t29 37t42.5 24t51 8.5q31 0 58 -10.5t46.5 -31t31 -51t11.5 -71.5q0 -91 -43 -144t-126 -53q-32 0 -56 8t-37 16z
M242 111q0 38 -16.5 65.5t-54.5 27.5q-27 0 -46.5 -15.5t-19.5 -43.5q0 -10 3 -20t10.5 -18.5t20 -13.5t30.5 -5q20 0 41 7t32 16z" />
    <glyph glyph-name="uni2070" unicode="&#x2070;" horiz-adv-x="360" 
d="M178 376q-68 0 -111.5 46t-43.5 135t43.5 134.5t111.5 45.5q34 0 62.5 -11.5t49 -34t32 -56t11.5 -78.5q0 -89 -43.5 -135t-111.5 -46zM178 439q14 0 27.5 6t24.5 20t18 36.5t7 55.5t-7 55.5t-18 36t-24.5 19.5t-27.5 6t-28 -6t-25 -19.5t-18 -36t-7 -55.5t7 -55.5
t18 -36.5t25 -20t28 -6z" />
    <glyph glyph-name="uni00B9" unicode="&#xb9;" horiz-adv-x="360" 
d="M178 647l-88 -44l-28 57l126 67h67v-341h-77v261z" />
    <glyph glyph-name="uni00B2" unicode="&#xb2;" horiz-adv-x="360" 
d="M49 428q0 26 13 45.5t32.5 35.5t42 30t42 28t32.5 28.5t13 32.5q0 23 -16 33t-36 10q-26 0 -52 -12.5t-44 -28.5l-33 53q22 20 57.5 37t80.5 17q65 0 95.5 -31t30.5 -73q0 -41 -23.5 -66t-53.5 -43.5t-58 -34.5t-37 -39h173v-64h-259v42z" />
    <glyph glyph-name="uni00B3" unicode="&#xb3;" horiz-adv-x="360" 
d="M70 468q17 -14 39 -22t48 -8q31 0 50.5 13.5t19.5 39.5q0 16 -6 26t-16 16t-23 8.5t-27 2.5q-11 0 -23 -1.5t-21 -4.5l-15 31l107 96h-142v62h228v-57l-88 -81q51 -5 76.5 -33t25.5 -70q0 -48 -39.5 -79t-105.5 -31q-38 0 -69 10t-55 27z" />
    <glyph glyph-name="uni2074" unicode="&#x2074;" horiz-adv-x="360" 
d="M35 509l179 218h76v-217h42v-58h-42v-65h-69v65h-186v57zM221 510v144l-120 -144h120z" />
    <glyph glyph-name="uni2075" unicode="&#x2075;" horiz-adv-x="360" 
d="M71 467q18 -14 40.5 -22t47.5 -8q11 0 24 2.5t24 8.5t18 17t7 28q0 27 -20.5 40.5t-51.5 13.5q-15 0 -30.5 -2.5t-30.5 -9.5l-34 28l33 164h190v-63h-136l-13 -68q12 4 24.5 5t22.5 1q23 0 45 -7t38.5 -20.5t26.5 -33.5t10 -47q0 -24 -10 -46t-28.5 -38.5t-45 -26
t-59.5 -9.5q-35 0 -68 10t-58 28z" />
    <glyph glyph-name="uni2076" unicode="&#x2076;" horiz-adv-x="360" 
d="M272 657q-10 7 -25.5 12t-35.5 5q-42 0 -67.5 -26.5t-28.5 -65.5q17 10 39.5 17t45.5 7q24 0 45.5 -6.5t38 -20.5t26.5 -35.5t10 -50.5q0 -26 -10.5 -47.5t-29 -37t-42.5 -24t-51 -8.5q-31 0 -58 10.5t-46.5 30.5t-31 50.5t-11.5 71.5q0 91 45.5 144.5t123.5 53.5
q33 0 55.5 -8.5t35.5 -16.5zM114 527q0 -43 18 -68t53 -25q27 0 46.5 15.5t19.5 43.5q0 9 -3 19.5t-10.5 18.5t-20 13.5t-30.5 5.5q-19 0 -39.5 -6t-33.5 -17z" />
    <glyph glyph-name="uni2077" unicode="&#x2077;" horiz-adv-x="360" 
d="M90 386q13 36 30.5 75.5t36 76.5t37 70t33.5 57h-180v62h257v-63q-12 -19 -30 -52.5t-37.5 -72.5t-37 -79.5t-27.5 -73.5h-82z" />
    <glyph glyph-name="uni2078" unicode="&#x2078;" horiz-adv-x="360" 
d="M112 568q-23 11 -39 29.5t-16 46.5q0 44 35 68.5t87 24.5q54 0 89 -24t35 -69q0 -28 -16 -46.5t-39 -29.5q13 -5 26 -13t23.5 -19t17 -25.5t6.5 -32.5q0 -47 -38.5 -74.5t-103.5 -27.5t-102.5 27.5t-37.5 74.5q0 35 22 56.5t51 33.5zM179 542q-25 -7 -44.5 -21.5
t-19.5 -40.5t20.5 -36t43.5 -10q24 0 44.5 10.5t20.5 35.5q0 26 -20.5 40t-44.5 22zM180 592q22 7 38 18.5t16 31.5q0 21 -15.5 32t-39.5 11q-23 0 -38 -11t-15 -32q0 -22 16.5 -33t37.5 -17z" />
    <glyph glyph-name="uni2079" unicode="&#x2079;" horiz-adv-x="360" 
d="M82 456q11 -7 28.5 -12.5t39.5 -5.5q44 0 66 27t26 66q-17 -11 -40 -17.5t-46 -6.5q-24 0 -45.5 6.5t-38 20.5t-26.5 35.5t-10 50.5q0 26 10.5 47.5t29 37t42.5 24t51 8.5q31 0 58 -10.5t46.5 -31t31 -51t11.5 -71.5q0 -91 -43 -144t-126 -53q-32 0 -56 8t-37 16z
M242 586q0 38 -16.5 65.5t-54.5 27.5q-27 0 -46.5 -15.5t-19.5 -43.5q0 -10 3 -20t10.5 -18.5t20 -13.5t30.5 -5q20 0 41 7t32 16z" />
    <glyph glyph-name="zero.dnom" horiz-adv-x="360" 
d="M178 -9q-68 0 -111.5 46t-43.5 135t43.5 134.5t111.5 45.5q34 0 62.5 -11.5t49 -34t32 -56t11.5 -78.5q0 -89 -43.5 -135t-111.5 -46zM178 54q14 0 27.5 6t24.5 20t18 36.5t7 55.5t-7 55.5t-18 36t-24.5 19.5t-27.5 6t-28 -6t-25 -19.5t-18 -36t-7 -55.5t7 -55.5
t18 -36.5t25 -20t28 -6z" />
    <glyph glyph-name="one.dnom" horiz-adv-x="360" 
d="M178 262l-88 -44l-28 57l126 67h67v-341h-77v261z" />
    <glyph glyph-name="two.dnom" horiz-adv-x="360" 
d="M49 43q0 26 13 45.5t32.5 35.5t42 30t42 28t32.5 28.5t13 32.5q0 23 -16 33t-36 10q-26 0 -52 -12.5t-44 -28.5l-33 53q22 20 57.5 37t80.5 17q65 0 95.5 -31t30.5 -73q0 -41 -23.5 -66t-53.5 -43.5t-58 -34.5t-37 -39h173v-64h-259v42z" />
    <glyph glyph-name="three.dnom" horiz-adv-x="360" 
d="M70 83q17 -14 39 -22t48 -8q31 0 50.5 13.5t19.5 39.5q0 16 -6 26t-16 16t-23 8.5t-27 2.5q-11 0 -23 -1.5t-21 -4.5l-15 31l107 96h-142v62h228v-57l-88 -81q51 -5 76.5 -33t25.5 -70q0 -48 -39.5 -79t-105.5 -31q-38 0 -69 10t-55 27z" />
    <glyph glyph-name="four.dnom" horiz-adv-x="360" 
d="M35 124l179 218h76v-217h42v-58h-42v-65h-69v65h-186v57zM221 125v144l-120 -144h120z" />
    <glyph glyph-name="five.dnom" horiz-adv-x="360" 
d="M71 82q18 -14 40.5 -22t47.5 -8q11 0 24 2.5t24 8.5t18 17t7 28q0 27 -20.5 40.5t-51.5 13.5q-15 0 -30.5 -2.5t-30.5 -9.5l-34 28l33 164h190v-63h-136l-13 -68q12 4 24.5 5t22.5 1q23 0 45 -7t38.5 -20.5t26.5 -33.5t10 -47q0 -24 -10 -46t-28.5 -38.5t-45 -26
t-59.5 -9.5q-35 0 -68 10t-58 28z" />
    <glyph glyph-name="six.dnom" horiz-adv-x="360" 
d="M272 272q-10 7 -25.5 12t-35.5 5q-42 0 -67.5 -26.5t-28.5 -65.5q17 10 39.5 17t45.5 7q24 0 45.5 -6.5t38 -20.5t26.5 -35.5t10 -50.5q0 -26 -10.5 -47.5t-29 -37t-42.5 -24t-51 -8.5q-31 0 -58 10.5t-46.5 30.5t-31 50.5t-11.5 71.5q0 91 45.5 144.5t123.5 53.5
q33 0 55.5 -8.5t35.5 -16.5zM114 142q0 -43 18 -68t53 -25q27 0 46.5 15.5t19.5 43.5q0 9 -3 19.5t-10.5 18.5t-20 13.5t-30.5 5.5q-19 0 -39.5 -6t-33.5 -17z" />
    <glyph glyph-name="seven.dnom" horiz-adv-x="360" 
d="M90 1q13 36 30.5 75.5t36 76.5t37 70t33.5 57h-180v62h257v-63q-12 -19 -30 -52.5t-37.5 -72.5t-37 -79.5t-27.5 -73.5h-82z" />
    <glyph glyph-name="eight.dnom" horiz-adv-x="360" 
d="M112 183q-23 11 -39 29.5t-16 46.5q0 44 35 68.5t87 24.5q54 0 89 -24t35 -69q0 -28 -16 -46.5t-39 -29.5q13 -5 26 -13t23.5 -19t17 -25.5t6.5 -32.5q0 -47 -38.5 -74.5t-103.5 -27.5t-102.5 27.5t-37.5 74.5q0 35 22 56.5t51 33.5zM179 157q-25 -7 -44.5 -21.5
t-19.5 -40.5t20.5 -36t43.5 -10q24 0 44.5 10.5t20.5 35.5q0 26 -20.5 40t-44.5 22zM180 207q22 7 38 18.5t16 31.5q0 21 -15.5 32t-39.5 11q-23 0 -38 -11t-15 -32q0 -22 16.5 -33t37.5 -17z" />
    <glyph glyph-name="nine.dnom" horiz-adv-x="360" 
d="M82 71q11 -7 28.5 -12.5t39.5 -5.5q44 0 66 27t26 66q-17 -11 -40 -17.5t-46 -6.5q-24 0 -45.5 6.5t-38 20.5t-26.5 35.5t-10 50.5q0 26 10.5 47.5t29 37t42.5 24t51 8.5q31 0 58 -10.5t46.5 -31t31 -51t11.5 -71.5q0 -91 -43 -144t-126 -53q-32 0 -56 8t-37 16zM242 201
q0 38 -16.5 65.5t-54.5 27.5q-27 0 -46.5 -15.5t-19.5 -43.5q0 -10 3 -20t10.5 -18.5t20 -13.5t30.5 -5q20 0 41 7t32 16z" />
    <glyph glyph-name="zero.numr" horiz-adv-x="360" 
d="M178 286q-68 0 -111.5 46t-43.5 135t43.5 134.5t111.5 45.5q34 0 62.5 -11.5t49 -34t32 -56t11.5 -78.5q0 -89 -43.5 -135t-111.5 -46zM178 349q14 0 27.5 6t24.5 20t18 36.5t7 55.5t-7 55.5t-18 36t-24.5 19.5t-27.5 6t-28 -6t-25 -19.5t-18 -36t-7 -55.5t7 -55.5
t18 -36.5t25 -20t28 -6z" />
    <glyph glyph-name="one.numr" horiz-adv-x="360" 
d="M178 557l-88 -44l-28 57l126 67h67v-341h-77v261z" />
    <glyph glyph-name="two.numr" horiz-adv-x="360" 
d="M49 338q0 26 13 45.5t32.5 35.5t42 30t42 28t32.5 28.5t13 32.5q0 23 -16 33t-36 10q-26 0 -52 -12.5t-44 -28.5l-33 53q22 20 57.5 37t80.5 17q65 0 95.5 -31t30.5 -73q0 -41 -23.5 -66t-53.5 -43.5t-58 -34.5t-37 -39h173v-64h-259v42z" />
    <glyph glyph-name="three.numr" horiz-adv-x="360" 
d="M70 378q17 -14 39 -22t48 -8q31 0 50.5 13.5t19.5 39.5q0 16 -6 26t-16 16t-23 8.5t-27 2.5q-11 0 -23 -1.5t-21 -4.5l-15 31l107 96h-142v62h228v-57l-88 -81q51 -5 76.5 -33t25.5 -70q0 -48 -39.5 -79t-105.5 -31q-38 0 -69 10t-55 27z" />
    <glyph glyph-name="four.numr" horiz-adv-x="360" 
d="M35 419l179 218h76v-217h42v-58h-42v-65h-69v65h-186v57zM221 420v144l-120 -144h120z" />
    <glyph glyph-name="five.numr" horiz-adv-x="360" 
d="M71 377q18 -14 40.5 -22t47.5 -8q11 0 24 2.5t24 8.5t18 17t7 28q0 27 -20.5 40.5t-51.5 13.5q-15 0 -30.5 -2.5t-30.5 -9.5l-34 28l33 164h190v-63h-136l-13 -68q12 4 24.5 5t22.5 1q23 0 45 -7t38.5 -20.5t26.5 -33.5t10 -47q0 -24 -10 -46t-28.5 -38.5t-45 -26
t-59.5 -9.5q-35 0 -68 10t-58 28z" />
    <glyph glyph-name="six.numr" horiz-adv-x="360" 
d="M272 567q-10 7 -25.5 12t-35.5 5q-42 0 -67.5 -26.5t-28.5 -65.5q17 10 39.5 17t45.5 7q24 0 45.5 -6.5t38 -20.5t26.5 -35.5t10 -50.5q0 -26 -10.5 -47.5t-29 -37t-42.5 -24t-51 -8.5q-31 0 -58 10.5t-46.5 30.5t-31 50.5t-11.5 71.5q0 91 45.5 144.5t123.5 53.5
q33 0 55.5 -8.5t35.5 -16.5zM114 437q0 -43 18 -68t53 -25q27 0 46.5 15.5t19.5 43.5q0 9 -3 19.5t-10.5 18.5t-20 13.5t-30.5 5.5q-19 0 -39.5 -6t-33.5 -17z" />
    <glyph glyph-name="seven.numr" horiz-adv-x="360" 
d="M90 296q13 36 30.5 75.5t36 76.5t37 70t33.5 57h-180v62h257v-63q-12 -19 -30 -52.5t-37.5 -72.5t-37 -79.5t-27.5 -73.5h-82z" />
    <glyph glyph-name="eight.numr" horiz-adv-x="360" 
d="M112 478q-23 11 -39 29.5t-16 46.5q0 44 35 68.5t87 24.5q54 0 89 -24t35 -69q0 -28 -16 -46.5t-39 -29.5q13 -5 26 -13t23.5 -19t17 -25.5t6.5 -32.5q0 -47 -38.5 -74.5t-103.5 -27.5t-102.5 27.5t-37.5 74.5q0 35 22 56.5t51 33.5zM179 452q-25 -7 -44.5 -21.5
t-19.5 -40.5t20.5 -36t43.5 -10q24 0 44.5 10.5t20.5 35.5q0 26 -20.5 40t-44.5 22zM180 502q22 7 38 18.5t16 31.5q0 21 -15.5 32t-39.5 11q-23 0 -38 -11t-15 -32q0 -22 16.5 -33t37.5 -17z" />
    <glyph glyph-name="nine.numr" horiz-adv-x="360" 
d="M82 366q11 -7 28.5 -12.5t39.5 -5.5q44 0 66 27t26 66q-17 -11 -40 -17.5t-46 -6.5q-24 0 -45.5 6.5t-38 20.5t-26.5 35.5t-10 50.5q0 26 10.5 47.5t29 37t42.5 24t51 8.5q31 0 58 -10.5t46.5 -31t31 -51t11.5 -71.5q0 -91 -43 -144t-126 -53q-32 0 -56 8t-37 16z
M242 496q0 38 -16.5 65.5t-54.5 27.5q-27 0 -46.5 -15.5t-19.5 -43.5q0 -10 3 -20t10.5 -18.5t20 -13.5t30.5 -5q20 0 41 7t32 16z" />
    <glyph glyph-name="fraction" unicode="&#x2044;" horiz-adv-x="195" 
d="M259 630h85l-405 -630h-85z" />
    <glyph glyph-name="percent" unicode="%" horiz-adv-x="892" 
d="M603 630h85l-405 -630h-85zM689 -8q-68 0 -111.5 46t-43.5 135t43.5 134.5t111.5 45.5q34 0 62.5 -11.5t49 -34t32 -56t11.5 -78.5q0 -89 -43.5 -135t-111.5 -46zM689 55q14 0 27.5 6t24.5 20t18 36.5t7 55.5t-7 55.5t-18 36t-24.5 19.5t-27.5 6t-28 -6t-25 -19.5
t-18 -36t-7 -55.5t7 -55.5t18 -36.5t25 -20t28 -6zM202 286q-68 0 -111.5 46t-43.5 135t43.5 134.5t111.5 45.5q34 0 62.5 -11.5t49 -34t32 -56t11.5 -78.5q0 -89 -43.5 -135t-111.5 -46zM202 349q14 0 27.5 6t24.5 20t18 36.5t7 55.5t-7 55.5t-18 36t-24.5 19.5t-27.5 6
t-28 -6t-25 -19.5t-18 -36t-7 -55.5t7 -55.5t18 -36.5t25 -20t28 -6z" />
    <glyph glyph-name="perthousand" unicode="&#x2030;" horiz-adv-x="1269" 
d="M603 630h85l-405 -630h-85zM689 -8q-68 0 -111.5 46t-43.5 135t43.5 134.5t111.5 45.5q34 0 62.5 -11.5t49 -34t32 -56t11.5 -78.5q0 -89 -43.5 -135t-111.5 -46zM689 55q14 0 27.5 6t24.5 20t18 36.5t7 55.5t-7 55.5t-18 36t-24.5 19.5t-27.5 6t-28 -6t-25 -19.5
t-18 -36t-7 -55.5t7 -55.5t18 -36.5t25 -20t28 -6zM1067 -8q-68 0 -111.5 46t-43.5 135t43.5 134.5t111.5 45.5q34 0 62.5 -11.5t49 -34t32 -56t11.5 -78.5q0 -89 -43.5 -135t-111.5 -46zM1067 55q14 0 27.5 6t24.5 20t18 36.5t7 55.5t-7 55.5t-18 36t-24.5 19.5t-27.5 6
t-28 -6t-25 -19.5t-18 -36t-7 -55.5t7 -55.5t18 -36.5t25 -20t28 -6zM202 286q-68 0 -111.5 46t-43.5 135t43.5 134.5t111.5 45.5q34 0 62.5 -11.5t49 -34t32 -56t11.5 -78.5q0 -89 -43.5 -135t-111.5 -46zM202 349q14 0 27.5 6t24.5 20t18 36.5t7 55.5t-7 55.5t-18 36
t-24.5 19.5t-27.5 6t-28 -6t-25 -19.5t-18 -36t-7 -55.5t7 -55.5t18 -36.5t25 -20t28 -6z" />
    <glyph glyph-name="onehalf" unicode="&#xbd;" horiz-adv-x="892" 
d="M579 630h85l-405 -630h-85zM565 43q0 26 13 45.5t32.5 35.5t42 30t42 28t32.5 28.5t13 32.5q0 23 -16 33t-36 10q-26 0 -52 -12.5t-44 -28.5l-33 53q22 20 57.5 37t80.5 17q65 0 95.5 -31t30.5 -73q0 -41 -23.5 -66t-53.5 -43.5t-58 -34.5t-37 -39h173v-64h-259v42z
M176 557l-88 -44l-28 57l126 67h67v-341h-77v261z" />
    <glyph glyph-name="onethird" unicode="&#x2153;" horiz-adv-x="892" 
d="M585 630h85l-405 -630h-85zM588 83q17 -14 39 -22t48 -8q31 0 50.5 13.5t19.5 39.5q0 16 -6 26t-16 16t-23 8.5t-27 2.5q-11 0 -23 -1.5t-21 -4.5l-15 31l107 96h-142v62h228v-57l-88 -81q51 -5 76.5 -33t25.5 -70q0 -48 -39.5 -79t-105.5 -31q-38 0 -69 10t-55 27z
M178 557l-88 -44l-28 57l126 67h67v-341h-77v261z" />
    <glyph glyph-name="twothirds" unicode="&#x2154;" horiz-adv-x="892" 
d="M610 630h85l-405 -630h-85zM608 83q17 -14 39 -22t48 -8q31 0 50.5 13.5t19.5 39.5q0 16 -6 26t-16 16t-23 8.5t-27 2.5q-11 0 -23 -1.5t-21 -4.5l-15 31l107 96h-142v62h228v-57l-88 -81q51 -5 76.5 -33t25.5 -70q0 -48 -39.5 -79t-105.5 -31q-38 0 -69 10t-55 27z
M55 338q0 26 13 45.5t32.5 35.5t42 30t42 28t32.5 28.5t13 32.5q0 23 -16 33t-36 10q-26 0 -52 -12.5t-44 -28.5l-33 53q22 20 57.5 37t80.5 17q65 0 95.5 -31t30.5 -73q0 -41 -23.5 -66t-53.5 -43.5t-58 -34.5t-37 -39h173v-64h-259v42z" />
    <glyph glyph-name="onequarter" unicode="&#xbc;" horiz-adv-x="892" 
d="M603 630h85l-405 -630h-85zM522 124l179 218h76v-217h42v-58h-42v-65h-69v65h-186v57zM708 125v144l-120 -144h120zM183 557l-88 -44l-28 57l126 67h67v-341h-77v261z" />
    <glyph glyph-name="threequarters" unicode="&#xbe;" horiz-adv-x="892" 
d="M622 630h85l-405 -630h-85zM538 124l179 218h76v-217h42v-58h-42v-65h-69v65h-186v57zM724 125v144l-120 -144h120zM95 378q17 -14 39 -22t48 -8q31 0 50.5 13.5t19.5 39.5q0 16 -6 26t-16 16t-23 8.5t-27 2.5q-11 0 -23 -1.5t-21 -4.5l-15 31l107 96h-142v62h228v-57
l-88 -81q51 -5 76.5 -33t25.5 -70q0 -48 -39.5 -79t-105.5 -31q-38 0 -69 10t-55 27z" />
    <glyph glyph-name="uni2155" unicode="&#x2155;" horiz-adv-x="892" 
d="M586 630h85l-405 -630h-85zM588 82q18 -14 40.5 -22t47.5 -8q11 0 24 2.5t24 8.5t18 17t7 28q0 27 -20.5 40.5t-51.5 13.5q-15 0 -30.5 -2.5t-30.5 -9.5l-34 28l33 164h190v-63h-136l-13 -68q12 4 24.5 5t22.5 1q23 0 45 -7t38.5 -20.5t26.5 -33.5t10 -47q0 -24 -10 -46
t-28.5 -38.5t-45 -26t-59.5 -9.5q-35 0 -68 10t-58 28zM177 557l-88 -44l-28 57l126 67h67v-341h-77v261z" />
    <glyph glyph-name="uni2156" unicode="&#x2156;" horiz-adv-x="892" 
d="M614 630h85l-405 -630h-85zM607 82q18 -14 40.5 -22t47.5 -8q11 0 24 2.5t24 8.5t18 17t7 28q0 27 -20.5 40.5t-51.5 13.5q-15 0 -30.5 -2.5t-30.5 -9.5l-34 28l33 164h190v-63h-136l-13 -68q12 4 24.5 5t22.5 1q23 0 45 -7t38.5 -20.5t26.5 -33.5t10 -47q0 -24 -10 -46
t-28.5 -38.5t-45 -26t-59.5 -9.5q-35 0 -68 10t-58 28zM54 338q0 26 13 45.5t32.5 35.5t42 30t42 28t32.5 28.5t13 32.5q0 23 -16 33t-36 10q-26 0 -52 -12.5t-44 -28.5l-33 53q22 20 57.5 37t80.5 17q65 0 95.5 -31t30.5 -73q0 -41 -23.5 -66t-53.5 -43.5t-58 -34.5
t-37 -39h173v-64h-259v42z" />
    <glyph glyph-name="uni2157" unicode="&#x2157;" horiz-adv-x="892" 
d="M606 630h85l-405 -630h-85zM607 82q18 -14 40.5 -22t47.5 -8q11 0 24 2.5t24 8.5t18 17t7 28q0 27 -20.5 40.5t-51.5 13.5q-15 0 -30.5 -2.5t-30.5 -9.5l-34 28l33 164h190v-63h-136l-13 -68q12 4 24.5 5t22.5 1q23 0 45 -7t38.5 -20.5t26.5 -33.5t10 -47q0 -24 -10 -46
t-28.5 -38.5t-45 -26t-59.5 -9.5q-35 0 -68 10t-58 28zM84 378q17 -14 39 -22t48 -8q31 0 50.5 13.5t19.5 39.5q0 16 -6 26t-16 16t-23 8.5t-27 2.5q-11 0 -23 -1.5t-21 -4.5l-15 31l107 96h-142v62h228v-57l-88 -81q51 -5 76.5 -33t25.5 -70q0 -48 -39.5 -79t-105.5 -31
q-38 0 -69 10t-55 27z" />
    <glyph glyph-name="uni2158" unicode="&#x2158;" horiz-adv-x="892" 
d="M616 630h85l-405 -630h-85zM610 82q18 -14 40.5 -22t47.5 -8q11 0 24 2.5t24 8.5t18 17t7 28q0 27 -20.5 40.5t-51.5 13.5q-15 0 -30.5 -2.5t-30.5 -9.5l-34 28l33 164h190v-63h-136l-13 -68q12 4 24.5 5t22.5 1q23 0 45 -7t38.5 -20.5t26.5 -33.5t10 -47q0 -24 -10 -46
t-28.5 -38.5t-45 -26t-59.5 -9.5q-35 0 -68 10t-58 28zM42 419l179 218h76v-217h42v-58h-42v-65h-69v65h-186v57zM228 420v144l-120 -144h120z" />
    <glyph glyph-name="uni2159" unicode="&#x2159;" horiz-adv-x="892" 
d="M584 630h85l-405 -630h-85zM775 272q-10 7 -25.5 12t-35.5 5q-42 0 -67.5 -26.5t-28.5 -65.5q17 10 39.5 17t45.5 7q24 0 45.5 -6.5t38 -20.5t26.5 -35.5t10 -50.5q0 -26 -10.5 -47.5t-29 -37t-42.5 -24t-51 -8.5q-31 0 -58 10.5t-46.5 30.5t-31 50.5t-11.5 71.5
q0 91 45.5 144.5t123.5 53.5q33 0 55.5 -8.5t35.5 -16.5zM617 142q0 -43 18 -68t53 -25q27 0 46.5 15.5t19.5 43.5q0 9 -3 19.5t-10.5 18.5t-20 13.5t-30.5 5.5q-19 0 -39.5 -6t-33.5 -17zM176 557l-88 -44l-28 57l126 67h67v-341h-77v261z" />
    <glyph glyph-name="uni215A" unicode="&#x215a;" horiz-adv-x="892" 
d="M606 630h85l-405 -630h-85zM792 272q-10 7 -25.5 12t-35.5 5q-42 0 -67.5 -26.5t-28.5 -65.5q17 10 39.5 17t45.5 7q24 0 45.5 -6.5t38 -20.5t26.5 -35.5t10 -50.5q0 -26 -10.5 -47.5t-29 -37t-42.5 -24t-51 -8.5q-31 0 -58 10.5t-46.5 30.5t-31 50.5t-11.5 71.5
q0 91 45.5 144.5t123.5 53.5q33 0 55.5 -8.5t35.5 -16.5zM634 142q0 -43 18 -68t53 -25q27 0 46.5 15.5t19.5 43.5q0 9 -3 19.5t-10.5 18.5t-20 13.5t-30.5 5.5q-19 0 -39.5 -6t-33.5 -17zM84 377q18 -14 40.5 -22t47.5 -8q11 0 24 2.5t24 8.5t18 17t7 28q0 27 -20.5 40.5
t-51.5 13.5q-15 0 -30.5 -2.5t-30.5 -9.5l-34 28l33 164h190v-63h-136l-13 -68q12 4 24.5 5t22.5 1q23 0 45 -7t38.5 -20.5t26.5 -33.5t10 -47q0 -24 -10 -46t-28.5 -38.5t-45 -26t-59.5 -9.5q-35 0 -68 10t-58 28z" />
    <glyph glyph-name="uni2150" unicode="&#x2150;" horiz-adv-x="892" 
d="M582 630h85l-405 -630h-85zM608 1q13 36 30.5 75.5t36 76.5t37 70t33.5 57h-180v62h257v-63q-12 -19 -30 -52.5t-37.5 -72.5t-37 -79.5t-27.5 -73.5h-82zM178 557l-88 -44l-28 57l126 67h67v-341h-77v261z" />
    <glyph glyph-name="uniF507" unicode="&#xf507;" horiz-adv-x="892" 
d="M608 630h85l-405 -630h-85zM627 1q13 36 30.5 75.5t36 76.5t37 70t33.5 57h-180v62h257v-63q-12 -19 -30 -52.5t-37.5 -72.5t-37 -79.5t-27.5 -73.5h-82zM55 338q0 26 13 45.5t32.5 35.5t42 30t42 28t32.5 28.5t13 32.5q0 23 -16 33t-36 10q-26 0 -52 -12.5t-44 -28.5
l-33 53q22 20 57.5 37t80.5 17q65 0 95.5 -31t30.5 -73q0 -41 -23.5 -66t-53.5 -43.5t-58 -34.5t-37 -39h173v-64h-259v42z" />
    <glyph glyph-name="uniF508" unicode="&#xf508;" horiz-adv-x="892" 
d="M598 630h85l-405 -630h-85zM627 1q13 36 30.5 75.5t36 76.5t37 70t33.5 57h-180v62h257v-63q-12 -19 -30 -52.5t-37.5 -72.5t-37 -79.5t-27.5 -73.5h-82zM85 378q17 -14 39 -22t48 -8q31 0 50.5 13.5t19.5 39.5q0 16 -6 26t-16 16t-23 8.5t-27 2.5q-11 0 -23 -1.5
t-21 -4.5l-15 31l107 96h-142v62h228v-57l-88 -81q51 -5 76.5 -33t25.5 -70q0 -48 -39.5 -79t-105.5 -31q-38 0 -69 10t-55 27z" />
    <glyph glyph-name="uniF509" unicode="&#xf509;" horiz-adv-x="892" 
d="M610 630h85l-405 -630h-85zM630 1q13 36 30.5 75.5t36 76.5t37 70t33.5 57h-180v62h257v-63q-12 -19 -30 -52.5t-37.5 -72.5t-37 -79.5t-27.5 -73.5h-82zM44 419l179 218h76v-217h42v-58h-42v-65h-69v65h-186v57zM230 420v144l-120 -144h120z" />
    <glyph glyph-name="uniF50A" unicode="&#xf50a;" horiz-adv-x="892" 
d="M597 630h85l-405 -630h-85zM625 1q13 36 30.5 75.5t36 76.5t37 70t33.5 57h-180v62h257v-63q-12 -19 -30 -52.5t-37.5 -72.5t-37 -79.5t-27.5 -73.5h-82zM86 377q18 -14 40.5 -22t47.5 -8q11 0 24 2.5t24 8.5t18 17t7 28q0 27 -20.5 40.5t-51.5 13.5q-15 0 -30.5 -2.5
t-30.5 -9.5l-34 28l33 164h190v-63h-136l-13 -68q12 4 24.5 5t22.5 1q23 0 45 -7t38.5 -20.5t26.5 -33.5t10 -47q0 -24 -10 -46t-28.5 -38.5t-45 -26t-59.5 -9.5q-35 0 -68 10t-58 28z" />
    <glyph glyph-name="uniF50B" unicode="&#xf50b;" horiz-adv-x="892" 
d="M605 630h85l-405 -630h-85zM629 1q13 36 30.5 75.5t36 76.5t37 70t33.5 57h-180v62h257v-63q-12 -19 -30 -52.5t-37.5 -72.5t-37 -79.5t-27.5 -73.5h-82zM279 567q-10 7 -25.5 12t-35.5 5q-42 0 -67.5 -26.5t-28.5 -65.5q17 10 39.5 17t45.5 7q24 0 45.5 -6.5t38 -20.5
t26.5 -35.5t10 -50.5q0 -26 -10.5 -47.5t-29 -37t-42.5 -24t-51 -8.5q-31 0 -58 10.5t-46.5 30.5t-31 50.5t-11.5 71.5q0 91 45.5 144.5t123.5 53.5q33 0 55.5 -8.5t35.5 -16.5zM121 437q0 -43 18 -68t53 -25q27 0 46.5 15.5t19.5 43.5q0 9 -3 19.5t-10.5 18.5t-20 13.5
t-30.5 5.5q-19 0 -39.5 -6t-33.5 -17z" />
    <glyph glyph-name="oneeighth" unicode="&#x215b;" horiz-adv-x="892" 
d="M578 630h85l-405 -630h-85zM622 183q-23 11 -39 29.5t-16 46.5q0 44 35 68.5t87 24.5q54 0 89 -24t35 -69q0 -28 -16 -46.5t-39 -29.5q13 -5 26 -13t23.5 -19t17 -25.5t6.5 -32.5q0 -47 -38.5 -74.5t-103.5 -27.5t-102.5 27.5t-37.5 74.5q0 35 22 56.5t51 33.5zM689 157
q-25 -7 -44.5 -21.5t-19.5 -40.5t20.5 -36t43.5 -10q24 0 44.5 10.5t20.5 35.5q0 26 -20.5 40t-44.5 22zM690 207q22 7 38 18.5t16 31.5q0 21 -15.5 32t-39.5 11q-23 0 -38 -11t-15 -32q0 -22 16.5 -33t37.5 -17zM170 557l-88 -44l-28 57l126 67h67v-341h-77v261z" />
    <glyph glyph-name="threeeighths" unicode="&#x215c;" horiz-adv-x="892" 
d="M601 630h85l-405 -630h-85zM641 183q-23 11 -39 29.5t-16 46.5q0 44 35 68.5t87 24.5q54 0 89 -24t35 -69q0 -28 -16 -46.5t-39 -29.5q13 -5 26 -13t23.5 -19t17 -25.5t6.5 -32.5q0 -47 -38.5 -74.5t-103.5 -27.5t-102.5 27.5t-37.5 74.5q0 35 22 56.5t51 33.5zM708 157
q-25 -7 -44.5 -21.5t-19.5 -40.5t20.5 -36t43.5 -10q24 0 44.5 10.5t20.5 35.5q0 26 -20.5 40t-44.5 22zM709 207q22 7 38 18.5t16 31.5q0 21 -15.5 32t-39.5 11q-23 0 -38 -11t-15 -32q0 -22 16.5 -33t37.5 -17zM77 378q17 -14 39 -22t48 -8q31 0 50.5 13.5t19.5 39.5
q0 16 -6 26t-16 16t-23 8.5t-27 2.5q-11 0 -23 -1.5t-21 -4.5l-15 31l107 96h-142v62h228v-57l-88 -81q51 -5 76.5 -33t25.5 -70q0 -48 -39.5 -79t-105.5 -31q-38 0 -69 10t-55 27z" />
    <glyph glyph-name="fiveeighths" unicode="&#x215d;" horiz-adv-x="892" 
d="M598 630h85l-405 -630h-85zM639 183q-23 11 -39 29.5t-16 46.5q0 44 35 68.5t87 24.5q54 0 89 -24t35 -69q0 -28 -16 -46.5t-39 -29.5q13 -5 26 -13t23.5 -19t17 -25.5t6.5 -32.5q0 -47 -38.5 -74.5t-103.5 -27.5t-102.5 27.5t-37.5 74.5q0 35 22 56.5t51 33.5zM706 157
q-25 -7 -44.5 -21.5t-19.5 -40.5t20.5 -36t43.5 -10q24 0 44.5 10.5t20.5 35.5q0 26 -20.5 40t-44.5 22zM707 207q22 7 38 18.5t16 31.5q0 21 -15.5 32t-39.5 11q-23 0 -38 -11t-15 -32q0 -22 16.5 -33t37.5 -17zM79 377q18 -14 40.5 -22t47.5 -8q11 0 24 2.5t24 8.5t18 17
t7 28q0 27 -20.5 40.5t-51.5 13.5q-15 0 -30.5 -2.5t-30.5 -9.5l-34 28l33 164h190v-63h-136l-13 -68q12 4 24.5 5t22.5 1q23 0 45 -7t38.5 -20.5t26.5 -33.5t10 -47q0 -24 -10 -46t-28.5 -38.5t-45 -26t-59.5 -9.5q-35 0 -68 10t-58 28z" />
    <glyph glyph-name="seveneighths" unicode="&#x215e;" horiz-adv-x="892" 
d="M573 630h85l-405 -630h-85zM624 183q-23 11 -39 29.5t-16 46.5q0 44 35 68.5t87 24.5q54 0 89 -24t35 -69q0 -28 -16 -46.5t-39 -29.5q13 -5 26 -13t23.5 -19t17 -25.5t6.5 -32.5q0 -47 -38.5 -74.5t-103.5 -27.5t-102.5 27.5t-37.5 74.5q0 35 22 56.5t51 33.5zM691 157
q-25 -7 -44.5 -21.5t-19.5 -40.5t20.5 -36t43.5 -10q24 0 44.5 10.5t20.5 35.5q0 26 -20.5 40t-44.5 22zM692 207q22 7 38 18.5t16 31.5q0 21 -15.5 32t-39.5 11q-23 0 -38 -11t-15 -32q0 -22 16.5 -33t37.5 -17zM101 296q13 36 30.5 75.5t36 76.5t37 70t33.5 57h-180v62
h257v-63q-12 -19 -30 -52.5t-37.5 -72.5t-37 -79.5t-27.5 -73.5h-82z" />
    <glyph glyph-name="uni2151" unicode="&#x2151;" horiz-adv-x="892" 
d="M577 630h85l-405 -630h-85zM598 71q11 -7 28.5 -12.5t39.5 -5.5q44 0 66 27t26 66q-17 -11 -40 -17.5t-46 -6.5q-24 0 -45.5 6.5t-38 20.5t-26.5 35.5t-10 50.5q0 26 10.5 47.5t29 37t42.5 24t51 8.5q31 0 58 -10.5t46.5 -31t31 -51t11.5 -71.5q0 -91 -43 -144t-126 -53
q-32 0 -56 8t-37 16zM758 201q0 38 -16.5 65.5t-54.5 27.5q-27 0 -46.5 -15.5t-19.5 -43.5q0 -10 3 -20t10.5 -18.5t20 -13.5t30.5 -5q20 0 41 7t32 16zM176 557l-88 -44l-28 57l126 67h67v-341h-77v261z" />
    <glyph glyph-name="uniF50D" unicode="&#xf50d;" horiz-adv-x="892" 
d="M602 630h85l-405 -630h-85zM613 71q11 -7 28.5 -12.5t39.5 -5.5q44 0 66 27t26 66q-17 -11 -40 -17.5t-46 -6.5q-24 0 -45.5 6.5t-38 20.5t-26.5 35.5t-10 50.5q0 26 10.5 47.5t29 37t42.5 24t51 8.5q31 0 58 -10.5t46.5 -31t31 -51t11.5 -71.5q0 -91 -43 -144t-126 -53
q-32 0 -56 8t-37 16zM773 201q0 38 -16.5 65.5t-54.5 27.5q-27 0 -46.5 -15.5t-19.5 -43.5q0 -10 3 -20t10.5 -18.5t20 -13.5t30.5 -5q20 0 41 7t32 16zM49 338q0 26 13 45.5t32.5 35.5t42 30t42 28t32.5 28.5t13 32.5q0 23 -16 33t-36 10q-26 0 -52 -12.5t-44 -28.5l-33 53
q22 20 57.5 37t80.5 17q65 0 95.5 -31t30.5 -73q0 -41 -23.5 -66t-53.5 -43.5t-58 -34.5t-37 -39h173v-64h-259v42z" />
    <glyph glyph-name="uniF50E" unicode="&#xf50e;" horiz-adv-x="892" 
d="M607 630h85l-405 -630h-85zM615 71q11 -7 28.5 -12.5t39.5 -5.5q44 0 66 27t26 66q-17 -11 -40 -17.5t-46 -6.5q-24 0 -45.5 6.5t-38 20.5t-26.5 35.5t-10 50.5q0 26 10.5 47.5t29 37t42.5 24t51 8.5q31 0 58 -10.5t46.5 -31t31 -51t11.5 -71.5q0 -91 -43 -144t-126 -53
q-32 0 -56 8t-37 16zM775 201q0 38 -16.5 65.5t-54.5 27.5q-27 0 -46.5 -15.5t-19.5 -43.5q0 -10 3 -20t10.5 -18.5t20 -13.5t30.5 -5q20 0 41 7t32 16zM37 419l179 218h76v-217h42v-58h-42v-65h-69v65h-186v57zM223 420v144l-120 -144h120z" />
    <glyph glyph-name="uniF50F" unicode="&#xf50f;" horiz-adv-x="892" 
d="M596 630h85l-405 -630h-85zM610 71q11 -7 28.5 -12.5t39.5 -5.5q44 0 66 27t26 66q-17 -11 -40 -17.5t-46 -6.5q-24 0 -45.5 6.5t-38 20.5t-26.5 35.5t-10 50.5q0 26 10.5 47.5t29 37t42.5 24t51 8.5q31 0 58 -10.5t46.5 -31t31 -51t11.5 -71.5q0 -91 -43 -144t-126 -53
q-32 0 -56 8t-37 16zM770 201q0 38 -16.5 65.5t-54.5 27.5q-27 0 -46.5 -15.5t-19.5 -43.5q0 -10 3 -20t10.5 -18.5t20 -13.5t30.5 -5q20 0 41 7t32 16zM80 377q18 -14 40.5 -22t47.5 -8q11 0 24 2.5t24 8.5t18 17t7 28q0 27 -20.5 40.5t-51.5 13.5q-15 0 -30.5 -2.5
t-30.5 -9.5l-34 28l33 164h190v-63h-136l-13 -68q12 4 24.5 5t22.5 1q23 0 45 -7t38.5 -20.5t26.5 -33.5t10 -47q0 -24 -10 -46t-28.5 -38.5t-45 -26t-59.5 -9.5q-35 0 -68 10t-58 28z" />
    <glyph glyph-name="uniF510" unicode="&#xf510;" horiz-adv-x="892" 
d="M562 630h85l-405 -630h-85zM590 71q11 -7 28.5 -12.5t39.5 -5.5q44 0 66 27t26 66q-17 -11 -40 -17.5t-46 -6.5q-24 0 -45.5 6.5t-38 20.5t-26.5 35.5t-10 50.5q0 26 10.5 47.5t29 37t42.5 24t51 8.5q31 0 58 -10.5t46.5 -31t31 -51t11.5 -71.5q0 -91 -43 -144t-126 -53
q-32 0 -56 8t-37 16zM750 201q0 38 -16.5 65.5t-54.5 27.5q-27 0 -46.5 -15.5t-19.5 -43.5q0 -10 3 -20t10.5 -18.5t20 -13.5t30.5 -5q20 0 41 7t32 16zM97 296q13 36 30.5 75.5t36 76.5t37 70t33.5 57h-180v62h257v-63q-12 -19 -30 -52.5t-37.5 -72.5t-37 -79.5
t-27.5 -73.5h-82z" />
    <glyph glyph-name="uniF511" unicode="&#xf511;" horiz-adv-x="892" 
d="M607 630h85l-405 -630h-85zM615 71q11 -7 28.5 -12.5t39.5 -5.5q44 0 66 27t26 66q-17 -11 -40 -17.5t-46 -6.5q-24 0 -45.5 6.5t-38 20.5t-26.5 35.5t-10 50.5q0 26 10.5 47.5t29 37t42.5 24t51 8.5q31 0 58 -10.5t46.5 -31t31 -51t11.5 -71.5q0 -91 -43 -144t-126 -53
q-32 0 -56 8t-37 16zM775 201q0 38 -16.5 65.5t-54.5 27.5q-27 0 -46.5 -15.5t-19.5 -43.5q0 -10 3 -20t10.5 -18.5t20 -13.5t30.5 -5q20 0 41 7t32 16zM114 478q-23 11 -39 29.5t-16 46.5q0 44 35 68.5t87 24.5q54 0 89 -24t35 -69q0 -28 -16 -46.5t-39 -29.5q13 -5 26 -13
t23.5 -19t17 -25.5t6.5 -32.5q0 -47 -38.5 -74.5t-103.5 -27.5t-102.5 27.5t-37.5 74.5q0 35 22 56.5t51 33.5zM181 452q-25 -7 -44.5 -21.5t-19.5 -40.5t20.5 -36t43.5 -10q24 0 44.5 10.5t20.5 35.5q0 26 -20.5 40t-44.5 22zM182 502q22 7 38 18.5t16 31.5q0 21 -15.5 32
t-39.5 11q-23 0 -38 -11t-15 -32q0 -22 16.5 -33t37.5 -17z" />
    <glyph glyph-name="dollar" unicode="$" 
d="M95 156q13 -15 28.5 -29.5t34.5 -27t42 -21t51 -11.5v223q-35 10 -69 22.5t-60.5 33t-42.5 51t-16 75.5q0 33 11.5 62t35 51.5t58.5 37t83 18.5v88h62v-88q39 -4 67 -15t48.5 -24.5t33 -26.5t19.5 -22l-64 -57q-11 14 -35 34.5t-69 28.5v-198q37 -9 70.5 -24t59.5 -37.5
t41.5 -55.5t15.5 -78q0 -37 -14 -68t-38.5 -54t-59 -37.5t-75.5 -19.5v-88h-62v86q-43 3 -78 14t-62 27t-47 34.5t-33 35.5zM313 68q51 7 74.5 32t23.5 69q0 37 -20.5 60.5t-77.5 43.5v-205zM251 562q-55 -5 -78 -30.5t-23 -57.5q0 -18 4 -32t15.5 -25.5t31 -21.5t50.5 -19
v186z" />
    <glyph glyph-name="cent" unicode="&#xa2;" 
d="M277 69q-48 6 -86 27t-64.5 53t-40.5 74.5t-14 90.5q0 46 15 88t42 74.5t64.5 54t83.5 28.5v90h61v-89q51 -3 90 -23.5t68 -52.5l-59 -56q-18 22 -42.5 36t-56.5 18v-335q34 4 60.5 18t44.5 37l55 -58q-29 -32 -69 -52.5t-91 -24.5v-86h-61v88zM277 477q-27 -7 -48 -23
t-36 -38t-22.5 -48t-7.5 -54q0 -26 8 -52t22.5 -48t35.5 -39t48 -24v326z" />
    <glyph glyph-name="sterling" unicode="&#xa3;" 
d="M127 287h-73v76h73v81q0 27 7.5 62.5t29 67t61 53t103.5 21.5q36 0 64 -8.5t48.5 -20t34 -23.5t21.5 -19l-58 -64q-18 19 -42.5 35t-67.5 16q-30 0 -50.5 -11.5t-32.5 -30.5t-17 -44t-5 -53v-62h200v-76h-200v-201h289v-86h-385v287z" />
    <glyph glyph-name="yen" unicode="&#xa5;" 
d="M72 186h156v60l-2 26h-154v61h118l-173 298h106l152 -283l151 283h102l-173 -298h122v-61h-157l-2 -26v-60h159v-61h-159v-125h-90v125h-156v61z" />
    <glyph glyph-name="Euro" unicode="&#x20ac;" 
d="M49 273h64q-2 10 -2 22v45q0 11 2 21h-84l20 61h73q10 48 30 89t50.5 71.5t71.5 48t92 17.5q31 0 56.5 -6t46.5 -16t37.5 -22.5t30.5 -25.5l-50 -63q-17 18 -45.5 33.5t-73.5 15.5q-60 0 -98.5 -38t-53.5 -104h220l-20 -61h-210q-1 -4 -1 -21v-45q0 -17 1 -22h224
l-20 -60h-194q16 -66 54 -103.5t98 -37.5q45 0 73 15t46 33l50 -62q-12 -12 -28.5 -24t-37.5 -22t-47 -16.5t-58 -6.5q-51 0 -91.5 17t-71 47t-50.5 71t-30 89h-94z" />
    <glyph glyph-name="uni20BA" unicode="&#x20ba;" 
d="M48 194l-25 56l96 44v87l-71 -33l-25 56l96 44v185h87v-144l139 65l25 -56l-164 -77v-86l139 65l25 -56l-164 -77v-184h14q48 0 84 14t61.5 38.5t42.5 59.5t28 77l80 -21q-29 -126 -106 -188.5t-196 -62.5h-95v227z" />
    <glyph glyph-name="uni20AE" unicode="&#x20ae;" 
d="M319 416l120 61l28 -54l-148 -76v-101l120 62l28 -54l-148 -76v-178h-91v132l-121 -62l-28 54l149 76v101l-121 -62l-28 55l149 75v179h-194v85h479v-85h-194v-132z" />
    <glyph glyph-name="uni20B8" unicode="&#x20b8;" 
d="M36 633h475v-85h-475v85zM36 376v85h475v-85h-192v-376h-91v376h-192z" />
    <glyph glyph-name="uni20BD" unicode="&#x20bd;" 
d="M402 170v-74h-207v-96h-91v96h-82v74h82v83h-82v74h82v303h186q64 0 107 -17.5t68 -45t35.5 -61.5t10.5 -67q0 -45 -16.5 -79.5t-45.5 -58.5t-68.5 -36t-86.5 -12h-99v-83h207zM195 327h95q62 0 92 29t30 80q0 52 -32.5 82t-89.5 30h-95v-221z" />
    <glyph glyph-name="uni20B4" unicode="&#x20b4;" 
d="M468 480q0 -27 -7 -49t-20 -39l64 -12l-10 -58l-110 21q-30 -18 -63 -30q-19 -8 -37 -14.5t-35 -14.5l255 -49l-10 -58l-312 60q-23 -28 -23 -70q0 -48 30.5 -76.5t93.5 -28.5q53 0 89.5 19t62.5 47l53 -57q-34 -35 -84.5 -60.5t-122.5 -25.5q-47 0 -86 11.5t-66.5 34
t-43 56.5t-15.5 79q0 27 6.5 48.5t17.5 39.5l-45 9l10 58l86 -17q18 12 37.5 22t39.5 18l52 20l-225 44l10 58l292 -57q14 14 21.5 30t7.5 39q0 26 -10 43.5t-26 28.5t-36 16t-39 5q-70 0 -123 -56l-53 54q28 34 75 56.5t107 22.5q36 0 70.5 -9.5t61.5 -30t43.5 -52
t16.5 -76.5z" />
    <glyph glyph-name="uni20A8" unicode="&#x20a8;" 
d="M72 399v71h247q-21 95 -149 95h-98v70h426l-23 -70h-115q17 -17 30.5 -40t18.5 -55h89l-23 -70h-65q-8 -77 -60 -118t-132 -48l266 -234h-127l-282 248v54h94q65 0 103 24t48 73h-248z" />
    <glyph glyph-name="currency" unicode="&#xa4;" 
d="M37 158l65 66q-16 23 -24.5 51t-8.5 59q0 60 33 110l-65 65l55 56l65 -65q24 17 53.5 27t61.5 10t61 -9.5t54 -26.5l65 64l55 -56l-65 -65q16 -24 25 -52t9 -58q0 -32 -9 -59.5t-25 -51.5l65 -65l-55 -56l-65 64q-50 -35 -115 -35q-67 0 -115 36l-65 -65zM145 334
q0 -26 10 -49.5t27 -40.5t40.5 -27t49.5 -10t49.5 10t41 27t27.5 40.5t10 49.5t-10 49t-27.5 40.5t-41 27.5t-49.5 10t-49.5 -10t-40.5 -27.5t-27 -40.5t-10 -49z" />
    <glyph glyph-name="asciicircum" unicode="^" 
d="M232 667h81l177 -359h-91l-127 268l-127 -268h-90z" />
    <glyph glyph-name="plus" unicode="+" 
d="M73 360h161v157h78v-157h160v-78h-159v-157h-79v157h-161v78z" />
    <glyph glyph-name="minus" unicode="&#x2212;" 
d="M73 360h399v-78h-399v78z" />
    <glyph glyph-name="plusminus" unicode="&#xb1;" 
d="M73 79h399v-78h-399v78zM73 360h161v157h78v-157h160v-78h-159v-157h-79v157h-161v78z" />
    <glyph glyph-name="equal" unicode="=" 
d="M73 270h399v-78h-399v78zM73 443h399v-78h-399v78z" />
    <glyph glyph-name="notequal" unicode="&#x2260;" 
d="M158 190h-85v78h131l56 96h-187v78h233l66 112l58 -30l-48 -82h90v-78h-136l-56 -96h192v-78h-238l-63 -109l-58 31z" />
    <glyph glyph-name="divide" unicode="&#xf7;" 
d="M73 360h399v-78h-399v78zM228 209h89v-85h-89v85zM228 518h89v-84h-89v84z" />
    <glyph glyph-name="less" unicode="&#x3c;" 
d="M71 349l366 192l34 -68l-295 -153l295 -153l-34 -68l-366 192v58z" />
    <glyph glyph-name="greater" unicode="&#x3e;" 
d="M73 167l295 153l-295 153l34 68l366 -192v-58l-366 -192z" />
    <glyph glyph-name="lessequal" unicode="&#x2264;" 
d="M52 79h399v-78h-399v78zM57 389l366 192l34 -68l-295 -153l295 -153l-34 -68l-366 192v58z" />
    <glyph glyph-name="greaterequal" unicode="&#x2265;" 
d="M95 79h399v-78h-399v78zM89 207l295 153l-295 153l34 68l366 -192v-58l-366 -192z" />
    <glyph glyph-name="asciitilde" unicode="~" 
d="M487 302q-33 -34 -62 -47.5t-61 -13.5q-20 0 -44 5t-46 16t-42.5 18t-47.5 7t-45 -10.5t-41 -27.5l-41 58q28 29 56.5 45t69.5 16q31 0 54.5 -8.5t46.5 -19.5q17 -8 37 -13t40 -5t38.5 7.5t46.5 30.5z" />
    <glyph glyph-name="approxequal" unicode="&#x2248;" 
d="M487 229q-33 -34 -62 -47.5t-61 -13.5q-20 0 -44 5t-46 16t-42.5 18t-47.5 7t-45 -10.5t-41 -27.5l-41 58q28 29 56.5 45t69.5 16q31 0 54.5 -8.5t46.5 -19.5q17 -8 37 -13t40 -5t38.5 7.5t46.5 30.5zM487 406q-33 -34 -62 -47.5t-61 -13.5q-20 0 -44 5t-46 16t-42.5 18
t-47.5 7t-45 -10.5t-41 -27.5l-41 58q28 29 56.5 45t69.5 16q31 0 54.5 -8.5t46.5 -19.5q17 -8 37 -13t40 -5t38.5 7.5t46.5 30.5z" />
    <glyph glyph-name="multiply" unicode="&#xd7;" 
d="M218 320l-120 121l54 55l121 -121l121 122l54 -55l-121 -121l120 -120l-55 -55l-119 121l-122 -122l-55 54z" />
    <glyph glyph-name="underscore" unicode="_" horiz-adv-x="500" 
d="M0 -70h500v-51h-500v51z" />
    <glyph glyph-name="section" unicode="&#xa7;" horiz-adv-x="463" 
d="M171 319q-49 32 -81 75t-32 101q0 37 13 71.5t38 60.5t60 42t79 16q27 0 49.5 -6t40.5 -14t31 -17t21 -15l-45 -68q-26 20 -49.5 28.5t-49.5 8.5q-24 0 -42 -9t-31 -22.5t-19.5 -31t-6.5 -33.5q0 -38 19.5 -63.5t53.5 -47.5l189 -125l-49 -74zM117 -93q28 -20 51 -28.5
t52 -8.5q25 0 43.5 9t31 22.5t18.5 30.5t6 34q0 38 -20 63.5t-53 47.5l-189 125l49 74l190 -123q48 -32 80 -75.5t32 -101.5q0 -37 -12.5 -71t-37 -60t-60 -41.5t-80.5 -15.5q-27 0 -50 5.5t-41.5 14t-32 17.5l-22.5 15z" />
    <glyph glyph-name="degree" unicode="&#xb0;" horiz-adv-x="332" 
d="M29 526q0 29 10.5 53.5t29 42.5t43 28t53.5 10t54 -10t43.5 -28t29 -42.5t10.5 -52.5q0 -29 -10.5 -53.5t-29 -42.5t-43.5 -28t-53 -10q-29 0 -54 10t-43.5 28t-29 42t-10.5 53zM166 453q31 0 51.5 21t20.5 53q0 30 -20.5 51t-52.5 21q-30 0 -50.5 -21t-20.5 -52
t20.5 -52t51.5 -21z" />
    <glyph glyph-name="mu" unicode="&#xb5;" horiz-adv-x="542" 
d="M60 465h90v-273q0 -63 28.5 -94t77.5 -31q32 0 57 12.5t42.5 33t26.5 47t9 55.5v250h89v-414v-20.5t1 -30.5h-85q-2 16 -2.5 29.5t-0.5 36.5q-9 -12 -22 -25.5t-31 -24.5t-41.5 -18.5t-51.5 -7.5q-30 0 -52 7t-45 26v-223h-90v665z" />
    <glyph glyph-name="paragraph" unicode="&#xb6;" horiz-adv-x="536" 
d="M294 305q-50 0 -95.5 8.5t-79.5 29.5t-54 55.5t-20 87.5q0 52 20 87t54 56t79.5 29.5t95.5 8.5v-362zM365 667h92v-789h-92v789zM203 257q14 -5 31.5 -6t32.5 -1h27v-372h-91v379z" />
    <glyph glyph-name="numbersign" unicode="#" horiz-adv-x="746" 
d="M180 164h-119v72h138l41 153h-119v72h138l44 164h82l-44 -164h148l44 164h82l-44 -164h114v-72h-134l-40 -153h113v-72h-133l-44 -164h-81l44 164h-149l-44 -164h-81zM429 236l41 153h-149l-41 -153h149z" />
    <glyph glyph-name="bar" unicode="|" horiz-adv-x="233" 
d="M75 833h83v-997h-83v997z" />
    <glyph glyph-name="brokenbar" unicode="&#xa6;" horiz-adv-x="233" 
d="M75 215h83v-379h-83v379zM75 833h83v-379h-83v379z" />
    <glyph glyph-name="dagger" unicode="&#x2020;" horiz-adv-x="516" 
d="M214 399h-153v75h153v193h88v-193h153v-75h-153v-520h-88v520z" />
    <glyph glyph-name="daggerdbl" unicode="&#x2021;" horiz-adv-x="516" 
d="M214 72h-153v75h153v252h-153v75h153v193h88v-193h153v-75h-153v-252h153v-75h-153v-193h-88v193z" />
    <glyph glyph-name="logicalnot" unicode="&#xac;" 
d="M73 361h399v-214h-79v136h-320v78z" />
    <glyph glyph-name="ampersand" unicode="&#x26;" horiz-adv-x="638" 
d="M441 73q-35 -37 -80.5 -63t-113.5 -26q-51 0 -90.5 14.5t-66 40t-40 59t-13.5 71.5q0 63 34 114t104 99l-12 15q-24 30 -37 62t-13 68q0 30 12 58.5t34.5 50.5t55.5 35t75 13q38 0 65.5 -9.5t48 -25t34 -35t23.5 -40.5l-67 -43q-26 45 -49.5 59.5t-49.5 14.5
q-43 0 -65 -23t-22 -54q0 -27 14.5 -52.5t38.5 -53.5l182 -213l87 111l68 -54l-99 -124l122 -142h-116zM228 319q-52 -36 -73.5 -68.5t-21.5 -76.5q0 -45 30 -75t88 -30q46 0 77.5 20.5t56.5 49.5z" />
    <glyph glyph-name="asterisk" unicode="*" horiz-adv-x="501" 
d="M63 451l125 67l-125 66l36 63l121 -76l-6 143h73l-5 -143l120 76l36 -63l-125 -66l125 -67l-36 -63l-120 76l5 -142h-73l6 142l-121 -76z" />
    <glyph glyph-name="hyphen" unicode="-" horiz-adv-x="439" 
d="M73 323h293v-86h-293v86z" />
    <glyph glyph-name="endash" unicode="&#x2013;" horiz-adv-x="500" 
d="M0 323h500v-86h-500v86z" />
    <glyph glyph-name="emdash" unicode="&#x2014;" horiz-adv-x="1000" 
d="M0 323h1000v-86h-1000v86z" />
    <glyph glyph-name="parenleft" unicode="(" horiz-adv-x="290" 
d="M164 -93q-13 22 -30.5 59.5t-33 88.5t-26.5 114.5t-11 136.5t11 136.5t26.5 114.5t33 89t30.5 60h88q-16 -29 -32.5 -70t-29.5 -92t-21.5 -111t-8.5 -127q0 -66 8.5 -126t21.5 -111t29.5 -92t32.5 -70h-88z" />
    <glyph glyph-name="parenright" unicode=")" horiz-adv-x="290" 
d="M126 706q13 -22 30 -60t33 -89t27 -114t11 -136q0 -74 -11 -137t-27 -114t-33 -89t-30 -60h-88q16 29 32.5 70t29.5 92t21.5 111t8.5 127q0 66 -8.5 126t-21.5 111t-29.5 92t-32.5 70h88z" />
    <glyph glyph-name="slash" unicode="/" horiz-adv-x="406" 
d="M291 685h89l-264 -701h-91z" />
    <glyph glyph-name="backslash" unicode="\" horiz-adv-x="406" 
d="M25 685h89l266 -701h-91z" />
    <glyph glyph-name="bracketleft" unicode="[" horiz-adv-x="315" 
d="M78 706h211v-81h-121v-635h121v-83h-211v799z" />
    <glyph glyph-name="bracketright" unicode="]" horiz-adv-x="315" 
d="M26 -10h121v635h-121v81h211v-799h-211v83z" />
    <glyph glyph-name="braceleft" unicode="{" horiz-adv-x="289" 
d="M107 198q-2 31 -20 54.5t-56 25.5v57q38 2 56 25.5t20 54.5l14 170q4 44 15 73t34 48h93q-19 -18 -33 -47.5t-16 -62.5l-15 -190q-3 -42 -23.5 -66.5t-49.5 -32.5q29 -8 49.5 -33t23.5 -67l15 -190q2 -33 16 -62.5t33 -47.5h-93q-23 19 -34 48t-15 73z" />
    <glyph glyph-name="braceright" unicode="}" horiz-adv-x="289" 
d="M26 -93q19 18 33 47.5t16 62.5l15 190q3 42 23.5 67t49.5 33q-29 8 -49.5 32.5t-23.5 66.5l-15 190q-2 33 -16 62.5t-33 47.5h93q23 -19 34 -48t15 -73l14 -170q2 -31 20 -54.5t56 -25.5v-57q-38 -2 -56 -25.5t-20 -54.5l-14 -170q-4 -44 -15 -73t-34 -48h-93z" />
    <glyph glyph-name="bullet" unicode="&#x2022;" horiz-adv-x="366" 
d="M58 250q0 26 10 48.5t27 39.5t39.5 26.5t48.5 9.5q25 0 48 -10t40 -26.5t27 -39.5t10 -48q0 -26 -10 -48.5t-27 -39.5t-39.5 -27t-48.5 -10t-48.5 10t-39.5 27t-27 39.5t-10 48.5z" />
    <glyph glyph-name="guilsinglleft" unicode="&#x2039;" horiz-adv-x="325" 
d="M63 238l105 193h89l-101 -193l101 -193h-89z" />
    <glyph glyph-name="guilsinglright" unicode="&#x203a;" horiz-adv-x="325" 
d="M169 238l-101 193h89l105 -193l-105 -193h-89z" />
    <glyph glyph-name="guillemotleft" unicode="&#xab;" horiz-adv-x="502" 
d="M65 238l105 193h89l-101 -193l101 -193h-89zM242 238l105 193h89l-101 -193l101 -193h-89z" />
    <glyph glyph-name="guillemotright" unicode="&#xbb;" horiz-adv-x="502" 
d="M171 238l-101 193h89l105 -193l-105 -193h-89zM348 238l-101 193h89l105 -193l-105 -193h-89z" />
    <glyph glyph-name="at" unicode="@" horiz-adv-x="956" 
d="M183 -14q-23 17 -47 45t-43.5 65.5t-32 84t-12.5 100.5q0 102 36 178t96 126.5t137.5 75t161.5 24.5q91 0 170 -24.5t136.5 -73t90.5 -121.5t33 -170q0 -92 -21 -152t-51.5 -95.5t-66 -50t-65.5 -14.5q-16 0 -32.5 3.5t-31 11t-25.5 20.5t-17 33q-41 -41 -83 -54t-87 -13
q-26 0 -54 8t-51 26t-38 46t-15 67q0 75 52.5 120.5t151.5 45.5q38 0 66.5 -2t45.5 -4v17q0 48 -30.5 70.5t-82.5 22.5q-54 0 -85.5 -14.5t-52.5 -29.5l-43 62q13 11 30.5 21.5t40.5 19t52.5 14t67.5 5.5q88 0 139.5 -43t51.5 -124v-201q0 -28 12.5 -39.5t31.5 -11.5
q17 0 36 12.5t34.5 40.5t25.5 73.5t10 111.5q0 82 -28.5 141t-76.5 97t-111.5 56t-132.5 18q-59 0 -119.5 -17t-109.5 -55.5t-80.5 -100.5t-31.5 -152q0 -51 10.5 -91t26.5 -70t33.5 -51t32.5 -34zM587 220q-10 2 -37 4.5t-69 2.5q-36 0 -60 -9t-37.5 -22.5t-19 -29.5
t-5.5 -31q0 -35 25.5 -55t72.5 -20q25 0 48.5 8t41.5 22.5t29 33.5t11 40v56z" />
    <glyph glyph-name="at.alt" horiz-adv-x="846" 
d="M358 338h-275q0 89 29.5 153.5t77.5 106t110 61.5t127 20q77 0 142.5 -23.5t113.5 -69.5t75.5 -114t27.5 -156q0 -87 -20 -149t-54.5 -102t-80.5 -59t-98 -19q-60 0 -99 22.5t-57 58.5q-32 -40 -69 -60t-94 -20q-29 0 -57.5 7.5t-52 24t-38 42.5t-14.5 64q0 72 50 112
t148 40q29 0 60 -2.5t48 -4.5v67zM358 409v94h85v-94h126v-71h-126v-179q0 -29 8 -47.5t21.5 -29.5t30.5 -15.5t36 -4.5q40 0 71 18.5t52 53t31.5 83t10.5 107.5q0 75 -23 128t-61 87t-88 49.5t-105 15.5q-63 0 -110 -19t-78.5 -47.5t-47.5 -63t-17 -65.5h184zM358 201
q-15 2 -44 4t-58 2q-36 0 -58.5 -7t-35.5 -18t-18 -25t-5 -29q0 -32 24 -48.5t66 -16.5q55 0 92 28t37 77v33z" />
    <glyph glyph-name="periodcentered" unicode="&#xb7;" horiz-adv-x="255" 
d="M71 288h113v-112h-113v112z" />
    <glyph glyph-name="hyphen.case" horiz-adv-x="439" 
d="M73 376h293v-86h-293v86z" />
    <glyph glyph-name="endash.case" horiz-adv-x="500" 
d="M0 376h500v-86h-500v86z" />
    <glyph glyph-name="emdash.case" horiz-adv-x="1000" 
d="M0 376h1000v-86h-1000v86z" />
    <glyph glyph-name="parenleft.case" horiz-adv-x="290" 
d="M164 -67q-13 22 -30.5 59.5t-33 88.5t-26.5 114.5t-11 136.5t11 136.5t26.5 114.5t33 89t30.5 60h88q-16 -29 -32.5 -70t-29.5 -92t-21.5 -111t-8.5 -127q0 -66 8.5 -126t21.5 -111t29.5 -92t32.5 -70h-88z" />
    <glyph glyph-name="parenright.case" horiz-adv-x="290" 
d="M126 732q13 -22 30 -60t33 -89t27 -114t11 -136q0 -74 -11 -137t-27 -114t-33 -89t-30 -60h-88q16 29 32.5 70t29.5 92t21.5 111t8.5 127q0 66 -8.5 126t-21.5 111t-29.5 92t-32.5 70h88z" />
    <glyph glyph-name="slash.case" horiz-adv-x="406" 
d="M291 685h89l-264 -701h-91z" />
    <glyph glyph-name="backslash.case" horiz-adv-x="406" 
d="M25 685h89l266 -701h-91z" />
    <glyph glyph-name="bracketleft.case" horiz-adv-x="315" 
d="M78 732h211v-81h-121v-635h121v-83h-211v799z" />
    <glyph glyph-name="bracketright.case" horiz-adv-x="316" 
d="M26 16h121v635h-121v81h211v-799h-211v83z" />
    <glyph glyph-name="braceleft.case" horiz-adv-x="289" 
d="M107 224q-2 31 -20 54.5t-56 25.5v57q38 2 56 25.5t20 54.5l14 170q4 44 15 73t34 48h93q-19 -18 -33 -47.5t-16 -62.5l-15 -190q-3 -42 -23.5 -66.5t-49.5 -32.5q29 -8 49.5 -33t23.5 -67l15 -190q2 -33 16 -62.5t33 -47.5h-93q-23 19 -34 48t-15 73z" />
    <glyph glyph-name="braceright.case" horiz-adv-x="289" 
d="M26 -67q19 18 33 47.5t16 62.5l15 190q3 42 23.5 67t49.5 33q-29 8 -49.5 32.5t-23.5 66.5l-15 190q-2 33 -16 62.5t-33 47.5h93q23 -19 34 -48t15 -73l14 -170q2 -31 20 -54.5t56 -25.5v-57q-38 -2 -56 -25.5t-20 -54.5l-14 -170q-4 -44 -15 -73t-34 -48h-93z" />
    <glyph glyph-name="bullet.case" horiz-adv-x="366" 
d="M58 345q0 26 10 48.5t27 39.5t39.5 26.5t48.5 9.5q25 0 48 -10t40 -26.5t27 -39.5t10 -48q0 -26 -10 -48.5t-27 -39.5t-39.5 -27t-48.5 -10t-48.5 10t-39.5 27t-27 39.5t-10 48.5z" />
    <glyph glyph-name="guilsinglleft.case" horiz-adv-x="325" 
d="M63 333l105 193h89l-101 -193l101 -193h-89z" />
    <glyph glyph-name="guilsinglright.case" horiz-adv-x="325" 
d="M169 333l-101 193h89l105 -193l-105 -193h-89z" />
    <glyph glyph-name="guillemotleft.case" horiz-adv-x="502" 
d="M65 333l105 193h89l-101 -193l101 -193h-89zM242 333l105 193h89l-101 -193l101 -193h-89z" />
    <glyph glyph-name="guillemotright.case" horiz-adv-x="502" 
d="M171 333l-101 193h89l105 -193l-105 -193h-89zM348 333l-101 193h89l105 -193l-105 -193h-89z" />
    <glyph glyph-name="at.case" horiz-adv-x="956" 
d="M183 6q-23 17 -47 45t-43.5 65.5t-32 84t-12.5 100.5q0 102 36 178t96 126.5t137.5 75t161.5 24.5q91 0 170 -24.5t136.5 -73t90.5 -121.5t33 -170q0 -92 -21 -152t-51.5 -95.5t-66 -50t-65.5 -14.5q-16 0 -32.5 3.5t-31 11t-25.5 20.5t-17 33q-41 -41 -83 -54t-87 -13
q-26 0 -54 8t-51 26t-38 46t-15 67q0 75 52.5 120.5t151.5 45.5q38 0 66.5 -2t45.5 -4v17q0 48 -30.5 70.5t-82.5 22.5q-54 0 -85.5 -14.5t-52.5 -29.5l-43 62q13 11 30.5 21.5t40.5 19t52.5 14t67.5 5.5q88 0 139.5 -43t51.5 -124v-201q0 -28 12.5 -39.5t31.5 -11.5
q17 0 36 12.5t34.5 40.5t25.5 73.5t10 111.5q0 82 -28.5 141t-76.5 97t-111.5 56t-132.5 18q-59 0 -119.5 -17t-109.5 -55.5t-80.5 -100.5t-31.5 -152q0 -51 10.5 -91t26.5 -70t33.5 -51t32.5 -34zM587 240q-10 2 -37 4.5t-69 2.5q-36 0 -60 -9t-37.5 -22.5t-19 -29.5
t-5.5 -31q0 -35 25.5 -55t72.5 -20q25 0 48.5 8t41.5 22.5t29 33.5t11 40v56z" />
    <glyph glyph-name="periodcentered.case" horiz-adv-x="255" 
d="M71 380h113v-112h-113v112z" />
    <glyph glyph-name="uni2010" unicode="&#x2010;" horiz-adv-x="439" 
d="M73 323h293v-86h-293v86z" />
    <glyph glyph-name="figuredash" unicode="&#x2012;" horiz-adv-x="500" 
d="M0 323h500v-86h-500v86z" />
    <glyph glyph-name="uni2015" unicode="&#x2015;" horiz-adv-x="1000" 
d="M0 323h1000v-86h-1000v86z" />
    <glyph glyph-name="uni00AD" unicode="&#xad;" horiz-adv-x="439" 
d="M73 323h293v-86h-293v86z" />
    <glyph glyph-name="A" unicode="A" horiz-adv-x="644" 
d="M273 667h98l261 -667h-107l-69 186h-274l-69 -186h-101zM427 267l-108 293l-109 -293h217z" />
    <glyph glyph-name="B" unicode="B" horiz-adv-x="590" 
d="M76 667h226q52 0 90 -13.5t63 -36.5t37.5 -54t12.5 -66q0 -32 -11 -57t-27 -43.5t-35.5 -29.5t-35.5 -14q20 -3 45 -12.5t47 -28.5t37 -49.5t15 -75.5q0 -54 -19.5 -89.5t-53 -57.5t-79.5 -31t-98 -9h-214v667zM285 83q26 0 54 3t51.5 14t38.5 32.5t15 59.5
q0 36 -14.5 58t-37 35t-49.5 17.5t-52 4.5h-122v-224h116zM288 389q22 0 44 5.5t40 17.5t29 31t11 46q0 30 -11 48.5t-29 29t-40 14t-44 3.5h-119v-195h119z" />
    <glyph glyph-name="C" unicode="C" horiz-adv-x="678" 
d="M643 117q-11 -18 -34 -41t-56 -43.5t-76 -34.5t-95 -14q-74 0 -135 26t-105 72.5t-68.5 110t-24.5 138.5q0 73 24.5 137t68.5 112t105.5 75.5t136.5 27.5q53 0 95 -13t73.5 -32.5t54 -42.5t36.5 -44l-68 -58q-12 17 -28.5 35.5t-39.5 33.5t-53 25t-69 10q-55 0 -98.5 -21
t-74 -57t-46.5 -84t-16 -102t16.5 -101.5t46.5 -82.5t73 -55t96 -20q45 0 77.5 11.5t55 27.5t37 32.5t24.5 27.5z" />
    <glyph glyph-name="D" unicode="D" horiz-adv-x="710" 
d="M76 667h223q79 0 145.5 -19.5t114.5 -61t75 -104.5t27 -150q0 -84 -27 -146.5t-75 -104t-115 -61.5t-146 -20h-222v667zM296 86q125 0 194.5 61.5t69.5 182.5q0 122 -67 186.5t-200 64.5h-121v-495h124z" />
    <glyph glyph-name="E" unicode="E" horiz-adv-x="564" 
d="M76 667h420v-85h-324v-194h244v-86h-244v-216h348v-86h-444v667z" />
    <glyph glyph-name="F" unicode="F" horiz-adv-x="529" 
d="M76 667h419v-86h-323v-204h246v-85h-246v-292h-96v667z" />
    <glyph glyph-name="G" unicode="G" horiz-adv-x="721" 
d="M417 339h234v-266q-19 -17 -43.5 -33t-57 -28.5t-72.5 -20t-90 -7.5q-78 0 -140.5 26.5t-107 73t-68 110t-23.5 138.5q0 73 24.5 137t68.5 111.5t105.5 75t136.5 27.5q53 0 95 -12.5t73.5 -32t53.5 -42.5t37 -44l-68 -58q-12 17 -29 35.5t-40 33.5t-52.5 25t-67.5 10
q-55 0 -99 -21t-74.5 -57t-47 -84.5t-16.5 -102.5q0 -58 18 -106t50.5 -82.5t76.5 -54t97 -19.5q58 0 98.5 13t69.5 36v136h-142v83z" />
    <glyph glyph-name="H" unicode="H" horiz-adv-x="709" 
d="M76 667h96v-279h365v279h96v-667h-96v302h-365v-302h-96v667z" />
    <glyph glyph-name="I" unicode="I" horiz-adv-x="248" 
d="M76 667h96v-667h-96v667z" />
    <glyph glyph-name="J" unicode="J" horiz-adv-x="494" 
d="M82 135q29 -33 58.5 -48t70.5 -15q24 0 44.5 7.5t36.5 23.5t25 41t9 60v463h96v-471q0 -58 -17 -98.5t-45.5 -66t-66.5 -37t-80 -11.5q-74 0 -121 26t-78 66z" />
    <glyph glyph-name="K" unicode="K" horiz-adv-x="603" 
d="M76 667h95v-303l279 303h110l-248 -272l278 -395h-115l-228 327l-76 -82v-245h-95v667z" />
    <glyph glyph-name="L" unicode="L" horiz-adv-x="548" 
d="M76 667h96v-582h347v-85h-443v667z" />
    <glyph glyph-name="M" unicode="M" horiz-adv-x="787" 
d="M99 667h92l203 -347l203 347h90l31 -667h-94l-22 512l-188 -315h-48l-185 311l-23 -508h-90z" />
    <glyph glyph-name="N" unicode="N" horiz-adv-x="707" 
d="M76 667h97l364 -521v521h94v-667h-96l-365 522v-522h-94v667z" />
    <glyph glyph-name="O" unicode="O" horiz-adv-x="779" 
d="M389 -17q-72 0 -134 27.5t-108 75t-72 111.5t-26 137t26 136.5t71.5 111t108 75t134.5 27.5t134.5 -27.5t108.5 -75t72 -111t26 -136.5t-26 -137t-72 -111.5t-108.5 -75t-134.5 -27.5zM389 73q55 0 99.5 21t76 57t48.5 83.5t17 100.5q0 54 -17 101.5t-48.5 83.5t-76 56.5
t-99.5 20.5t-99 -20.5t-75.5 -56.5t-48.5 -83.5t-17 -101.5q0 -53 17 -100.5t48.5 -83.5t75.5 -57t99 -21z" />
    <glyph glyph-name="P" unicode="P" horiz-adv-x="566" 
d="M76 667h211q68 0 112.5 -19t71 -48t37 -65t10.5 -70q0 -50 -17 -88t-47 -63.5t-71.5 -38.5t-90.5 -13h-121v-262h-95v667zM291 344q62 0 95.5 31.5t33.5 87.5q0 57 -34.5 89.5t-94.5 32.5h-120v-241h120z" />
    <glyph glyph-name="Q" unicode="Q" horiz-adv-x="780" 
d="M550 22q-35 -18 -75.5 -28.5t-84.5 -10.5q-72 0 -134.5 27.5t-108.5 74.5t-72 111t-26 137t26 137t72 111.5t108.5 75t134.5 27.5t134.5 -27.5t108.5 -75t72 -111.5t26 -137q0 -81 -31.5 -149.5t-86.5 -116.5l80 -97l-59 -50zM409 197l60 50l85 -106q36 35 56 85.5
t20 108.5q0 54 -17 101.5t-48.5 83t-75.5 56.5t-99 21t-99 -21t-75.5 -56.5t-48.5 -83t-17 -101.5t17 -101.5t48.5 -83.5t75.5 -57t99 -21t102 22z" />
    <glyph glyph-name="R" unicode="R" horiz-adv-x="590" 
d="M76 667h213q64 0 108 -17.5t71.5 -45t40 -62.5t12.5 -71q0 -64 -30 -113t-93 -73l156 -285h-108l-143 273h-134v-273h-93v667zM297 354q63 0 94.5 31t31.5 83q0 55 -34 85.5t-94 30.5h-126v-230h128z" />
    <glyph glyph-name="S" unicode="S" horiz-adv-x="582" 
d="M105 162q14 -16 31.5 -32.5t39.5 -29.5t49 -21t59 -8q66 0 103 30t37 81q0 55 -42 82.5t-121 44.5q-43 9 -78 25t-60.5 40t-39.5 55.5t-14 71.5q0 37 14 70t42 58t70 40t97 15q49 0 84.5 -10.5t60.5 -25.5t40 -31t23 -26l-64 -59q-6 7 -18 18.5t-30.5 22.5t-43 18.5
t-56.5 7.5t-55 -8.5t-38 -22t-22 -30.5t-7 -34q0 -25 10.5 -42.5t30.5 -31t49.5 -23t67.5 -18.5q37 -9 72.5 -23.5t63.5 -39t44.5 -60t16.5 -86.5q0 -43 -18 -79t-49.5 -62.5t-74.5 -41t-93 -14.5q-47 0 -85.5 11t-70 28t-55 37.5t-38.5 40.5z" />
    <glyph glyph-name="T" unicode="T" horiz-adv-x="621" 
d="M263 583h-239v84h573v-84h-238v-583h-96v583z" />
    <glyph glyph-name="U" unicode="U" horiz-adv-x="673" 
d="M71 667h96v-390q0 -45 8 -82.5t27.5 -64.5t52 -41.5t82.5 -14.5q49 0 81.5 14.5t52 41.5t27.5 64.5t8 82.5v390h96v-413q0 -57 -16 -106.5t-48.5 -86t-82.5 -57.5t-118 -21t-118 21t-83 57.5t-49 86t-16 106.5v413z" />
    <glyph glyph-name="V" unicode="V" horiz-adv-x="638" 
d="M12 667h107l203 -548l203 548h101l-258 -667h-98z" />
    <glyph glyph-name="W" unicode="W" horiz-adv-x="878" 
d="M18 667h106l128 -538l145 518h93l142 -517l128 537h100l-179 -667h-102l-139 493l-143 -493h-101z" />
    <glyph glyph-name="X" unicode="X" horiz-adv-x="607" 
d="M247 345l-220 322h116l162 -243l160 243h105l-214 -319l237 -348h-115l-179 269l-179 -269h-106z" />
    <glyph glyph-name="Y" unicode="Y" horiz-adv-x="590" 
d="M246 298l-230 369h107l174 -285l174 285h103l-231 -369v-298h-97v298z" />
    <glyph glyph-name="Z" unicode="Z" horiz-adv-x="641" 
d="M51 84l415 498h-395v85h512v-85l-410 -497h417v-85h-539v84z" />
    <glyph glyph-name="a" unicode="a" horiz-adv-x="499" 
d="M353 56q-26 -35 -68.5 -52t-87.5 -17q-29 0 -57.5 7.5t-52 25t-38 45t-14.5 67.5q0 75 52.5 120t151.5 45q16 0 34 -1t34 -2t28 -2t17 -2v17q0 52 -31.5 74.5t-85.5 22.5q-53 0 -84 -14.5t-52 -29.5l-42 61q12 10 29 20t40 18.5t52 14t67 5.5q90 0 141.5 -43.5
t51.5 -123.5v-271v-17.5t1 -23.5h-84zM352 220q-4 1 -15.5 2.5t-26.5 2.5t-32 2t-33 1q-38 0 -61.5 -9t-37 -22.5t-18.5 -30t-5 -31.5q0 -38 26 -57.5t72 -19.5q26 0 49.5 9t41.5 24t29 35t11 41v53z" />
    <glyph glyph-name="b" unicode="b" horiz-adv-x="548" 
d="M62 667h90v-253q7 9 19.5 20t30.5 20.5t41.5 15.5t52.5 6q52 0 91.5 -18.5t66.5 -51t40.5 -76.5t13.5 -94q0 -55 -19 -101t-53.5 -79t-82.5 -51.5t-106 -18.5q-57 0 -106 9t-79 21v651zM151 77q14 -4 34.5 -8.5t60.5 -4.5q39 0 70 12.5t53.5 35t34.5 54t12 68.5
q0 32 -7.5 61.5t-24 52t-41.5 36t-61 13.5q-33 0 -57.5 -11.5t-41 -30t-24.5 -43t-8 -50.5v-185z" />
    <glyph glyph-name="c" unicode="c" horiz-adv-x="493" 
d="M466 64q-31 -35 -76.5 -56.5t-105.5 -21.5q-56 0 -101.5 18.5t-77 51t-48.5 78t-17 99.5q0 51 18 96t50.5 78.5t77 53t98.5 19.5q59 0 104 -21t77 -57l-59 -57q-21 26 -51 41t-71 15q-36 0 -64.5 -13.5t-48 -37t-30 -54t-10.5 -63.5q0 -32 10.5 -62.5t30 -54t48 -37.5
t64.5 -14q41 0 73.5 15.5t53.5 41.5z" />
    <glyph glyph-name="d" unicode="d" horiz-adv-x="550" 
d="M397 362q-18 15 -46 25t-68 10q-33 0 -60.5 -12t-48 -34t-32 -54t-11.5 -72q0 -33 8 -62.5t24.5 -51.5t42 -34.5t60.5 -12.5t60 13t40.5 32.5t23 43t7.5 43.5v166zM397 59q-5 -6 -16.5 -18.5t-30.5 -24.5t-44.5 -21t-59.5 -9q-44 0 -82 17t-66 48t-43.5 75.5t-15.5 99.5
q0 66 23 113.5t58.5 78t77 44.5t78.5 14q38 0 65.5 -8t55.5 -22v221h90v-620v-18.5t1 -28.5h-88z" />
    <glyph glyph-name="e" unicode="e" horiz-adv-x="536" 
d="M486 68q-8 -9 -24 -23t-41.5 -27t-60 -22.5t-78.5 -9.5q-54 0 -99 18t-77 51t-49.5 79t-17.5 102q0 51 17 95.5t48 77t73.5 51.5t93.5 19q60 0 103 -23t70.5 -61t40.5 -87t13 -102h-367q1 -31 13.5 -57t33.5 -45t48 -30t57 -11q59 0 97 20t55 39zM405 273q-4 54 -38 92
t-96 38q-32 0 -57.5 -11t-43.5 -29t-28 -41.5t-11 -48.5h274z" />
    <glyph glyph-name="f" unicode="f" horiz-adv-x="330" 
d="M97 390h-84v75h84v38q0 47 13.5 81.5t36 56.5t51.5 32.5t61 10.5q37 0 72.5 -11.5t65.5 -39.5l-45 -58q-37 31 -79 31q-39 0 -62.5 -25t-23.5 -86v-30h133v-75h-133v-390h-90v390z" />
    <glyph glyph-name="g" unicode="g" horiz-adv-x="547" 
d="M396 383q-9 3 -30.5 8.5t-64.5 5.5q-38 0 -69 -12.5t-53.5 -35t-35 -53.5t-12.5 -68q0 -32 7.5 -60t24 -49t41.5 -33t61 -12q33 0 58 10t41 26.5t24 37t8 42.5v193zM124 -95q23 -16 56.5 -27.5t81.5 -11.5q67 0 100 37t33 97v57q-7 -6 -18.5 -16.5t-29 -20t-41.5 -17
t-55 -7.5q-51 0 -90.5 17.5t-66.5 48t-41 73t-14 92.5q0 54 19 99.5t53.5 79t82.5 52t107 18.5q57 0 106 -10t79 -22v-444q0 -101 -58.5 -156.5t-164.5 -55.5q-71 0 -113 15.5t-68 35.5z" />
    <glyph glyph-name="h" unicode="h" horiz-adv-x="543" 
d="M61 667h89v-271q9 12 22 26t32 26t44 20t57 8q91 0 135 -53t44 -144v-279h-90v272q0 65 -28 95.5t-79 30.5q-39 0 -65 -16t-41.5 -41.5t-22.5 -58t-7 -66.5v-216h-90v667z" />
    <glyph glyph-name="i" unicode="i" horiz-adv-x="222" 
d="M60 649h101v-101h-101v101zM66 465h90v-465h-90v465z" />
    <glyph glyph-name="j" unicode="j" horiz-adv-x="222" 
d="M-53 -101q12 -9 25.5 -15t32.5 -6q35 0 48 33.5t13 107.5v446h90v-471q0 -38 -5.5 -73t-20.5 -62t-43 -43t-73 -16q-37 0 -62.5 12t-41.5 25zM60 649h101v-101h-101v101z" />
    <glyph glyph-name="k" unicode="k" horiz-adv-x="489" 
d="M61 667h90v-393l195 191h108l-176 -172l202 -293h-107l-158 233l-64 -62v-171h-90v667z" />
    <glyph glyph-name="l" unicode="l" horiz-adv-x="212" 
d="M61 667h90v-667h-90v667z" />
    <glyph glyph-name="m" unicode="m" horiz-adv-x="850" 
d="M62 0v417v18.5t-1 29.5h86l3 -70q8 12 21 26.5t31 26.5t42.5 20t56.5 8q54 0 89.5 -21.5t55.5 -62.5q28 33 68.5 58.5t100.5 25.5q90 0 133 -53.5t43 -143.5v-279h-90v272q0 65 -25.5 95.5t-74.5 30.5q-28 0 -51.5 -11.5t-41 -30.5t-27 -44.5t-9.5 -53.5v-258h-90v272
q0 65 -25.5 95.5t-73.5 30.5q-37 0 -62 -16t-40.5 -41.5t-22 -58.5t-6.5 -66v-216h-90z" />
    <glyph glyph-name="n" unicode="n" horiz-adv-x="544" 
d="M62 0v417v18.5t-1 29.5h86l3 -70q9 12 22 26.5t32 26.5t44.5 20t57.5 8q91 0 135 -53t44 -144v-279h-90v272q0 65 -28 95.5t-79 30.5q-39 0 -65 -16t-41.5 -41.5t-22.5 -58t-7 -66.5v-216h-90z" />
    <glyph glyph-name="o" unicode="o" horiz-adv-x="572" 
d="M286 -14q-54 0 -99 19.5t-77.5 53.5t-51 78.5t-18.5 95.5t18.5 95.5t51 78.5t77.5 53.5t99 19.5q53 0 98 -19.5t78 -53.5t51.5 -78.5t18.5 -95.5t-18.5 -95.5t-51.5 -78.5t-78 -53.5t-98 -19.5zM286 64q36 0 65 14.5t49 38t30.5 54t10.5 62.5q0 31 -10.5 61.5t-31 54.5
t-49 38.5t-64.5 14.5t-65 -14.5t-49 -38t-30.5 -54t-10.5 -62.5t10.5 -62t31 -54t49 -38.5t64.5 -14.5z" />
    <glyph glyph-name="p" unicode="p" horiz-adv-x="558" 
d="M151 101q16 -13 46 -25t75 -12q34 0 62.5 12.5t49 35t31.5 52.5t11 66q0 34 -7.5 64t-24 53t-42.5 36.5t-64 13.5q-48 0 -82 -26.5t-48 -77.5q-5 -16 -6 -34.5t-1 -38.5v-119zM62 -200v617v18.5t-1 29.5h86l3 -66q7 9 20 22t32.5 25t45.5 20.5t60 8.5q54 0 93.5 -20
t65.5 -54t38.5 -78t12.5 -93q0 -63 -21.5 -109t-56 -76t-77 -44.5t-83.5 -14.5q-47 0 -75.5 9.5t-53.5 20.5v-216h-89z" />
    <glyph glyph-name="q" unicode="q" horiz-adv-x="548" 
d="M395 46q-4 -5 -14.5 -14.5t-27.5 -20t-40.5 -18t-54.5 -7.5q-54 0 -95 19t-68.5 51.5t-41.5 76.5t-14 94q0 54 19 99.5t53.5 79t82.5 52t107 18.5q57 0 105.5 -10t78.5 -22v-644h-90v246zM396 383q-9 3 -30.5 8.5t-64.5 5.5q-80 0 -125 -46.5t-45 -122.5q0 -32 7.5 -61.5
t24 -52t41.5 -36.5t61 -14q34 0 58.5 10t40.5 27t24 39.5t8 47.5v195z" />
    <glyph glyph-name="r" unicode="r" horiz-adv-x="364" 
d="M62 0v420v16t-1 29h86l3 -75q8 12 21 26.5t31.5 26.5t43 20.5t56.5 8.5q15 0 27.5 -2t23.5 -6l-20 -84q-18 7 -46 7q-29 0 -53.5 -11t-42.5 -30.5t-28.5 -45.5t-10.5 -55v-245h-90z" />
    <glyph glyph-name="s" unicode="s" horiz-adv-x="472" 
d="M92 117q25 -25 60 -40t81 -15q45 0 75 14.5t30 45.5q0 16 -6.5 27.5t-22 20.5t-41 16.5t-63.5 16.5q-27 6 -53.5 16t-47.5 26.5t-34 40t-13 56.5q0 34 15.5 59.5t41.5 43t58.5 26.5t67.5 9q59 0 101.5 -15.5t74.5 -43.5l-49 -62q-21 19 -52.5 32t-73.5 13q-43 0 -69 -14
t-26 -46q0 -30 34.5 -44.5t90.5 -27.5q33 -8 61.5 -18.5t50 -27t34 -40.5t12.5 -58q0 -35 -16 -61.5t-43 -44.5t-62 -27t-73 -9q-132 0 -198 71z" />
    <glyph glyph-name="t" unicode="t" horiz-adv-x="384" 
d="M102 390h-84v75h84v152h90v-152h136v-75h-136v-229q0 -56 17.5 -77t49.5 -21q26 0 43 8t34 24l41 -55q-29 -28 -59.5 -40.5t-72.5 -12.5q-74 0 -108.5 40t-34.5 125v238z" />
    <glyph glyph-name="u" unicode="u" horiz-adv-x="542" 
d="M59 465h90v-273q0 -66 27 -95.5t78 -29.5q39 0 64.5 16t41.5 41.5t22.5 58t6.5 66.5v216h90v-418v-18.5t1 -28.5h-86l-3 69q-9 -12 -22 -26t-32 -25.5t-44 -19.5t-57 -8q-91 0 -134 52.5t-43 143.5v279z" />
    <glyph glyph-name="v" unicode="v" horiz-adv-x="502" 
d="M6 465h103l145 -363l144 363h97l-199 -465h-90z" />
    <glyph glyph-name="w" unicode="w" horiz-adv-x="722" 
d="M11 465h99l104 -355l112 355h77l112 -358l102 358h93l-154 -465h-89l-108 325l-107 -325h-84z" />
    <glyph glyph-name="x" unicode="x" horiz-adv-x="487" 
d="M188 240l-167 225h112l112 -154l110 154h100l-162 -218l185 -247h-113l-129 176l-127 -176h-101z" />
    <glyph glyph-name="y" unicode="y" horiz-adv-x="502" 
d="M64 -114q10 -9 23 -16t32 -7q16 0 27.5 7t21 21.5t18 35t19.5 47.5l12 30l-208 461h103l150 -351l132 351h98l-186 -453q-13 -32 -26.5 -70.5t-33.5 -73t-49 -57.5t-73 -23q-35 0 -59 9.5t-42 25.5z" />
    <glyph glyph-name="z" unicode="z" horiz-adv-x="476" 
d="M52 71l266 318h-257v76h367v-72l-271 -318h274v-75h-379v71z" />
    <glyph glyph-name="trademark" unicode="&#x2122;" horiz-adv-x="870" 
d="M442 667h68l116 -186l114 186h73l12 -383h-71l-7 279l-107 -178h-31l-103 169l-8 -270h-66zM166 601h-136v66h347v-66h-135v-317h-76v317z" />
    <glyph glyph-name="ordfeminine" unicode="&#xaa;" horiz-adv-x="381" 
d="M256 471q-11 2 -29.5 3t-35.5 1q-45 0 -61.5 -16t-16.5 -33q0 -41 60 -41q15 0 30 5t27 13t19 19.5t7 24.5v24zM57 606q20 17 50.5 29.5t78.5 12.5q62 0 99 -29.5t37 -82.5v-172v-10t1 -18h-65q0 4 -0.5 12t-1.5 16q-17 -16 -44.5 -26t-51.5 -10q-21 0 -41 5t-36.5 16.5
t-26.5 29.5t-10 45q0 51 37.5 78t103.5 27q17 0 34 -1t34 -3v8q0 55 -73 55q-32 0 -53.5 -9.5t-36.5 -20.5z" />
    <glyph glyph-name="ordmasculine" unicode="&#xba;" horiz-adv-x="409" 
d="M42 488q0 34 12 63.5t33.5 51t51.5 33.5t66 12t65.5 -12t51 -33.5t33.5 -51t12 -63.5t-12 -63.5t-33.5 -51t-51 -33.5t-65.5 -12t-66 12t-51.5 33.5t-33.5 51t-12 63.5zM205 392q22 0 39 8t28 21.5t16.5 31t5.5 35.5t-5.5 35t-16.5 30.5t-28 22t-39 8.5q-23 0 -40 -8.5
t-28 -22t-16.5 -30.5t-5.5 -35t5.5 -35.5t16.5 -31t28 -21.5t40 -8z" />
    <glyph glyph-name="copyright" unicode="&#xa9;" horiz-adv-x="809" 
d="M404 -14q-73 0 -136.5 27t-110 74.5t-73.5 111t-27 136.5t27 136.5t73.5 110.5t110 74.5t137.5 27.5q73 0 136 -27.5t109.5 -74.5t73.5 -110.5t27 -136.5t-27 -136.5t-73.5 -111t-110 -74.5t-136.5 -27zM404 53q59 0 109 21.5t86.5 59.5t57 89.5t20.5 110.5t-20.5 110.5
t-57 89.5t-86.5 60t-108 22q-59 0 -109 -22t-87 -60t-57.5 -89.5t-20.5 -110.5t20.5 -110.5t57 -89.5t86.5 -59.5t109 -21.5zM562 225q-24 -35 -63.5 -58t-89.5 -23q-42 0 -77 14.5t-60 40t-38.5 60.5t-13.5 76q0 40 14 74.5t39.5 60t60 40t75.5 14.5q51 0 90 -23t63 -58
l-54 -39q-15 21 -40 37t-56 16q-26 0 -47.5 -9.5t-37 -26t-24 -39t-8.5 -48.5q0 -24 8.5 -46t24 -38.5t37 -26.5t47.5 -10q32 0 57.5 16.5t39.5 38.5z" />
    <glyph glyph-name="registered" unicode="&#xae;" horiz-adv-x="535" 
d="M268 233q-50 0 -91.5 16.5t-72.5 46t-48 71t-17 92.5t17 92.5t48 71t72.5 46t91.5 16.5q49 0 91 -16.5t72.5 -46t47.5 -71t17 -92.5t-17 -92.5t-47.5 -71t-72.5 -46t-91 -16.5zM268 281q39 0 71 13t55 36t36 56t13 73t-13 73t-36 56t-55 36t-71 13t-71.5 -13t-55.5 -36
t-36 -56t-13 -73t13 -73t36 -56t55.5 -36t71.5 -13zM189 577h91q33 0 53.5 -18.5t20.5 -50.5q0 -25 -11.5 -41t-29.5 -24l55 -85h-54l-48 80h-32v-80h-45v219zM265 472q19 0 31 7.5t12 27.5q0 17 -11 25t-24 8h-39v-68h31z" />
    <glyph glyph-name="partialdiff" unicode="&#x2202;" horiz-adv-x="554" 
d="M115 616q42 26 83 38.5t92 12.5q54 0 95.5 -21.5t69 -59t41.5 -89t14 -111.5q0 -92 -18.5 -166.5t-54.5 -127t-88.5 -81t-119.5 -28.5q-46 0 -81 13.5t-58.5 37.5t-35.5 57t-12 72q0 48 16.5 92.5t46.5 78t72 54t93 20.5q46 0 83 -13.5t69 -37.5v19q0 43 -8 81t-25.5 66
t-44.5 44t-64 16q-35 0 -66.5 -10t-59.5 -28zM410 271q-11 9 -24 18.5t-30.5 17.5t-39 13t-49.5 5q-35 0 -61 -14.5t-42.5 -36.5t-24.5 -49t-8 -51q0 -55 30 -83t77 -28q62 0 108.5 49.5t63.5 158.5z" />
    <glyph glyph-name="product" unicode="&#x220f;" horiz-adv-x="724" 
d="M127 581h-109v86h686v-86h-109v-702h-95v702h-278v-702h-95v702z" />
    <glyph glyph-name="summation" unicode="&#x2211;" horiz-adv-x="557" 
d="M42 -34l216 315l-215 300v86h474v-86h-363l213 -300l-215 -315h366v-87h-476v87z" />
    <glyph glyph-name="uni2215" unicode="&#x2215;" horiz-adv-x="195" 
d="M259 630h85l-405 -630h-85z" />
    <glyph glyph-name="uni2219" unicode="&#x2219;" horiz-adv-x="240" 
d="M70 406h100v-97h-100v97z" />
    <glyph glyph-name="radical" unicode="&#x221a;" horiz-adv-x="574" 
d="M102 292h-77v86h135l126 -273l191 627h89l-220 -732h-103z" />
    <glyph glyph-name="infinity" unicode="&#x221e;" horiz-adv-x="683" 
d="M341 217q-17 -32 -53.5 -57t-86.5 -25q-36 0 -66 12.5t-51.5 36.5t-34 57.5t-12.5 75.5t12.5 75.5t34 57.5t51.5 36.5t66 12.5q50 0 86.5 -25t53.5 -57q18 32 54.5 57t87.5 25q35 0 64.5 -12.5t51.5 -36.5t34 -57.5t12 -75.5t-12.5 -75.5t-34 -57.5t-51.5 -36.5
t-66 -12.5q-51 0 -87 25t-53 57zM306 317q-9 45 -37.5 73.5t-63.5 28.5q-22 0 -38 -9t-27 -23t-16.5 -32.5t-5.5 -37.5t5.5 -37.5t16.5 -32.5t27 -23t38 -9q35 0 63.5 28.5t37.5 73.5zM376 317q9 -45 37.5 -73.5t63.5 -28.5q22 0 38 9t27 23t16.5 32.5t5.5 37.5t-5.5 37.5
t-16.5 32.5t-27 23t-38 9q-35 0 -63.5 -28.5t-37.5 -73.5z" />
    <glyph glyph-name="integral" unicode="&#x222b;" horiz-adv-x="541" 
d="M59 -12q18 -15 37 -23t42 -8q48 0 66.5 30.5t18.5 93.5v376q0 45 7 86t25.5 72.5t50 50t79.5 18.5q36 0 72 -11.5t65 -39.5l-45 -60q-37 32 -80 32q-50 0 -67.5 -33t-17.5 -91v-380q0 -43 -7 -83t-25.5 -71t-50 -50t-80.5 -19q-35 0 -71 11t-65 40z" />
    <glyph glyph-name="lozenge" unicode="&#x25ca;" horiz-adv-x="576" 
d="M35 333l202 334h100l202 -334l-202 -333h-100zM441 333l-154 259l-153 -259l153 -259z" />
    <glyph glyph-name="Delta" unicode="&#x2206;" horiz-adv-x="667" 
d="M28 86l258 581h95l258 -581v-86h-611v86zM542 86l-212 478l-207 -478h419z" />
    <glyph glyph-name="uni2116" unicode="&#x2116;" horiz-adv-x="1092" 
d="M726 254h310v-59h-310v59zM718 479q0 34 12 63.5t33.5 51t51.5 33.5t66 12t65.5 -12t51 -33.5t33.5 -51t12 -63.5q0 -35 -12 -64t-33.5 -50.5t-51 -33.5t-65.5 -12t-66 12t-51.5 33.5t-33.5 50.5t-12 64zM881 383q22 0 39 8t28 21.5t16.5 31t5.5 35.5t-5.5 35t-16.5 30.5
t-28 22t-39 8.5q-23 0 -40 -8.5t-28 -22t-16.5 -30.5t-5.5 -35t5.5 -35.5t16.5 -31t28 -21.5t40 -8zM76 631h97l352 -492v492h94v-631h-96l-353 493v-493h-94v631z" />
    <glyph glyph-name="estimated" unicode="&#x212e;" horiz-adv-x="891" 
d="M194 138q0 -13 9 -22q48 -50 110 -78.5t135 -28.5q79 0 145 32.5t114 86.5h57q-26 -32 -60.5 -57.5t-75.5 -43.5t-87 -28t-94 -10q-83 0 -156 28.5t-127 77t-85.5 114t-31.5 140.5t31.5 140.5t85.5 114.5t127 77.5t156 28.5t156.5 -28.5t128 -77.5t86 -114.5t31.5 -140.5
v-10h-650q-5 0 -5 -4v-197zM697 358q4 0 4 7v197q0 16 -9 24q-51 46 -109 74t-135 28q-71 0 -132.5 -28t-111.5 -78q-10 -10 -10 -24v-193q0 -7 5 -7h498z" />
    <glyph glyph-name="uni2113" unicode="&#x2113;" horiz-adv-x="426" 
d="M91 437q0 136 38.5 194.5t109.5 58.5q53 0 87 -39t34 -105q0 -91 -48.5 -172.5t-139.5 -163.5v-20q0 -39 6 -64t16.5 -39t25 -19t31.5 -5q32 0 59.5 16t43.5 39l44 -41q-27 -40 -65.5 -63t-90.5 -23q-72 0 -111 40.5t-39 122.5q-12 -9 -22.5 -16l-22.5 -15
q-5 12 -11.5 24t-13.5 24q18 12 35 25t34 29v212zM172 293q54 59 85.5 122.5t31.5 125.5q0 48 -16 67.5t-38 19.5q-26 0 -44.5 -33t-18.5 -109v-193z" />
    <glyph glyph-name="quoteleft" unicode="&#x2018;" horiz-adv-x="239" 
d="M107 667h70l-21 -198h-102z" />
    <glyph glyph-name="quoteright" unicode="&#x2019;" horiz-adv-x="239" 
d="M87 667h102l-53 -198h-69z" />
    <glyph glyph-name="quotesinglbase" unicode="&#x201a;" horiz-adv-x="248" 
d="M89 113h102l-53 -198h-69z" />
    <glyph glyph-name="quotedblleft" unicode="&#x201c;" horiz-adv-x="409" 
d="M107 667h70l-21 -198h-102zM277 667h70l-21 -198h-102z" />
    <glyph glyph-name="quotedblright" unicode="&#x201d;" horiz-adv-x="409" 
d="M87 667h102l-53 -198h-69zM257 667h102l-53 -198h-69z" />
    <glyph glyph-name="quotedblbase" unicode="&#x201e;" horiz-adv-x="418" 
d="M89 113h102l-53 -198h-69zM259 113h102l-53 -198h-69z" />
    <glyph glyph-name="minute" unicode="&#x2032;" horiz-adv-x="239" 
d="M87 667h102l-53 -258h-69z" />
    <glyph glyph-name="second" unicode="&#x2033;" horiz-adv-x="409" 
d="M87 667h102l-53 -258h-69zM257 667h102l-53 -258h-69z" />
    <glyph glyph-name="periodcentered.loclCAT" horiz-adv-x="124" 
d="M12 406h100v-97h-100v97z" />
    <glyph glyph-name="periodcentered.loclCAT.cap" horiz-adv-x="237" 
d="M40 421h107v-103h-107v103z" />
    <glyph glyph-name="uni02BC" unicode="&#x2bc;" horiz-adv-x="217" 
d="M75 676h92l-33 -136h-67z" />
    <glyph glyph-name="dotlessi" unicode="&#x131;" horiz-adv-x="222" 
d="M66 465h90v-465h-90v465z" />
    <glyph glyph-name="uni0237" unicode="&#x237;" horiz-adv-x="222" 
d="M-53 -101q12 -9 25.5 -15t32.5 -6q35 0 48 33.5t13 107.5v446h90v-471q0 -38 -5.5 -73t-20.5 -62t-43 -43t-73 -16q-37 0 -62.5 12t-41.5 25z" />
    <glyph glyph-name="IJ" unicode="&#x132;" horiz-adv-x="752" 
d="M76 667h96v-667h-96v667zM340 135q29 -33 58.5 -48t70.5 -15q24 0 44.5 7.5t36.5 23.5t25 41t9 60v463h96v-471q0 -58 -17 -98.5t-45.5 -66t-66.5 -37t-80 -11.5q-74 0 -121 26t-78 66z" />
    <glyph glyph-name="Ldot" unicode="&#x13f;" horiz-adv-x="548" 
d="M76 667h96v-582h347v-85h-443v667zM341 421h107v-103h-107v103z" />
    <glyph glyph-name="ij" unicode="&#x133;" horiz-adv-x="449" 
d="M60 649h101v-101h-101v101zM66 465h90v-465h-90v465zM174 -101q12 -9 25.5 -15t32.5 -6q35 0 48 33.5t13 107.5v446h90v-471q0 -38 -5.5 -73t-20.5 -62t-43 -43t-73 -16q-37 0 -62.5 12t-41.5 25zM287 649h101v-101h-101v101z" />
    <glyph glyph-name="i.locl" horiz-adv-x="222" 
d="M60 649h101v-101h-101v101zM66 465h90v-465h-90v465z" />
    <glyph glyph-name="ldot" unicode="&#x140;" horiz-adv-x="335" 
d="M61 667h90v-667h-90v667zM224 406h100v-97h-100v97z" />
    <glyph glyph-name="napostrophe" unicode="&#x149;" horiz-adv-x="604" 
d="M122 0v417v18.5t-1 29.5h86l3 -70q9 12 22 26.5t32 26.5t44.5 20t57.5 8q91 0 135 -53t44 -144v-279h-90v272q0 65 -28 95.5t-79 30.5q-39 0 -65 -16t-41.5 -41.5t-22.5 -58t-7 -66.5v-216h-90zM23 676h92l-33 -136h-67z" />
    <glyph glyph-name="uniFB01" unicode="&#xfb01;" horiz-adv-x="539" 
d="M97 390h-84v75h84v20q0 54 16.5 92t45.5 61.5t68 34.5t84 11q41 0 86 -13t80 -38l-41 -67q-24 17 -55.5 29t-69.5 12q-59 0 -91.5 -24.5t-32.5 -86.5v-31h291v-465h-90v390h-201v-390h-90v390z" />
    <glyph glyph-name="uniFB02" unicode="&#xfb02;" horiz-adv-x="550" 
d="M97 390h-84v75h84v23q0 52 15.5 89.5t43 61t66.5 34.5t87 11q30 0 58.5 -4.5t52 -11.5t41.5 -15.5t28 -15.5v-637h-90v591q-17 8 -41 12t-50 4q-66 0 -93.5 -27t-27.5 -92v-23h132v-75h-132v-390h-90v390z" />
    <glyph glyph-name="Thorn" unicode="&#xde;" horiz-adv-x="566" 
d="M76 667h92v-122h118q68 0 113 -19t71.5 -48t37 -64.5t10.5 -69.5q0 -50 -17 -88.5t-47 -64t-72 -38.5t-91 -13h-123v-140h-92v667zM290 222q62 0 95.5 32t33.5 87q0 57 -34.5 89.5t-94.5 32.5h-122v-241h122z" />
    <glyph glyph-name="AE" unicode="&#xc6;" horiz-adv-x="952" 
d="M411 667h473v-86h-325v-194h246v-86h-246v-215h349v-86h-444v179h-251l-109 -179h-101zM464 259v332l-203 -332h203z" />
    <glyph glyph-name="OE" unicode="&#x152;" horiz-adv-x="1119" 
d="M631 113q-16 -30 -41.5 -54t-57.5 -41t-69.5 -26t-76.5 -9q-71 0 -132.5 27.5t-107 75t-71.5 111.5t-26 137t26 136.5t71.5 111t107 75t132.5 27.5q40 0 77 -9t69 -26t57.5 -41t41.5 -54v113h419v-85h-326v-194h247v-86h-247v-216h351v-86h-444v113zM389 73q55 0 99 21
t75.5 57t48.5 83.5t17 100.5q0 54 -17 101.5t-48.5 83.5t-75.5 56.5t-99 20.5t-99.5 -20.5t-76 -56.5t-48.5 -83.5t-17 -101.5q0 -53 17 -100.5t48.5 -83.5t76 -57t99.5 -21z" />
    <glyph glyph-name="uni1E9E" unicode="&#x1e9e;" horiz-adv-x="703" 
d="M66 413q0 132 74 201.5t215 69.5q74 0 136 -22.5t119 -70.5l-122 -211q91 -29 133 -78t42 -125q0 -41 -15.5 -76.5t-42.5 -61.5t-63.5 -41t-78.5 -15q-67 0 -122 26.5t-103 81.5l64 58q41 -44 75 -62t79 -18q51 0 80.5 30t29.5 81q0 122 -204 153l134 231
q-29 18 -63 26.5t-80 8.5q-99 0 -145 -50.5t-46 -158.5v-390h-96v413z" />
    <glyph glyph-name="thorn" unicode="&#xfe;" horiz-adv-x="557" 
d="M61 -200v867h89v-264q7 9 20.5 21.5t33 24t45 19t58.5 7.5q54 0 93.5 -19.5t65.5 -53t38.5 -77.5t12.5 -93q0 -64 -21.5 -110.5t-56 -76.5t-76.5 -44.5t-84 -14.5q-47 0 -75.5 9.5t-53.5 20.5v-216h-89zM150 101q16 -13 46 -25t75 -12q34 0 62.5 12.5t49 35t31.5 53
t11 67.5q0 34 -7.5 64t-24 52.5t-42.5 35.5t-64 13q-26 0 -46.5 -8.5t-36.5 -22t-27.5 -31t-18.5 -36.5q-6 -17 -7 -35t-1 -44v-119z" />
    <glyph glyph-name="ae" unicode="&#xe6;" horiz-adv-x="843" 
d="M57 421q12 9 28.5 19.5t39 19t51 14t64.5 5.5q125 0 170 -79q28 37 71.5 58t96.5 21q60 0 103 -22.5t70.5 -60t40.5 -87t13 -102.5h-366q0 -31 12.5 -57t33.5 -45.5t48 -30.5t57 -11q59 0 97 20t55 39l51 -54q-8 -9 -24 -23t-41.5 -27t-60 -22.5t-78.5 -9.5
q-63 0 -112 24.5t-81 69.5q-40 -53 -84.5 -73t-107.5 -20q-31 0 -61 7.5t-54 24.5t-39 44.5t-15 67.5q0 75 53 115t151 40q15 0 32 -1t33 -2t28.5 -2t19.5 -1v27q0 52 -30.5 74.5t-82.5 22.5q-55 0 -87 -14.5t-53 -29.5zM352 210q-9 1 -22 2.5t-28 2.5t-30 1.5t-27 0.5
q-35 0 -59 -7.5t-38.5 -19t-20.5 -26.5t-6 -30q0 -38 27 -57t73 -19q28 0 52 9t41.5 24t27.5 35t10 41v43zM712 274q-4 54 -38 91.5t-96 37.5q-32 0 -57.5 -11t-43.5 -29t-28 -41t-11 -48h274z" />
    <glyph glyph-name="oe" unicode="&#x153;" horiz-adv-x="938" 
d="M888 68q-8 -9 -24 -23t-41.5 -27t-60 -22.5t-78.5 -9.5q-67 0 -118 28.5t-82 79.5q-30 -49 -82 -78.5t-115 -29.5q-54 0 -99 19.5t-78 53t-51.5 78.5t-18.5 96t18.5 95.5t51.5 78t78 53t99 19.5q63 0 114 -29.5t82 -77.5q29 50 78 78.5t112 28.5q60 0 103 -23t70.5 -61
t40.5 -87.5t13 -101.5h-367q1 -31 13.5 -57t33 -45t48 -30t57.5 -11q29 0 53 5.5t43.5 14.5t33.5 19.5t22 19.5zM287 63q36 0 65 14.5t49 38.5t30.5 54.5t10.5 62.5q0 31 -11 61t-31 54t-48.5 38.5t-64.5 14.5t-65 -14.5t-49.5 -38t-31 -54t-10.5 -61.5q0 -32 11 -62.5
t31 -54.5t49 -38.5t65 -14.5zM807 273q-4 54 -38 92t-96 38q-32 0 -58 -11t-44 -29t-27.5 -41.5t-10.5 -48.5h274z" />
    <glyph glyph-name="germandbls" unicode="&#xdf;" horiz-adv-x="570" 
d="M62 475q0 59 16 99t44 64t67 34.5t85 10.5q37 0 69 -10.5t55.5 -29t37 -44.5t13.5 -57q0 -40 -18.5 -68.5t-40.5 -51t-40.5 -43t-18.5 -44.5t22 -37t57 -22q28 -8 52.5 -18.5t43 -27t29 -41t10.5 -60.5q0 -64 -45 -103t-130 -39q-50 0 -89.5 13.5t-69.5 37.5l53 65
q23 -20 50 -30t53 -10q46 0 67.5 17.5t21.5 43.5q0 30 -17.5 47.5t-66.5 33.5q-24 7 -47 15.5t-41 22.5t-29.5 35.5t-11.5 55.5q0 35 18 61t39 48t39 42.5t18 43.5q0 31 -21.5 53.5t-69.5 22.5q-32 0 -54 -10t-35.5 -27.5t-19.5 -42.5t-6 -55v-470h-89v475z" />
    <glyph glyph-name="longs" unicode="&#x17f;" horiz-adv-x="265" 
d="M66 489q0 40 8.5 75.5t27.5 62t49.5 42t75.5 15.5q37 0 72.5 -11.5t65.5 -39.5l-45 -58q-34 30 -81 30q-43 0 -63.5 -29t-20.5 -97v-479h-89v489z" />
    <glyph glyph-name="kgreenlandic" unicode="&#x138;" horiz-adv-x="497" 
d="M62 465h89v-197l204 197h108l-186 -180l211 -285h-107l-166 224l-64 -62v-162h-89v465z" />
    <glyph glyph-name="Eng" unicode="&#x14a;" horiz-adv-x="707" 
d="M76 667h97l364 -520v520h94v-665q0 -40 -7 -76.5t-24.5 -64.5t-47.5 -44.5t-76 -16.5q-42 0 -70.5 13t-47.5 27l39 65q13 -9 30 -16.5t38 -7.5q29 0 50.5 23.5t21.5 82.5v13l-367 522v-522h-94v667z" />
    <glyph glyph-name="florin" unicode="&#x192;" horiz-adv-x="517" 
d="M-27 -84q12 -12 30.5 -21.5t40.5 -9.5q44 0 65 28t31 82l55 309h-89v77h103l13 76q6 36 17.5 69.5t32.5 60t53 42t78 15.5t76.5 -17t49.5 -38l-49 -63q-17 15 -35.5 24.5t-38.5 9.5q-24 0 -40 -8.5t-26.5 -23.5t-16.5 -36t-10 -46l-11 -65h104v-77h-118l-56 -318
q-6 -35 -18.5 -68.5t-34.5 -59.5t-54.5 -42t-80.5 -16q-30 0 -63.5 14t-56.5 34z" />
    <glyph glyph-name="eng" unicode="&#x14b;" horiz-adv-x="544" 
d="M63 417v20t-1 28h85l3 -70q9 12 22 26.5t32 26.5t44.5 20t57.5 8q91 0 134.5 -53t43.5 -144v-284q0 -38 -5 -73t-20.5 -62t-43 -43t-72.5 -16q-38 0 -63.5 12t-40.5 25l36 61q12 -9 25.5 -15t33.5 -6q27 0 44 23t17 77v294q0 65 -28 95.5t-79 30.5q-39 0 -65 -16
t-41.5 -41.5t-22.5 -58t-7 -66.5v-216h-89v417z" />
    <glyph glyph-name="Eth" unicode="&#xd0;" horiz-adv-x="710" 
d="M77 301h-72v79h72v287h223q79 0 145.5 -19.5t114.5 -61t74.5 -104.5t26.5 -150q0 -84 -27 -146.5t-75 -104t-114.5 -61.5t-145.5 -20h-222v301zM298 86q125 0 194.5 61.5t69.5 183.5q0 121 -66.5 186t-200.5 65h-122v-202h168v-79h-168v-215h125z" />
    <glyph glyph-name="Dcroat" unicode="&#x110;" horiz-adv-x="710" 
d="M77 301h-72v79h72v287h223q79 0 145.5 -19.5t114.5 -61t74.5 -104.5t26.5 -150q0 -84 -27 -146.5t-75 -104t-114.5 -61.5t-145.5 -20h-222v301zM298 86q125 0 194.5 61.5t69.5 183.5q0 121 -66.5 186t-200.5 65h-122v-202h168v-79h-168v-215h125z" />
    <glyph glyph-name="Hbar" unicode="&#x126;" horiz-adv-x="731" 
d="M87 492h-68v70h68v105h96v-105h365v105h96v-105h68v-70h-68v-492h-96v302h-365v-302h-96v492zM548 388v104h-365v-104h365z" />
    <glyph glyph-name="Tbar" unicode="&#x166;" horiz-adv-x="621" 
d="M263 281h-136v79h136v223h-239v84h573v-84h-238v-223h135v-79h-135v-281h-96v281z" />
    <glyph glyph-name="Lslash" unicode="&#x141;" horiz-adv-x="548" 
d="M84 263l-75 -48v85l75 48v319h96v-259l150 97v-85l-150 -97v-238h347v-85h-443v263z" />
    <glyph glyph-name="Oslash" unicode="&#xd8;" horiz-adv-x="779" 
d="M154 77q-50 48 -77.5 114t-27.5 142q0 73 26 137t71.5 111.5t108 75t134.5 27.5q45 0 85 -10.5t75 -30.5l59 83l68 -43l-60 -86q54 -48 84 -116.5t30 -147.5q0 -73 -26 -137t-72 -111t-108.5 -74.5t-134.5 -27.5q-48 0 -90.5 12t-80.5 33l-62 -87l-68 43zM271 104
q25 -15 54.5 -23.5t63.5 -8.5q55 0 99.5 21t76 57t48.5 83.5t17 101.5t-18 102t-50 83zM498 570q-23 13 -50.5 20t-58.5 7q-55 0 -99 -21t-75.5 -56.5t-48.5 -83t-17 -101.5q0 -52 15.5 -97.5t44.5 -80.5z" />
    <glyph glyph-name="eth" unicode="&#xf0;" horiz-adv-x="558" 
d="M220 592q-21 7 -44 10.5t-46 5.5l10 70q68 -4 125 -23l48 67l51 -32l-42 -58q100 -50 148 -144.5t48 -217.5q0 -74 -19.5 -127.5t-53.5 -89t-78.5 -52.5t-95.5 -17q-45 0 -87 15t-74 44.5t-51 73.5t-19 102q0 47 17.5 89t48.5 74t74.5 51t95.5 19q48 0 79 -10t50 -20
q-17 49 -49.5 86t-77.5 61l-53 -73l-51 32zM421 333q-18 12 -50 26.5t-81 14.5q-34 0 -63 -11t-50 -31.5t-33 -49.5t-12 -64t11 -63t30 -48.5t45.5 -31.5t56.5 -11q28 0 55.5 11.5t49.5 36t35 63.5t13 93q0 16 -1 31.5t-6 33.5z" />
    <glyph glyph-name="dcroat" unicode="&#x111;" horiz-adv-x="553" 
d="M397 349q-18 15 -46 25t-68 10q-33 0 -61 -11t-48.5 -32t-32 -51.5t-11.5 -69.5q0 -33 8 -61.5t25 -49.5t42.5 -33t60.5 -12q36 0 61 14t40.5 35t22.5 45t7 45v146zM397 57q-6 -6 -17.5 -18t-30.5 -23.5t-44.5 -20.5t-59.5 -9q-44 0 -81.5 16t-65.5 46.5t-43.5 74
t-15.5 98.5q0 65 23 111t57.5 75t76 42.5t79.5 13.5t66 -8t56 -22v96h-174v63h174v75h89v-75h65v-63h-65v-482v-18.5t1 -28.5h-87z" />
    <glyph glyph-name="hbar" unicode="&#x127;" horiz-adv-x="550" 
d="M70 529h-65v63h65v75h88v-75h175v-63h-175v-145q9 12 22 26t32 26t44 20t57 8q91 0 134.5 -53t43.5 -144v-267h-89v260q0 65 -28 95.5t-79 30.5q-39 0 -65 -16t-41.5 -41.5t-22.5 -58t-7 -66.5v-204h-89v529z" />
    <glyph glyph-name="tbar" unicode="&#x167;" horiz-adv-x="384" 
d="M18 279h84v111h-84v75h84v152h90v-152h136v-75h-136v-111h136v-68h-136v-50q0 -56 17.5 -77t49.5 -21q26 0 43 8t34 24l41 -55q-29 -28 -59.5 -40.5t-72.5 -12.5q-77 0 -110 42t-33 136v46h-84v68z" />
    <glyph glyph-name="lslash" unicode="&#x142;" horiz-adv-x="232" 
d="M72 282l-61 -40v79l61 40v306h90v-248l59 39v-79l-59 -39v-340h-90v282z" />
    <glyph glyph-name="oslash" unicode="&#xf8;" horiz-adv-x="572" 
d="M118 49q-38 35 -58.5 82t-20.5 102q0 51 18.5 95.5t51.5 78t78 53t99 19.5q31 0 59 -7t53 -20l49 69l57 -35l-50 -72q36 -35 57 -81t21 -100q0 -51 -18.5 -96t-51.5 -78.5t-78 -53t-98 -19.5q-32 0 -60 7t-53 18l-46 -64l-56 35zM220 79q30 -16 66 -16t65 14.5t49 38.5
t30.5 54.5t10.5 62.5q0 29 -10 57t-28 51zM351 385q-30 16 -65 16q-36 0 -65 -14.5t-49.5 -38t-31 -54t-10.5 -61.5q0 -30 10 -59t29 -52z" />
    <glyph glyph-name="uni0327.cap" horiz-adv-x="345" 
d="M88 -141q17 -6 35.5 -10t38.5 -4q63 0 63 38q0 14 -13.5 22.5t-42.5 8.5q-37 0 -71 -12q3 14 5.5 28.5t4.5 28.5q18 5 37 9t49 4q54 0 82 -26t28 -61q0 -24 -10.5 -42.5t-28.5 -30.5t-41 -18.5t-48 -6.5q-43 0 -68.5 6.5t-30.5 8.5q3 14 6 28.5t5 28.5z" />
    <glyph glyph-name="cedilla" unicode="&#xb8;" horiz-adv-x="562" 
d="M93 -144q17 -6 35 -10t37 -4q32 0 48.5 10.5t16.5 28.5q0 14 -13.5 24.5t-44.5 10.5q-18 0 -35 -3.5t-34 -9.5l9 55q16 5 34 9t50 4q53 0 80 -26t27 -61q0 -24 -10 -42t-27.5 -30.5t-40 -18.5t-47.5 -6q-43 0 -67 6.5t-29 8.5z" />
    <glyph glyph-name="uni0326" unicode="&#x326;" horiz-adv-x="172" 
d="M62 -56h97l-76 -141h-74z" />
    <glyph glyph-name="uni0326.cap" horiz-adv-x="253" 
d="M96 -56h107l-82 -150h-81z" />
    <glyph glyph-name="uni0312" unicode="&#x312;" horiz-adv-x="179" 
d="M92 676h74l-53 -136h-99z" />
    <glyph glyph-name="uni0328.cap" horiz-adv-x="318" 
d="M212 0q-25 -23 -42 -49.5t-17 -47.5q0 -29 34 -29q15 0 28.5 6t27.5 14l26 -59q-25 -17 -53.5 -26t-53.5 -9q-48 0 -72 20.5t-24 56.5q0 33 21 64.5t47 58.5h78z" />
    <glyph glyph-name="ogonek" unicode="&#x2db;" horiz-adv-x="318" 
d="M204 0q-23 -23 -41 -49t-18 -46q0 -14 9.5 -22t24.5 -8q17 0 31 6t28 15l24 -59q-23 -16 -50.5 -24.5t-51.5 -8.5q-45 0 -69.5 20.5t-24.5 56.5q0 31 19.5 61.5t45.5 57.5h73z" />
    <glyph glyph-name="Ccedilla" unicode="&#xc7;" horiz-adv-x="678" 
d="M643 117q-11 -18 -34 -41t-56 -43.5t-76 -34.5t-95 -14q-74 0 -135 26t-105 72.5t-68.5 110t-24.5 138.5q0 73 24.5 137t68.5 112t105.5 75.5t136.5 27.5q53 0 95 -13t73.5 -32.5t54 -42.5t36.5 -44l-68 -58q-12 17 -28.5 35.5t-39.5 33.5t-53 25t-69 10q-55 0 -98.5 -21
t-74 -57t-46.5 -84t-16 -102t16.5 -101.5t46.5 -82.5t73 -55t96 -20q45 0 77.5 11.5t55 27.5t37 32.5t24.5 27.5zM269 -152q17 -6 35.5 -10t38.5 -4q63 0 63 38q0 14 -13.5 22.5t-42.5 8.5q-37 0 -71 -12q3 14 5.5 28.5t4.5 28.5q18 5 37 9t49 4q54 0 82 -26t28 -61
q0 -24 -10.5 -42.5t-28.5 -30.5t-41 -18.5t-48 -6.5q-43 0 -68.5 6.5t-30.5 8.5q3 14 6 28.5t5 28.5z" />
    <glyph glyph-name="Scedilla" unicode="&#x15e;" horiz-adv-x="582" 
d="M105 162q14 -16 31.5 -32.5t39.5 -29.5t49 -21t59 -8q66 0 103 30t37 81q0 55 -42 82.5t-121 44.5q-43 9 -78 25t-60.5 40t-39.5 55.5t-14 71.5q0 37 14 70t42 58t70 40t97 15q49 0 84.5 -10.5t60.5 -25.5t40 -31t23 -26l-64 -59q-6 7 -18 18.5t-30.5 22.5t-43 18.5
t-56.5 7.5t-55 -8.5t-38 -22t-22 -30.5t-7 -34q0 -25 10.5 -42.5t30.5 -31t49.5 -23t67.5 -18.5q37 -9 72.5 -23.5t63.5 -39t44.5 -60t16.5 -86.5q0 -43 -18 -79t-49.5 -62.5t-74.5 -41t-93 -14.5q-47 0 -85.5 11t-70 28t-55 37.5t-38.5 40.5zM179 -154q17 -6 35.5 -10
t38.5 -4q63 0 63 38q0 14 -13.5 22.5t-42.5 8.5q-37 0 -71 -12q3 14 5.5 28.5t4.5 28.5q18 5 37 9t49 4q54 0 82 -26t28 -61q0 -24 -10.5 -42.5t-28.5 -30.5t-41 -18.5t-48 -6.5q-43 0 -68.5 6.5t-30.5 8.5q3 14 6 28.5t5 28.5z" />
    <glyph glyph-name="uni0162" unicode="&#x162;" horiz-adv-x="621" 
d="M263 583h-239v84h573v-84h-238v-583h-96v583zM204 -150q17 -6 35.5 -10t38.5 -4q63 0 63 38q0 14 -13.5 22.5t-42.5 8.5q-37 0 -71 -12q3 14 5.5 28.5t4.5 28.5q18 5 37 9t49 4q54 0 82 -26t28 -61q0 -24 -10.5 -42.5t-28.5 -30.5t-41 -18.5t-48 -6.5q-43 0 -68.5 6.5
t-30.5 8.5q3 14 6 28.5t5 28.5z" />
    <glyph glyph-name="uni0122" unicode="&#x122;" horiz-adv-x="721" 
d="M417 339h234v-266q-19 -17 -43.5 -33t-57 -28.5t-72.5 -20t-90 -7.5q-78 0 -140.5 26.5t-107 73t-68 110t-23.5 138.5q0 73 24.5 137t68.5 111.5t105.5 75t136.5 27.5q53 0 95 -12.5t73.5 -32t53.5 -42.5t37 -44l-68 -58q-12 17 -29 35.5t-40 33.5t-52.5 25t-67.5 10
q-55 0 -99 -21t-74.5 -57t-47 -84.5t-16.5 -102.5q0 -58 18 -106t50.5 -82.5t76.5 -54t97 -19.5q58 0 98.5 13t69.5 36v136h-142v83zM338 -56h107l-82 -150h-81z" />
    <glyph glyph-name="uni0136" unicode="&#x136;" horiz-adv-x="603" 
d="M76 667h95v-303l279 303h110l-248 -272l278 -395h-115l-228 327l-76 -82v-245h-95v667zM259 -56h107l-82 -150h-81z" />
    <glyph glyph-name="uni013B" unicode="&#x13b;" horiz-adv-x="548" 
d="M76 667h96v-582h347v-85h-443v667zM251 -56h107l-82 -150h-81z" />
    <glyph glyph-name="uni0145" unicode="&#x145;" horiz-adv-x="707" 
d="M76 667h97l364 -521v521h94v-667h-96l-365 522v-522h-94v667zM320 -56h107l-82 -150h-81z" />
    <glyph glyph-name="uni0156" unicode="&#x156;" horiz-adv-x="590" 
d="M76 667h213q64 0 108 -17.5t71.5 -45t40 -62.5t12.5 -71q0 -64 -30 -113t-93 -73l156 -285h-108l-143 273h-134v-273h-93v667zM297 354q63 0 94.5 31t31.5 83q0 55 -34 85.5t-94 30.5h-126v-230h128zM256 -56h107l-82 -150h-81z" />
    <glyph glyph-name="uni0218" unicode="&#x218;" horiz-adv-x="582" 
d="M105 162q14 -16 31.5 -32.5t39.5 -29.5t49 -21t59 -8q66 0 103 30t37 81q0 55 -42 82.5t-121 44.5q-43 9 -78 25t-60.5 40t-39.5 55.5t-14 71.5q0 37 14 70t42 58t70 40t97 15q49 0 84.5 -10.5t60.5 -25.5t40 -31t23 -26l-64 -59q-6 7 -18 18.5t-30.5 22.5t-43 18.5
t-56.5 7.5t-55 -8.5t-38 -22t-22 -30.5t-7 -34q0 -25 10.5 -42.5t30.5 -31t49.5 -23t67.5 -18.5q37 -9 72.5 -23.5t63.5 -39t44.5 -60t16.5 -86.5q0 -43 -18 -79t-49.5 -62.5t-74.5 -41t-93 -14.5q-47 0 -85.5 11t-70 28t-55 37.5t-38.5 40.5zM249 -56h107l-82 -150h-81z
" />
    <glyph glyph-name="uni021A" unicode="&#x21a;" horiz-adv-x="621" 
d="M263 583h-239v84h573v-84h-238v-583h-96v583zM256 -56h107l-82 -150h-81z" />
    <glyph glyph-name="Aogonek" unicode="&#x104;" horiz-adv-x="644" 
d="M273 667h98l261 -667h-107l-69 186h-274l-69 -186h-101zM427 267l-108 293l-109 -293h217zM632 0q-25 -23 -42 -49.5t-17 -47.5q0 -29 34 -29q15 0 28.5 6t27.5 14l26 -59q-25 -17 -53.5 -26t-53.5 -9q-48 0 -72 20.5t-24 56.5q0 33 21 64.5t47 58.5h78z" />
    <glyph glyph-name="Eogonek" unicode="&#x118;" horiz-adv-x="564" 
d="M76 667h420v-85h-324v-194h244v-86h-244v-216h348v-86h-444v667zM463 0q-25 -23 -42 -49.5t-17 -47.5q0 -29 34 -29q15 0 28.5 6t27.5 14l26 -59q-25 -17 -53.5 -26t-53.5 -9q-48 0 -72 20.5t-24 56.5q0 33 21 64.5t47 58.5h78z" />
    <glyph glyph-name="Iogonek" unicode="&#x12e;" horiz-adv-x="248" 
d="M126 667h96v-667h-96v667zM222 0q-25 -23 -42 -49.5t-17 -47.5q0 -29 34 -29q15 0 28.5 6t27.5 14l26 -59q-25 -17 -53.5 -26t-53.5 -9q-48 0 -72 20.5t-24 56.5q0 33 21 64.5t47 58.5h78z" />
    <glyph glyph-name="Uogonek" unicode="&#x172;" horiz-adv-x="673" 
d="M71 667h96v-390q0 -45 8 -82.5t27.5 -64.5t52 -41.5t82.5 -14.5q49 0 81.5 14.5t52 41.5t27.5 64.5t8 82.5v390h96v-413q0 -52 -10 -90t-29.5 -67.5t-48.5 -53t-66 -45.5q-33 -20 -49 -44.5t-16 -50.5q0 -29 34 -29q15 0 28.5 6t27.5 14l26 -59q-25 -17 -53.5 -26
t-53.5 -9q-48 0 -72 20.5t-24 56.5q0 28 15 55t37 51h-11q-68 0 -118 21t-83 57.5t-49 86t-16 106.5v413z" />
    <glyph glyph-name="ccedilla" unicode="&#xe7;" horiz-adv-x="493" 
d="M466 64q-31 -35 -76.5 -56.5t-105.5 -21.5q-56 0 -101.5 18.5t-77 51t-48.5 78t-17 99.5q0 51 18 96t50.5 78.5t77 53t98.5 19.5q59 0 104 -21t77 -57l-59 -57q-21 26 -51 41t-71 15q-36 0 -64.5 -13.5t-48 -37t-30 -54t-10.5 -63.5q0 -32 10.5 -62.5t30 -54t48 -37.5
t64.5 -14q41 0 73.5 15.5t53.5 41.5zM170 -155q17 -6 35 -10t37 -4q32 0 48.5 10.5t16.5 28.5q0 14 -13.5 24.5t-44.5 10.5q-18 0 -35 -3.5t-34 -9.5l9 55q16 5 34 9t50 4q53 0 80 -26t27 -61q0 -24 -10 -42t-27.5 -30.5t-40 -18.5t-47.5 -6q-43 0 -67 6.5t-29 8.5z" />
    <glyph glyph-name="scedilla" unicode="&#x15f;" horiz-adv-x="472" 
d="M92 117q25 -25 60 -40t81 -15q45 0 75 14.5t30 45.5q0 16 -6.5 27.5t-22 20.5t-41 16.5t-63.5 16.5q-27 6 -53.5 16t-47.5 26.5t-34 40t-13 56.5q0 34 15.5 59.5t41.5 43t58.5 26.5t67.5 9q59 0 101.5 -15.5t74.5 -43.5l-49 -62q-21 19 -52.5 32t-73.5 13q-43 0 -69 -14
t-26 -46q0 -30 34.5 -44.5t90.5 -27.5q33 -8 61.5 -18.5t50 -27t34 -40.5t12.5 -58q0 -35 -16 -61.5t-43 -44.5t-62 -27t-73 -9q-132 0 -198 71zM131 -155q17 -6 35 -10t37 -4q32 0 48.5 10.5t16.5 28.5q0 14 -13.5 24.5t-44.5 10.5q-18 0 -35 -3.5t-34 -9.5l9 55q16 5 34 9
t50 4q53 0 80 -26t27 -61q0 -24 -10 -42t-27.5 -30.5t-40 -18.5t-47.5 -6q-43 0 -67 6.5t-29 8.5z" />
    <glyph glyph-name="uni0163" unicode="&#x163;" horiz-adv-x="384" 
d="M102 390h-84v75h84v152h90v-152h136v-75h-136v-229q0 -56 17.5 -77t49.5 -21q26 0 43 8t34 24l41 -55q-29 -28 -59.5 -40.5t-72.5 -12.5q-74 0 -108.5 40t-34.5 125v238zM120 -153q17 -6 35 -10t37 -4q32 0 48.5 10.5t16.5 28.5q0 14 -13.5 24.5t-44.5 10.5
q-18 0 -35 -3.5t-34 -9.5l9 55q16 5 34 9t50 4q53 0 80 -26t27 -61q0 -24 -10 -42t-27.5 -30.5t-40 -18.5t-47.5 -6q-43 0 -67 6.5t-29 8.5z" />
    <glyph glyph-name="uni0123" unicode="&#x123;" horiz-adv-x="547" 
d="M396 383q-9 3 -30.5 8.5t-64.5 5.5q-38 0 -69 -12.5t-53.5 -35t-35 -53.5t-12.5 -68q0 -32 7.5 -60t24 -49t41.5 -33t61 -12q33 0 58 10t41 26.5t24 37t8 42.5v193zM124 -95q23 -16 56.5 -27.5t81.5 -11.5q67 0 100 37t33 97v57q-7 -6 -18.5 -16.5t-29 -20t-41.5 -17
t-55 -7.5q-51 0 -90.5 17.5t-66.5 48t-41 73t-14 92.5q0 54 19 99.5t53.5 79t82.5 52t107 18.5q57 0 106 -10t79 -22v-444q0 -101 -58.5 -156.5t-164.5 -55.5q-71 0 -113 15.5t-68 35.5zM316 676h74l-53 -136h-99z" />
    <glyph glyph-name="uni0137" unicode="&#x137;" horiz-adv-x="489" 
d="M61 667h90v-393l195 191h108l-176 -172l202 -293h-107l-158 233l-64 -62v-171h-90v667zM212 -56h97l-76 -141h-74z" />
    <glyph glyph-name="uni013C" unicode="&#x13c;" horiz-adv-x="214" 
d="M62 667h90v-667h-90v667zM58 -56h97l-76 -141h-74z" />
    <glyph glyph-name="uni0146" unicode="&#x146;" horiz-adv-x="544" 
d="M62 0v417v18.5t-1 29.5h86l3 -70q9 12 22 26.5t32 26.5t44.5 20t57.5 8q91 0 135 -53t44 -144v-279h-90v272q0 65 -28 95.5t-79 30.5q-39 0 -65 -16t-41.5 -41.5t-22.5 -58t-7 -66.5v-216h-90zM234 -56h97l-76 -141h-74z" />
    <glyph glyph-name="uni0157" unicode="&#x157;" horiz-adv-x="364" 
d="M62 0v420v16t-1 29h86l3 -75q8 12 21 26.5t31.5 26.5t43 20.5t56.5 8.5q15 0 27.5 -2t23.5 -6l-20 -84q-18 7 -46 7q-29 0 -53.5 -11t-42.5 -30.5t-28.5 -45.5t-10.5 -55v-245h-90zM62 -56h97l-76 -141h-74z" />
    <glyph glyph-name="uni0219" unicode="&#x219;" horiz-adv-x="472" 
d="M92 117q25 -25 60 -40t81 -15q45 0 75 14.5t30 45.5q0 16 -6.5 27.5t-22 20.5t-41 16.5t-63.5 16.5q-27 6 -53.5 16t-47.5 26.5t-34 40t-13 56.5q0 34 15.5 59.5t41.5 43t58.5 26.5t67.5 9q59 0 101.5 -15.5t74.5 -43.5l-49 -62q-21 19 -52.5 32t-73.5 13q-43 0 -69 -14
t-26 -46q0 -30 34.5 -44.5t90.5 -27.5q33 -8 61.5 -18.5t50 -27t34 -40.5t12.5 -58q0 -35 -16 -61.5t-43 -44.5t-62 -27t-73 -9q-132 0 -198 71zM202 -56h97l-76 -141h-74z" />
    <glyph glyph-name="uni021B" unicode="&#x21b;" horiz-adv-x="384" 
d="M102 390h-84v75h84v152h90v-152h136v-75h-136v-229q0 -56 17.5 -77t49.5 -21q26 0 43 8t34 24l41 -55q-29 -28 -59.5 -40.5t-72.5 -12.5q-74 0 -108.5 40t-34.5 125v238zM193 -56h97l-76 -141h-74z" />
    <glyph glyph-name="aogonek" unicode="&#x105;" horiz-adv-x="499" 
d="M353 56q-26 -35 -68.5 -52t-87.5 -17q-29 0 -57.5 7.5t-52 25t-38 45t-14.5 67.5q0 75 52.5 120t151.5 45q16 0 34 -1t34 -2t28 -2t17 -2v17q0 52 -31.5 74.5t-85.5 22.5q-53 0 -84 -14.5t-52 -29.5l-42 61q12 10 29 20t40 18.5t52 14t67 5.5q90 0 141.5 -43.5
t51.5 -123.5v-271v-17.5t1 -23.5h-84zM352 220q-4 1 -15.5 2.5t-26.5 2.5t-32 2t-33 1q-38 0 -61.5 -9t-37 -22.5t-18.5 -30t-5 -31.5q0 -38 26 -57.5t72 -19.5q26 0 49.5 9t41.5 24t29 35t11 41v53zM439 0q-23 -23 -41 -49t-18 -46q0 -14 9.5 -22t24.5 -8q17 0 31 6t28 15
l24 -59q-23 -16 -50.5 -24.5t-51.5 -8.5q-45 0 -69.5 20.5t-24.5 56.5q0 31 19.5 61.5t45.5 57.5h73z" />
    <glyph glyph-name="eogonek" unicode="&#x119;" horiz-adv-x="536" 
d="M451 -162q-23 -16 -50.5 -25t-51.5 -9q-45 0 -69 21t-24 56q0 28 14.5 54.5t36.5 51.5q-7 0 -12.5 -0.5t-12.5 -0.5q-54 0 -99 19t-77 52.5t-49.5 79.5t-17.5 99q0 51 17.5 95.5t48 77t73.5 51.5t94 19q58 0 100.5 -22.5t70.5 -60t41.5 -87t13.5 -103.5h-367
q1 -31 13.5 -57t33.5 -45t48 -30t57 -11q59 0 97 20t55 39l51 -54q-12 -16 -37.5 -33.5t-51 -37t-44.5 -42.5t-19 -49q0 -15 9.5 -22.5t24.5 -7.5q17 0 31.5 5.5t28.5 14.5zM407 273q-4 54 -38 91t-96 37q-31 0 -56.5 -10.5t-44.5 -28.5t-29.5 -41t-11.5 -48h276z" />
    <glyph glyph-name="iogonek" unicode="&#x12f;" horiz-adv-x="222" 
d="M58 649h101v-101h-101v101zM64 465h90v-465h-90v465zM154 0q-23 -23 -41 -49t-18 -46q0 -14 9.5 -22t24.5 -8q17 0 31 6t28 15l24 -59q-23 -16 -50.5 -24.5t-51.5 -8.5q-45 0 -69.5 20.5t-24.5 56.5q0 31 19.5 61.5t45.5 57.5h73z" />
    <glyph glyph-name="uogonek" unicode="&#x173;" horiz-adv-x="542" 
d="M59 465h90v-273q0 -66 27 -95.5t78 -29.5q39 0 64.5 16t41.5 41.5t22.5 58t6.5 66.5v216h90v-418v-18.5t1 -28.5h-86l-3 69q-9 -12 -22 -26t-32 -25.5t-44 -19.5t-57 -8q-91 0 -134 52.5t-43 143.5v279zM480 0q-23 -23 -41 -49t-18 -46q0 -14 9.5 -22t24.5 -8q17 0 31 6
t28 15l24 -59q-23 -16 -50.5 -24.5t-51.5 -8.5q-45 0 -69.5 20.5t-24.5 56.5q0 31 19.5 61.5t45.5 57.5h73z" />
    <glyph glyph-name="acutecomb.cap" horiz-adv-x="271" 
d="M115 870h114l-106 -150h-81z" />
    <glyph glyph-name="acute" unicode="&#xb4;" horiz-adv-x="401" 
d="M207 676h98l-77 -136h-75z" />
    <glyph glyph-name="uni030B.cap" horiz-adv-x="458" 
d="M126 870h108l-109 -150h-76zM302 870h108l-109 -150h-76z" />
    <glyph glyph-name="hungarumlaut" unicode="&#x2dd;" horiz-adv-x="408" 
d="M259 676h94l-78 -136h-69zM107 676h95l-78 -136h-70z" />
    <glyph glyph-name="Aacute" unicode="&#xc1;" horiz-adv-x="644" 
d="M273 667h98l261 -667h-107l-69 186h-274l-69 -186h-101zM427 267l-108 293l-109 -293h217zM345 870h114l-106 -150h-81z" />
    <glyph glyph-name="Cacute" unicode="&#x106;" horiz-adv-x="678" 
d="M643 117q-11 -18 -34 -41t-56 -43.5t-76 -34.5t-95 -14q-74 0 -135 26t-105 72.5t-68.5 110t-24.5 138.5q0 73 24.5 137t68.5 112t105.5 75.5t136.5 27.5q53 0 95 -13t73.5 -32.5t54 -42.5t36.5 -44l-68 -58q-12 17 -28.5 35.5t-39.5 33.5t-53 25t-69 10q-55 0 -98.5 -21
t-74 -57t-46.5 -84t-16 -102t16.5 -101.5t46.5 -82.5t73 -55t96 -20q45 0 77.5 11.5t55 27.5t37 32.5t24.5 27.5zM398 870h114l-106 -150h-81z" />
    <glyph glyph-name="Eacute" unicode="&#xc9;" horiz-adv-x="564" 
d="M76 667h420v-85h-324v-194h244v-86h-244v-216h348v-86h-444v667zM311 870h114l-106 -150h-81z" />
    <glyph glyph-name="Iacute" unicode="&#xcd;" horiz-adv-x="248" 
d="M76 667h96v-667h-96v667zM147 870h114l-106 -150h-81z" />
    <glyph glyph-name="Lacute" unicode="&#x139;" horiz-adv-x="548" 
d="M76 667h96v-582h347v-85h-443v667zM157 870h114l-106 -150h-81z" />
    <glyph glyph-name="Nacute" unicode="&#x143;" horiz-adv-x="707" 
d="M76 667h97l364 -521v521h94v-667h-96l-365 522v-522h-94v667zM375 870h114l-106 -150h-81z" />
    <glyph glyph-name="Oacute" unicode="&#xd3;" horiz-adv-x="779" 
d="M389 -17q-72 0 -134 27.5t-108 75t-72 111.5t-26 137t26 136.5t71.5 111t108 75t134.5 27.5t134.5 -27.5t108.5 -75t72 -111t26 -136.5t-26 -137t-72 -111.5t-108.5 -75t-134.5 -27.5zM389 73q55 0 99.5 21t76 57t48.5 83.5t17 100.5q0 54 -17 101.5t-48.5 83.5t-76 56.5
t-99.5 20.5t-99 -20.5t-75.5 -56.5t-48.5 -83.5t-17 -101.5q0 -53 17 -100.5t48.5 -83.5t75.5 -57t99 -21zM413 870h114l-106 -150h-81z" />
    <glyph glyph-name="Racute" unicode="&#x154;" horiz-adv-x="590" 
d="M76 667h213q64 0 108 -17.5t71.5 -45t40 -62.5t12.5 -71q0 -64 -30 -113t-93 -73l156 -285h-108l-143 273h-134v-273h-93v667zM297 354q63 0 94.5 31t31.5 83q0 55 -34 85.5t-94 30.5h-126v-230h128zM291 870h114l-106 -150h-81z" />
    <glyph glyph-name="Sacute" unicode="&#x15a;" horiz-adv-x="582" 
d="M105 162q14 -16 31.5 -32.5t39.5 -29.5t49 -21t59 -8q66 0 103 30t37 81q0 55 -42 82.5t-121 44.5q-43 9 -78 25t-60.5 40t-39.5 55.5t-14 71.5q0 37 14 70t42 58t70 40t97 15q49 0 84.5 -10.5t60.5 -25.5t40 -31t23 -26l-64 -59q-6 7 -18 18.5t-30.5 22.5t-43 18.5
t-56.5 7.5t-55 -8.5t-38 -22t-22 -30.5t-7 -34q0 -25 10.5 -42.5t30.5 -31t49.5 -23t67.5 -18.5q37 -9 72.5 -23.5t63.5 -39t44.5 -60t16.5 -86.5q0 -43 -18 -79t-49.5 -62.5t-74.5 -41t-93 -14.5q-47 0 -85.5 11t-70 28t-55 37.5t-38.5 40.5zM311 870h114l-106 -150h-81z
" />
    <glyph glyph-name="Uacute" unicode="&#xda;" horiz-adv-x="673" 
d="M71 667h96v-390q0 -45 8 -82.5t27.5 -64.5t52 -41.5t82.5 -14.5q49 0 81.5 14.5t52 41.5t27.5 64.5t8 82.5v390h96v-413q0 -57 -16 -106.5t-48.5 -86t-82.5 -57.5t-118 -21t-118 21t-83 57.5t-49 86t-16 106.5v413zM354 870h114l-106 -150h-81z" />
    <glyph glyph-name="Wacute" unicode="&#x1e82;" horiz-adv-x="878" 
d="M18 667h106l128 -538l145 518h93l142 -517l128 537h100l-179 -667h-102l-139 493l-143 -493h-101zM470 870h114l-106 -150h-81z" />
    <glyph glyph-name="Yacute" unicode="&#xdd;" horiz-adv-x="590" 
d="M246 298l-230 369h107l174 -285l174 285h103l-231 -369v-298h-97v298zM325 870h114l-106 -150h-81z" />
    <glyph glyph-name="Zacute" unicode="&#x179;" horiz-adv-x="641" 
d="M51 84l415 498h-395v85h512v-85l-410 -497h417v-85h-539v84zM337 870h114l-106 -150h-81z" />
    <glyph glyph-name="Ohungarumlaut" unicode="&#x150;" horiz-adv-x="779" 
d="M389 -17q-72 0 -134 27.5t-108 75t-72 111.5t-26 137t26 136.5t71.5 111t108 75t134.5 27.5t134.5 -27.5t108.5 -75t72 -111t26 -136.5t-26 -137t-72 -111.5t-108.5 -75t-134.5 -27.5zM389 73q55 0 99.5 21t76 57t48.5 83.5t17 100.5q0 54 -17 101.5t-48.5 83.5t-76 56.5
t-99.5 20.5t-99 -20.5t-75.5 -56.5t-48.5 -83.5t-17 -101.5q0 -53 17 -100.5t48.5 -83.5t75.5 -57t99 -21zM342 870h108l-109 -150h-76zM518 870h108l-109 -150h-76z" />
    <glyph glyph-name="Uhungarumlaut" unicode="&#x170;" horiz-adv-x="673" 
d="M71 667h96v-390q0 -45 8 -82.5t27.5 -64.5t52 -41.5t82.5 -14.5q49 0 81.5 14.5t52 41.5t27.5 64.5t8 82.5v390h96v-413q0 -57 -16 -106.5t-48.5 -86t-82.5 -57.5t-118 -21t-118 21t-83 57.5t-49 86t-16 106.5v413zM272 870h108l-109 -150h-76zM448 870h108l-109 -150
h-76z" />
    <glyph glyph-name="aacute" unicode="&#xe1;" horiz-adv-x="499" 
d="M353 56q-26 -35 -68.5 -52t-87.5 -17q-29 0 -57.5 7.5t-52 25t-38 45t-14.5 67.5q0 75 52.5 120t151.5 45q16 0 34 -1t34 -2t28 -2t17 -2v17q0 52 -31.5 74.5t-85.5 22.5q-53 0 -84 -14.5t-52 -29.5l-42 61q12 10 29 20t40 18.5t52 14t67 5.5q90 0 141.5 -43.5
t51.5 -123.5v-271v-17.5t1 -23.5h-84zM352 220q-4 1 -15.5 2.5t-26.5 2.5t-32 2t-33 1q-38 0 -61.5 -9t-37 -22.5t-18.5 -30t-5 -31.5q0 -38 26 -57.5t72 -19.5q26 0 49.5 9t41.5 24t29 35t11 41v53zM256 676h98l-77 -136h-75z" />
    <glyph glyph-name="cacute" unicode="&#x107;" horiz-adv-x="493" 
d="M466 64q-31 -35 -76.5 -56.5t-105.5 -21.5q-56 0 -101.5 18.5t-77 51t-48.5 78t-17 99.5q0 51 18 96t50.5 78.5t77 53t98.5 19.5q59 0 104 -21t77 -57l-59 -57q-21 26 -51 41t-71 15q-36 0 -64.5 -13.5t-48 -37t-30 -54t-10.5 -63.5q0 -32 10.5 -62.5t30 -54t48 -37.5
t64.5 -14q41 0 73.5 15.5t53.5 41.5zM288 676h98l-77 -136h-75z" />
    <glyph glyph-name="eacute" unicode="&#xe9;" horiz-adv-x="536" 
d="M486 68q-8 -9 -24 -23t-41.5 -27t-60 -22.5t-78.5 -9.5q-54 0 -99 18t-77 51t-49.5 79t-17.5 102q0 51 17 95.5t48 77t73.5 51.5t93.5 19q60 0 103 -23t70.5 -61t40.5 -87t13 -102h-367q1 -31 13.5 -57t33.5 -45t48 -30t57 -11q59 0 97 20t55 39zM405 273q-4 54 -38 92
t-96 38q-32 0 -57.5 -11t-43.5 -29t-28 -41.5t-11 -48.5h274zM285 676h98l-77 -136h-75z" />
    <glyph glyph-name="iacute" unicode="&#xed;" horiz-adv-x="222" 
d="M66 465h90v-465h-90v465zM125 676h98l-77 -136h-75z" />
    <glyph glyph-name="lacute" unicode="&#x13a;" horiz-adv-x="214" 
d="M62 667h90v-667h-90v667zM135 870h114l-106 -150h-81z" />
    </font>
</defs>
</svg>
